<?xml version="1.0" encoding="UTF-8" standalone="no"?>
<!DOCTYPE svg PUBLIC "-//W3C//DTD SVG 1.0//EN" "http://www.w3.org/TR/2001/REC-SVG-20010904/DTD/svg10.dtd">
<!-- Generated by Microsoft Visio 11.0, SVG Export, v1.0 average_4vals_blockDiagram.svg Page-1 -->
<svg xmlns="http://www.w3.org/2000/svg" xmlns:xlink="http://www.w3.org/1999/xlink" xmlns:ev="http://www.w3.org/2001/xml-events"
		xmlns:v="http://schemas.microsoft.com/visio/2003/SVGExtensions/" width="8.52229in" height="3.88823in"
		viewBox="0 0 613.605 279.952" xml:space="preserve" color-interpolation-filters="sRGB" class="st15">
	<v:documentProperties v:langID="1033" v:viewMarkup="false"/>

	<style type="text/css">
	<![CDATA[
		.st1 {fill:none;stroke:#000000;stroke-linecap:round;stroke-linejoin:round;stroke-width:3}
		.st2 {fill:none;stroke:none;stroke-linecap:round;stroke-linejoin:round;stroke-width:0.75}
		.st3 {fill:#000000;font-family:Calibri;font-size:1.5em}
		.st4 {fill:#ffffff;stroke:#000000;stroke-linecap:round;stroke-linejoin:round;stroke-width:0.75}
		.st5 {fill:#000000;font-family:Calibri;font-size:0.833336em}
		.st6 {stroke:#000000;stroke-linecap:round;stroke-linejoin:round;stroke-width:0.75}
		.st7 {fill:#ffffff;stroke:#000000;stroke-linecap:round;stroke-linejoin:round;stroke-width:0.24}
		.st8 {fill:#000000;font-family:Calibri;font-size:0.666664em}
		.st9 {marker-start:url(#mrkr5-122);stroke:#000000;stroke-linecap:round;stroke-linejoin:round;stroke-width:0.75}
		.st10 {fill:#000000;fill-opacity:1;stroke:#000000;stroke-opacity:1;stroke-width:0.22935779816514}
		.st11 {marker-end:url(#mrkr5-128);stroke:#000000;stroke-linecap:round;stroke-linejoin:round;stroke-width:0.75}
		.st12 {fill:#000000;font-family:Calibri;font-size:1.00001em}
		.st13 {font-size:1em}
		.st14 {fill:#000000;stroke:#000000;stroke-linecap:round;stroke-linejoin:round;stroke-width:0.75}
		.st15 {fill:none;fill-rule:evenodd;font-size:12px;overflow:visible;stroke-linecap:square;stroke-miterlimit:3}
	]]>
	</style>

	<defs id="Markers">
		<g id="lend5">
			<path d="M 2 1 L 0 0 L 1.98117 -0.993387 C 1.67173 -0.364515 1.67301 0.372641 1.98465 1.00043 " style="stroke:none"/>
		</g>
		<marker id="mrkr5-122" class="st10" v:arrowType="5" v:arrowSize="2" v:setback="7.15" refX="7.15" orient="auto"
				markerUnits="strokeWidth" overflow="visible">
			<use xlink:href="#lend5" transform="scale(4.36) "/>
		</marker>
		<marker id="mrkr5-128" class="st10" v:arrowType="5" v:arrowSize="2" v:setback="7.63" refX="-7.63" orient="auto"
				markerUnits="strokeWidth" overflow="visible">
			<use xlink:href="#lend5" transform="scale(-4.36,-4.36) "/>
		</marker>
	</defs>
	<g v:mID="0" v:index="1" v:groupContext="foregroundPage">
		<title>Page-1</title>
		<v:pageProperties v:drawingScale="1" v:pageScale="1" v:drawingUnits="19" v:shadowOffsetX="9" v:shadowOffsetY="-9"/>
		<v:layer v:name="Electrical" v:index="0"/>
		<g id="shape6-1" v:mID="6" v:groupContext="shape" transform="translate(74.49,-30.6526)">
			<title>Sheet.6</title>
			<rect x="0" y="54.9524" width="445.5" height="225" class="st1"/>
		</g>
		<g id="shape8-3" v:mID="8" v:groupContext="shape" transform="translate(91.365,-259.153)">
			<title>Sheet.8</title>
			<desc>average_4vals</desc>
			<v:textBlock v:margins="rect(4,4,4,4)"/>
			<v:textRect cx="83.25" cy="269.952" width="166.5" height="20"/>
			<rect x="0" y="259.952" width="166.5" height="20" class="st2"/>
			<text x="4" y="275.35" class="st3" v:langID="1033"><v:paragraph/><v:tabList/>average_4vals</text>		</g>
		<g id="shape20-6" v:mID="20" v:groupContext="shape" transform="translate(99.24,-169.865)">
			<title>Sheet.20</title>
			<desc>accumulator</desc>
			<v:textBlock v:margins="rect(4,4,4,4)"/>
			<v:textRect cx="74.8125" cy="246.202" width="149.63" height="67.5"/>
			<rect x="0" y="212.452" width="149.625" height="67.5" class="st4"/>
			<text x="49.34" y="249.2" class="st5" v:langID="1033"><v:paragraph v:horizAlign="1"/><v:tabList/>accumulator</text>		</g>
		<g id="shape27-9" v:mID="27" v:groupContext="shape" transform="translate(99.24,-176.615)">
			<title>Sheet.27</title>
			<path d="M0 267.58 L7.88 273.76 L0 279.95" class="st6"/>
		</g>
		<g id="shape30-12" v:mID="30" v:groupContext="shape" transform="translate(209.49,-166.74)">
			<title>Sheet.30</title>
			<desc>load</desc>
			<v:textBlock v:margins="rect(4,4,4,4)" v:verticalAlign="2"/>
			<v:textRect cx="14.6" cy="269.952" width="29.2" height="20"/>
			<rect x="0" y="259.952" width="29.2" height="20" class="st2"/>
			<text x="5.79" y="272.95" class="st5" v:langID="1033"><v:paragraph v:horizAlign="1"/><v:tabList/>load</text>		</g>
		<g id="shape37-15" v:mID="37" v:groupContext="shape" v:layerMember="0" transform="translate(561.615,-96.2776)">
			<title>I/O port.19</title>
			<desc>addr_r</desc>
			<v:userDefs>
				<v:ud v:nameU="Form" v:val="VT0(0):26"/>
				<v:ud v:nameU="visDescription" v:val="VT4(Unidirectional or bidirectional I/O port. )"/>
				<v:ud v:nameU="visVersion" v:val="VT0(14):26"/>
			</v:userDefs>
			<v:textBlock v:margins="rect(1,1,1,1)"/>
			<v:textRect cx="20.25" cy="270.577" width="25.62" height="11.6036"/>
			<path d="M0 271.33 L0 262.7 L34.5 262.7 L51.75 271.33 L34.5 279.95 L0 279.95 L0 271.33 Z" class="st7"/>
			<text x="9.35" y="272.98" class="st8" v:langID="1033"><v:paragraph v:horizAlign="1"/><v:tabList/>addr_r</text>		</g>
		<g id="shape40-18" v:mID="40" v:groupContext="shape" v:layerMember="0" transform="translate(558.24,-212.052)">
			<title>I/O port.33</title>
			<desc>average</desc>
			<v:userDefs>
				<v:ud v:nameU="Form" v:val="VT0(0):26"/>
				<v:ud v:nameU="visDescription" v:val="VT4(Unidirectional or bidirectional I/O port. )"/>
				<v:ud v:nameU="visVersion" v:val="VT0(14):26"/>
			</v:userDefs>
			<v:textBlock v:margins="rect(1,1,1,1)"/>
			<v:textRect cx="20.25" cy="270.577" width="29.61" height="11.6036"/>
			<path d="M0 271.33 L0 262.7 L34.5 262.7 L51.75 271.33 L34.5 279.95 L0 279.95 L0 271.33 Z" class="st7"/>
			<text x="7.35" y="272.98" class="st8" v:langID="1033"><v:paragraph v:horizAlign="1"/><v:tabList/>average</text>		</g>
		<g id="shape41-21" v:mID="41" v:groupContext="shape" transform="translate(342.596,-19.1564) rotate(-45)">
			<title>Sheet.41</title>
			<path d="M0 279.95 L11.67 279.95" class="st6"/>
		</g>
		<g id="shape42-24" v:mID="42" v:groupContext="shape" transform="translate(528.021,-100.403)">
			<title>Sheet.42</title>
			<desc>2</desc>
			<v:textBlock v:margins="rect(4,4,4,4)"/>
			<v:textRect cx="14.4688" cy="269.952" width="28.94" height="20"/>
			<rect x="0" y="259.952" width="28.9375" height="20" class="st2"/>
			<text x="11.93" y="272.95" class="st5" v:langID="1033"><v:paragraph v:horizAlign="1"/><v:tabList/>2</text>		</g>
		<g id="shape45-27" v:mID="45" v:groupContext="shape" transform="translate(336.503,-134.431) rotate(-45)">
			<title>Sheet.45</title>
			<path d="M0 279.95 L11.67 279.95" class="st6"/>
		</g>
		<g id="shape46-30" v:mID="46" v:groupContext="shape" transform="translate(528.99,-203.178)">
			<title>Sheet.46</title>
			<desc>26</desc>
			<v:textBlock v:margins="rect(4,4,4,4)"/>
			<v:textRect cx="14.4688" cy="269.952" width="28.94" height="20"/>
			<rect x="0" y="259.952" width="28.9375" height="20" class="st2"/>
			<text x="9.4" y="272.95" class="st5" v:langID="1033"><v:paragraph v:horizAlign="1"/><v:tabList/>26</text>		</g>
		<g id="shape1-33" v:mID="1" v:groupContext="shape" transform="translate(215.115,-210.615)">
			<title>Sheet.1</title>
			<desc>Q</desc>
			<v:textBlock v:margins="rect(4,4,4,4)"/>
			<v:textRect cx="16.85" cy="269.952" width="33.7" height="20"/>
			<rect x="0" y="259.952" width="33.7" height="20" class="st2"/>
			<text x="22.97" y="272.95" class="st5" v:langID="1033"><v:paragraph v:horizAlign="2"/><v:tabList/>Q</text>		</g>
		<g id="shape2-36" v:mID="2" v:groupContext="shape" transform="translate(110.49,-166.74)">
			<title>Sheet.2</title>
			<desc>reset_n</desc>
			<v:textBlock v:margins="rect(4,4,4,4)" v:verticalAlign="2"/>
			<v:textRect cx="22.5" cy="269.952" width="45" height="20"/>
			<rect x="0" y="259.952" width="45" height="20" class="st2"/>
			<text x="7.03" y="272.95" class="st5" v:langID="1033"><v:paragraph v:horizAlign="1"/><v:tabList/>reset_n</text>		</g>
		<g id="shape3-39" v:mID="3" v:groupContext="shape" transform="translate(159.99,-166.74)">
			<title>Sheet.3</title>
			<desc>add_sub</desc>
			<v:textBlock v:margins="rect(4,4,4,4)" v:verticalAlign="2"/>
			<v:textRect cx="22.5" cy="269.952" width="45" height="20"/>
			<rect x="0" y="259.952" width="45" height="20" class="st2"/>
			<text x="5.15" y="272.95" class="st5" v:langID="1033"><v:paragraph v:horizAlign="1"/><v:tabList/>add_sub</text>		</g>
		<g id="shape4-42" v:mID="4" v:groupContext="shape" transform="translate(98.115,-210.615)">
			<title>Sheet.4</title>
			<desc>X</desc>
			<v:textBlock v:margins="rect(4,4,4,4)" v:verticalAlign="2"/>
			<v:textRect cx="22.5" cy="269.952" width="45" height="20"/>
			<rect x="0" y="259.952" width="45" height="20" class="st2"/>
			<text x="4" y="272.95" class="st5" v:langID="1033"><v:paragraph/><v:tabList/>X</text>		</g>
		<g id="shape5-45" v:mID="5" v:groupContext="shape" transform="translate(110.49,-49.74)">
			<title>Sheet.5</title>
			<desc>average_4vals_fsm</desc>
			<v:textBlock v:margins="rect(4,4,4,4)"/>
			<v:textRect cx="54" cy="239.452" width="108" height="81"/>
			<rect x="0" y="198.952" width="108" height="81" class="st4"/>
			<text x="15.13" y="242.45" class="st5" v:langID="1033"><v:paragraph v:horizAlign="1"/><v:tabList/>average_4vals_fsm</text>		</g>
		<g id="shape7-48" v:mID="7" v:groupContext="shape" transform="translate(110.49,-56.49)">
			<title>Sheet.7</title>
			<path d="M0 267.58 L7.88 273.76 L0 279.95" class="st6"/>
		</g>
		<g id="shape9-51" v:mID="9" v:groupContext="shape" transform="translate(173.49,-48.865)">
			<title>Sheet.9</title>
			<desc>reset_n</desc>
			<v:textBlock v:margins="rect(4,4,4,4)" v:verticalAlign="2"/>
			<v:textRect cx="22.5" cy="269.952" width="45" height="20"/>
			<rect x="0" y="259.952" width="45" height="20" class="st2"/>
			<text x="7.03" y="272.95" class="st5" v:langID="1033"><v:paragraph v:horizAlign="1"/><v:tabList/>reset_n</text>		</g>
		<g id="shape10-54" v:mID="10" v:groupContext="shape" transform="translate(173.49,-108.303)">
			<title>Sheet.10</title>
			<desc>divide</desc>
			<v:textBlock v:margins="rect(4,4,4,4)" v:verticalAlign="2"/>
			<v:textRect cx="22.5" cy="269.952" width="45" height="20"/>
			<rect x="0" y="259.952" width="45" height="20" class="st2"/>
			<text x="16.41" y="272.95" class="st5" v:langID="1033"><v:paragraph v:horizAlign="2"/><v:tabList/>divide</text>		</g>
		<g id="shape11-57" v:mID="11" v:groupContext="shape" transform="translate(110.49,-108.428)">
			<title>Sheet.11</title>
			<desc>resetAdder</desc>
			<v:textBlock v:margins="rect(4,4,4,4)" v:verticalAlign="2"/>
			<v:textRect cx="28.125" cy="269.952" width="56.25" height="20"/>
			<rect x="0" y="259.952" width="56.25" height="20" class="st2"/>
			<text x="4" y="272.95" class="st5" v:langID="1033"><v:paragraph/><v:tabList/>resetAdder</text>		</g>
		<g id="shape12-60" v:mID="12" v:groupContext="shape" transform="translate(129.685,-163.084)">
			<title>Sheet.12</title>
			<ellipse cx="3.375" cy="276.577" rx="3.375" ry="3.375" class="st4"/>
		</g>
		<g id="shape13-62" v:mID="13" v:groupContext="shape" transform="translate(412.953,116.868) rotate(90)">
			<title>Sheet.13</title>
			<path d="M0 279.95 L32.34 279.95" class="st6"/>
		</g>
		<g id="group14-65" transform="translate(177.99,-147.615)" v:mID="14" v:groupContext="group">
			<title>Sheet.14</title>
			<g id="shape15-66" v:mID="15" v:groupContext="shape" transform="translate(0,-5.625)">
				<title>Sheet.15</title>
				<path d="M0 279.95 L9 279.95" class="st6"/>
			</g>
			<g id="shape16-69" v:mID="16" v:groupContext="shape" transform="translate(2.25,-2.8125)">
				<title>Sheet.16</title>
				<path d="M0 279.95 L4.5 279.95" class="st6"/>
			</g>
			<g id="shape17-72" v:mID="17" v:groupContext="shape" transform="translate(3.86719,0)">
				<title>Sheet.17</title>
				<path d="M0 279.95 L1.27 279.95" class="st6"/>
			</g>
		</g>
		<g id="shape18-75" v:mID="18" v:groupContext="shape" transform="translate(269.467,396.54) rotate(180)">
			<title>Sheet.18</title>
			<path d="M0 279.95 L10.48 279.95" class="st6"/>
		</g>
		<g id="group19-78" transform="translate(271.154,-163.365)" v:mID="19" v:groupContext="group">
			<title>Sheet.19</title>
			<g id="shape21-79" v:mID="21" v:groupContext="shape" transform="translate(281.64,276.577) rotate(90)">
				<title>Sheet.21</title>
				<path d="M0 279.95 L3.37 279.95" class="st6"/>
			</g>
			<g id="shape22-82" v:mID="22" v:groupContext="shape" transform="translate(0,-1.6875)">
				<title>Sheet.22</title>
				<path d="M0 279.95 L3.37 279.95" class="st6"/>
			</g>
		</g>
		<g id="shape23-85" v:mID="23" v:groupContext="shape" transform="translate(462.442,110.087) rotate(90)">
			<title>Sheet.23</title>
			<path d="M0 279.95 L16.63 279.95" class="st6"/>
		</g>
		<g id="shape24-88" v:mID="24" v:groupContext="shape" transform="translate(502.942,110.087) rotate(90)">
			<title>Sheet.24</title>
			<path d="M0 279.95 L18.88 279.95" class="st6"/>
		</g>
		<g id="shape25-91" v:mID="25" v:groupContext="shape" transform="translate(222.99,-150.99)">
			<title>Sheet.25</title>
			<path d="M0 279.95 L41.62 279.95" class="st6"/>
		</g>
		<g id="shape26-94" v:mID="26" v:groupContext="shape" transform="translate(-15.3374,128.962) rotate(-90)">
			<title>Sheet.26</title>
			<path d="M0 279.95 L12.37 279.95" class="st6"/>
		</g>
		<g id="shape28-97" v:mID="28" v:groupContext="shape" transform="translate(364.74,-171.24)">
			<title>Sheet.28</title>
			<rect x="0" y="216.952" width="65.25" height="63" class="st4"/>
		</g>
		<g id="shape29-99" v:mID="29" v:groupContext="shape" transform="translate(364.459,-209.74)">
			<title>Sheet.29</title>
			<desc>D</desc>
			<v:textBlock v:margins="rect(4,4,4,4)" v:verticalAlign="2"/>
			<v:textRect cx="22.5" cy="269.952" width="45" height="20"/>
			<rect x="0" y="259.952" width="45" height="20" class="st2"/>
			<text x="4" y="272.95" class="st5" v:langID="1033"><v:paragraph/><v:tabList/>D</text>		</g>
		<g id="shape31-102" v:mID="31" v:groupContext="shape" transform="translate(395.959,-209.74)">
			<title>Sheet.31</title>
			<desc>Q</desc>
			<v:textBlock v:margins="rect(4,4,4,4)"/>
			<v:textRect cx="16.85" cy="269.952" width="33.7" height="20"/>
			<rect x="0" y="259.952" width="33.7" height="20" class="st2"/>
			<text x="22.97" y="272.95" class="st5" v:langID="1033"><v:paragraph v:horizAlign="2"/><v:tabList/>Q</text>		</g>
		<g id="shape32-105" v:mID="32" v:groupContext="shape" transform="translate(365.021,-178.552)">
			<title>Sheet.32</title>
			<path d="M0 267.58 L7.88 273.76 L0 279.95" class="st6"/>
		</g>
		<g id="shape33-108" v:mID="33" v:groupContext="shape" transform="translate(378.24,-174.615)">
			<title>Sheet.33</title>
			<desc>en</desc>
			<v:textBlock v:margins="rect(4,4,4,4)" v:verticalAlign="0"/>
			<v:textRect cx="13.5" cy="272.765" width="27" height="14.375"/>
			<rect x="0" y="265.577" width="27" height="14.375" class="st2"/>
			<text x="8.39" y="278.58" class="st5" v:langID="1033"><v:paragraph v:horizAlign="1"/><v:tabList/>en</text>		</g>
		<g id="shape34-111" v:mID="34" v:groupContext="shape" transform="translate(218.49,-117.24)">
			<title>Sheet.34</title>
			<path d="M0 279.95 L173.25 279.95" class="st6"/>
		</g>
		<g id="shape35-114" v:mID="35" v:groupContext="shape" transform="translate(248.815,-220.74)">
			<title>Sheet.35</title>
			<path d="M0 279.95 L53.91 279.95" class="st6"/>
		</g>
		<g id="shape36-117" v:mID="36" v:groupContext="shape" transform="translate(671.692,108.712) rotate(90)">
			<title>Sheet.36</title>
			<path d="M5.36 279.95 L5.72 279.95 L54 279.95" class="st9"/>
		</g>
		<g id="shape44-123" v:mID="44" v:groupContext="shape" transform="translate(330.99,-220.74)">
			<title>Sheet.44</title>
			<path d="M0 279.95 L27.65 279.95" class="st11"/>
		</g>
		<g id="shape43-129" v:mID="43" v:groupContext="shape" transform="translate(302.303,-205.553)">
			<title>Sheet.43</title>
			<desc>&#62;&#62; 2</desc>
			<v:textBlock v:margins="rect(4,4,4,4)"/>
			<v:textRect cx="15.1875" cy="264.765" width="30.38" height="30.375"/>
			<ellipse cx="15.1875" cy="264.765" rx="15.1875" ry="15.1875" class="st4"/>
			<text x="4.81" y="268.37" class="st12" v:langID="1033"><v:paragraph v:horizAlign="1"/><v:tabList/>&#62;&#62; 2</text>		</g>
		<g id="shape47-132" v:mID="47" v:groupContext="shape" transform="translate(55.565,-134.994) rotate(-45)">
			<title>Sheet.47</title>
			<path d="M0 279.95 L11.67 279.95" class="st6"/>
		</g>
		<g id="shape48-135" v:mID="48" v:groupContext="shape" transform="translate(248.053,-203.74)">
			<title>Sheet.48</title>
			<desc>26</desc>
			<v:textBlock v:margins="rect(4,4,4,4)"/>
			<v:textRect cx="14.4687" cy="269.952" width="28.94" height="20"/>
			<rect x="0" y="259.952" width="28.9375" height="20" class="st2"/>
			<text x="9.4" y="272.95" class="st5" v:langID="1033"><v:paragraph v:horizAlign="1"/><v:tabList/>26</text>		</g>
		<g id="shape49-138" v:mID="49" v:groupContext="shape" transform="translate(147.503,-134.994) rotate(-45)">
			<title>Sheet.49</title>
			<path d="M0 279.95 L11.67 279.95" class="st6"/>
		</g>
		<g id="shape50-141" v:mID="50" v:groupContext="shape" transform="translate(333.553,-219.74)">
			<title>Sheet.50</title>
			<desc>26</desc>
			<v:textBlock v:margins="rect(4,4,4,4)"/>
			<v:textRect cx="14.4687" cy="269.952" width="28.94" height="20"/>
			<rect x="0" y="259.952" width="28.9375" height="20" class="st2"/>
			<text x="9.4" y="272.95" class="st5" v:langID="1033"><v:paragraph v:horizAlign="1"/><v:tabList/>26</text>		</g>
		<g id="shape51-144" v:mID="51" v:groupContext="shape" transform="translate(242.003,-134.994) rotate(-45)">
			<title>Sheet.51</title>
			<path d="M0 279.95 L11.67 279.95" class="st6"/>
		</g>
		<g id="shape52-147" v:mID="52" v:groupContext="shape" transform="translate(434.49,-203.74)">
			<title>Sheet.52</title>
			<desc>26</desc>
			<v:textBlock v:margins="rect(4,4,4,4)"/>
			<v:textRect cx="14.4688" cy="269.952" width="28.94" height="20"/>
			<rect x="0" y="259.952" width="28.9375" height="20" class="st2"/>
			<text x="9.4" y="272.95" class="st5" v:langID="1033"><v:paragraph v:horizAlign="1"/><v:tabList/>26</text>		</g>
		<g id="shape53-150" v:mID="53" v:groupContext="shape" transform="translate(429.99,-220.74)">
			<title>Sheet.53</title>
			<path d="M0 279.95 L129.37 279.95" class="st6"/>
		</g>
		<g id="shape54-153" v:mID="54" v:groupContext="shape" transform="translate(402.99,-47.49)">
			<title>Sheet.54</title>
			<desc>2-bit incrementing register (see code)</desc>
			<v:textBlock v:margins="rect(4,4,4,4)"/>
			<v:textRect cx="48.375" cy="246.202" width="96.75" height="67.5"/>
			<rect x="0" y="212.452" width="96.75" height="67.5" class="st4"/>
			<text x="10.7" y="243.2" class="st5" v:langID="1033"><v:paragraph v:horizAlign="1"/><v:tabList/>2-bit incrementing<v:newlineChar/><tspan
						x="10.69" dy="1.2em" class="st13">register </tspan>(see code)</text>		</g>
		<g id="shape55-157" v:mID="55" v:groupContext="shape" transform="translate(440.146,-100.49)">
			<title>Sheet.55</title>
			<desc>Q</desc>
			<v:textBlock v:margins="rect(4,4,4,4)"/>
			<v:textRect cx="29.2187" cy="274.952" width="58.44" height="10"/>
			<rect x="0" y="269.952" width="58.4375" height="10" class="st2"/>
			<text x="46.36" y="278.55" class="st12" v:langID="1033"><v:paragraph v:horizAlign="2"/><v:tabList/>Q</text>		</g>
		<g id="shape56-160" v:mID="56" v:groupContext="shape" transform="translate(403.271,-52.5525)">
			<title>Sheet.56</title>
			<path d="M0 267.58 L7.88 273.76 L0 279.95" class="st6"/>
		</g>
		<g id="shape38-163" v:mID="38" v:groupContext="shape" transform="translate(499.853,-104.903)">
			<title>Sheet.38</title>
			<path d="M0 279.95 L61.76 279.95" class="st6"/>
		</g>
		<g id="shape39-166" v:mID="39" v:groupContext="shape" v:layerMember="0" transform="translate(0.24,-174.24)">
			<title>I/O port.39</title>
			<desc>clk</desc>
			<v:userDefs>
				<v:ud v:nameU="Form" v:val="VT0(0):26"/>
				<v:ud v:nameU="visDescription" v:val="VT4(Unidirectional or bidirectional I/O port. )"/>
				<v:ud v:nameU="visVersion" v:val="VT0(14):26"/>
			</v:userDefs>
			<v:textBlock v:margins="rect(1,1,1,1)"/>
			<v:textRect cx="20.25" cy="270.577" width="12.67" height="11.6036"/>
			<path d="M0 271.33 L0 262.7 L34.5 262.7 L51.75 271.33 L34.5 279.95 L0 279.95 L0 271.33 Z" class="st7"/>
			<text x="15.82" y="272.98" class="st8" v:langID="1033"><v:paragraph v:horizAlign="1"/><v:tabList/>clk</text>		</g>
		<g id="shape57-169" v:mID="57" v:groupContext="shape" v:layerMember="0" transform="translate(171.24,-0.24)">
			<title>I/O port.57</title>
			<desc>reset_n</desc>
			<v:userDefs>
				<v:ud v:nameU="Form" v:val="VT0(0):26"/>
				<v:ud v:nameU="visDescription" v:val="VT4(Unidirectional or bidirectional I/O port. )"/>
				<v:ud v:nameU="visVersion" v:val="VT0(14):26"/>
			</v:userDefs>
			<v:textBlock v:margins="rect(1,1,1,1)"/>
			<v:textRect cx="20.25" cy="270.577" width="28.56" height="11.6036"/>
			<path d="M0 271.33 L0 262.7 L34.5 262.7 L51.75 271.33 L34.5 279.95 L0 279.95 L0 271.33 Z" class="st7"/>
			<text x="7.88" y="272.98" class="st8" v:langID="1033"><v:paragraph v:horizAlign="1"/><v:tabList/>reset_n</text>		</g>
		<g id="shape58-172" v:mID="58" v:groupContext="shape" transform="translate(218.49,-9.24)">
			<title>Sheet.58</title>
			<path d="M0 230.45 L19.12 230.45 L19.12 279.95" class="st6"/>
		</g>
		<g id="shape59-175" v:mID="59" v:groupContext="shape" transform="translate(222.99,-8.865)">
			<title>Sheet.59</title>
			<path d="M0 279.95 L14.62 279.95" class="st6"/>
		</g>
		<g id="shape60-178" v:mID="60" v:groupContext="shape" transform="translate(51.99,-182.865)">
			<title>Sheet.60</title>
			<path d="M0 279.95 L47.25 279.95" class="st6"/>
		</g>
		<g id="shape61-181" v:mID="61" v:groupContext="shape" transform="translate(90.24,-63.24)">
			<title>Sheet.61</title>
			<path d="M0 160.33 L0 279.95 L20.25 279.95" class="st6"/>
		</g>
		<g id="shape62-184" v:mID="62" v:groupContext="shape" transform="translate(90.24,-40.74)">
			<title>Sheet.62</title>
			<path d="M0 257.45 L0 279.95 L256.58 279.95 L256.58 261.95 L294.75 261.95" class="st6"/>
		</g>
		<g id="shape63-187" v:mID="63" v:groupContext="shape" transform="translate(346.821,-58.74)">
			<title>Sheet.63</title>
			<path d="M0 279.95 L0 155.08 L17.92 155.08" class="st6"/>
		</g>
		<g id="shape64-190" v:mID="64" v:groupContext="shape" transform="translate(384.99,-58.74)">
			<title>Sheet.64</title>
			<path d="M0 279.95 L18 279.95" class="st6"/>
		</g>
		<g id="shape65-193" v:mID="65" v:groupContext="shape" transform="translate(89.115,-61.5525)">
			<title>Sheet.65</title>
			<ellipse cx="1.6875" cy="278.265" rx="1.6875" ry="1.6875" class="st14"/>
		</g>
		<g id="shape66-195" v:mID="66" v:groupContext="shape" transform="translate(88.5525,-180.803)">
			<title>Sheet.66</title>
			<ellipse cx="1.6875" cy="278.265" rx="1.6875" ry="1.6875" class="st14"/>
		</g>
		<g id="shape67-197" v:mID="67" v:groupContext="shape" transform="translate(345.053,-57.0525)">
			<title>Sheet.67</title>
			<ellipse cx="1.6875" cy="278.265" rx="1.6875" ry="1.6875" class="st14"/>
		</g>
		<g id="shape68-199" v:mID="68" v:groupContext="shape" v:layerMember="0" transform="translate(0.24,-212.49)">
			<title>I/O port.68</title>
			<desc>data_r</desc>
			<v:userDefs>
				<v:ud v:nameU="Form" v:val="VT0(0):26"/>
				<v:ud v:nameU="visDescription" v:val="VT4(Unidirectional or bidirectional I/O port. )"/>
				<v:ud v:nameU="visVersion" v:val="VT0(14):26"/>
			</v:userDefs>
			<v:textBlock v:margins="rect(1,1,1,1)"/>
			<v:textRect cx="20.25" cy="270.577" width="25.14" height="11.6036"/>
			<path d="M0 271.33 L0 262.7 L34.5 262.7 L51.75 271.33 L34.5 279.95 L0 279.95 L0 271.33 Z" class="st7"/>
			<text x="9.59" y="272.98" class="st8" v:langID="1033"><v:paragraph v:horizAlign="1"/><v:tabList/>data_r</text>		</g>
		<g id="shape69-202" v:mID="69" v:groupContext="shape" transform="translate(51.99,-221.115)">
			<title>Sheet.69</title>
			<path d="M0 279.95 L41.53 279.95" class="st11"/>
		</g>
		<g id="shape70-207" v:mID="70" v:groupContext="shape" transform="translate(-142.435,-134.994) rotate(-45)">
			<title>Sheet.70</title>
			<path d="M0 279.95 L11.67 279.95" class="st6"/>
		</g>
		<g id="shape71-210" v:mID="71" v:groupContext="shape" transform="translate(50.0525,-203.74)">
			<title>Sheet.71</title>
			<desc>26</desc>
			<v:textBlock v:margins="rect(4,4,4,4)"/>
			<v:textRect cx="14.4687" cy="269.952" width="28.94" height="20"/>
			<rect x="0" y="259.952" width="28.9375" height="20" class="st2"/>
			<text x="9.4" y="272.95" class="st5" v:langID="1033"><v:paragraph v:horizAlign="1"/><v:tabList/>26</text>		</g>
		<g id="shape72-213" v:mID="72" v:groupContext="shape" transform="translate(-117.685,-134.994) rotate(-45)">
			<title>Sheet.72</title>
			<path d="M0 279.95 L11.67 279.95" class="st6"/>
		</g>
		<g id="shape73-216" v:mID="73" v:groupContext="shape" transform="translate(74.8025,-203.74)">
			<title>Sheet.73</title>
			<desc>26</desc>
			<v:textBlock v:margins="rect(4,4,4,4)"/>
			<v:textRect cx="14.4687" cy="269.952" width="28.94" height="20"/>
			<rect x="0" y="259.952" width="28.9375" height="20" class="st2"/>
			<text x="9.4" y="272.95" class="st5" v:langID="1033"><v:paragraph v:horizAlign="1"/><v:tabList/>26</text>		</g>
		<g id="shape74-219" v:mID="74" v:groupContext="shape" transform="translate(308.846,-19.1564) rotate(-45)">
			<title>Sheet.74</title>
			<path d="M0 279.95 L11.67 279.95" class="st6"/>
		</g>
		<g id="shape75-222" v:mID="75" v:groupContext="shape" transform="translate(494.271,-100.403)">
			<title>Sheet.75</title>
			<desc>2</desc>
			<v:textBlock v:margins="rect(4,4,4,4)"/>
			<v:textRect cx="14.4687" cy="269.952" width="28.94" height="20"/>
			<rect x="0" y="259.952" width="28.9375" height="20" class="st2"/>
			<text x="11.93" y="272.95" class="st5" v:langID="1033"><v:paragraph v:horizAlign="1"/><v:tabList/>2</text>		</g>
	</g>
</svg>
