<?xml version="1.0" encoding="UTF-8" standalone="no"?>
<!DOCTYPE svg PUBLIC "-//W3C//DTD SVG 1.0//EN" "http://www.w3.org/TR/2001/REC-SVG-20010904/DTD/svg10.dtd">
<!-- Generated by Microsoft Visio 11.0, SVG Export, v1.0 freq_memory_blockDiagram.svg Page-1 -->
<svg xmlns="http://www.w3.org/2000/svg" xmlns:xlink="http://www.w3.org/1999/xlink" xmlns:ev="http://www.w3.org/2001/xml-events"
		xmlns:v="http://schemas.microsoft.com/visio/2003/SVGExtensions/" width="9.27229in" height="3.50416in"
		viewBox="0 0 667.605 252.3" xml:space="preserve" color-interpolation-filters="sRGB" class="st16">
	<v:documentProperties v:langID="1033" v:viewMarkup="false"/>

	<style type="text/css">
	<![CDATA[
		.st1 {fill:#ffffff;stroke:#000000;stroke-linecap:round;stroke-linejoin:round;stroke-width:0.75}
		.st2 {fill:#000000;font-family:Calibri;font-size:1.00001em}
		.st3 {fill:none;stroke:none;stroke-linecap:round;stroke-linejoin:round;stroke-width:0.75}
		.st4 {fill:#000000;font-family:Calibri;font-size:0.833336em}
		.st5 {stroke:#000000;stroke-linecap:round;stroke-linejoin:round;stroke-width:0.75}
		.st6 {fill:none;stroke:#000000;stroke-linecap:round;stroke-linejoin:round;stroke-width:3}
		.st7 {fill:#ffffff;stroke:#000000;stroke-linecap:round;stroke-linejoin:round;stroke-width:0.24}
		.st8 {fill:#000000;font-family:Calibri;font-size:0.666664em}
		.st9 {fill:#000000;font-family:Calibri;font-size:1.5em}
		.st10 {marker-end:url(#mrkr5-53);stroke:#000000;stroke-linecap:round;stroke-linejoin:round;stroke-width:0.75}
		.st11 {fill:#000000;fill-opacity:1;stroke:#000000;stroke-opacity:1;stroke-width:0.22935779816514}
		.st12 {font-size:1em}
		.st13 {fill:#000000;font-family:Calibri;font-size:0.499992em}
		.st14 {marker-start:url(#mrkr5-118);stroke:#000000;stroke-linecap:round;stroke-linejoin:round;stroke-width:0.75}
		.st15 {fill:#000000;stroke:#000000;stroke-linecap:round;stroke-linejoin:round;stroke-width:0.75}
		.st16 {fill:none;fill-rule:evenodd;font-size:12px;overflow:visible;stroke-linecap:square;stroke-miterlimit:3}
	]]>
	</style>

	<defs id="Markers">
		<g id="lend5">
			<path d="M 2 1 L 0 0 L 1.98117 -0.993387 C 1.67173 -0.364515 1.67301 0.372641 1.98465 1.00043 " style="stroke:none"/>
		</g>
		<marker id="mrkr5-53" class="st11" v:arrowType="5" v:arrowSize="2" v:setback="7.63" refX="-7.63" orient="auto"
				markerUnits="strokeWidth" overflow="visible">
			<use xlink:href="#lend5" transform="scale(-4.36,-4.36) "/>
		</marker>
		<marker id="mrkr5-118" class="st11" v:arrowType="5" v:arrowSize="2" v:setback="7.15" refX="7.15" orient="auto"
				markerUnits="strokeWidth" overflow="visible">
			<use xlink:href="#lend5" transform="scale(4.36) "/>
		</marker>
	</defs>
	<g v:mID="0" v:index="1" v:groupContext="foregroundPage">
		<title>Page-1</title>
		<v:pageProperties v:drawingScale="1" v:pageScale="1" v:drawingUnits="19" v:shadowOffsetX="9" v:shadowOffsetY="-9"/>
		<v:layer v:name="Electrical" v:index="0"/>
		<g id="shape11-1" v:mID="11" v:groupContext="shape" transform="translate(400.74,-25.5)">
			<title>Sheet.11</title>
			<desc>reg_file</desc>
			<v:textBlock v:margins="rect(4,4,4,4)"/>
			<v:textRect cx="76.5" cy="207.3" width="153" height="90"/>
			<rect x="0" y="162.3" width="153" height="90" class="st1"/>
			<text x="58.04" y="210.9" class="st2" v:langID="1033"><v:paragraph v:horizAlign="1"/><v:tabList/>reg_file</text>		</g>
		<g id="shape12-4" v:mID="12" v:groupContext="shape" transform="translate(401.553,-57)">
			<title>Sheet.12</title>
			<desc>data_w</desc>
			<v:textBlock v:margins="rect(4,4,4,4)"/>
			<v:textRect cx="25.0625" cy="247.3" width="50.13" height="10"/>
			<rect x="0" y="242.3" width="50.125" height="10" class="st3"/>
			<text x="4" y="250.3" class="st4" v:langID="1033"><v:paragraph/><v:tabList/>data_w</text>		</g>
		<g id="shape13-7" v:mID="13" v:groupContext="shape" transform="translate(400.74,-30)">
			<title>Sheet.13</title>
			<path d="M0 239.92 L7.88 246.11 L0 252.3" class="st5"/>
		</g>
		<g id="shape14-10" v:mID="14" v:groupContext="shape" transform="translate(401.553,-77.4375)">
			<title>Sheet.14</title>
			<desc>we</desc>
			<v:textBlock v:margins="rect(4,4,4,4)"/>
			<v:textRect cx="28.5625" cy="247.3" width="57.13" height="10"/>
			<rect x="0" y="242.3" width="57.125" height="10" class="st3"/>
			<text x="4" y="250.3" class="st4" v:langID="1033"><v:paragraph/><v:tabList/>we</text>		</g>
		<g id="shape15-13" v:mID="15" v:groupContext="shape" transform="translate(400.803,-96.5)">
			<title>Sheet.15</title>
			<desc>address_w</desc>
			<v:textBlock v:margins="rect(4,4,4,4)"/>
			<v:textRect cx="29.2187" cy="247.3" width="58.44" height="10"/>
			<rect x="0" y="242.3" width="58.4375" height="10" class="st3"/>
			<text x="4" y="250.3" class="st4" v:langID="1033"><v:paragraph/><v:tabList/>address_w</text>		</g>
		<g id="shape88-16" v:mID="88" v:groupContext="shape" transform="translate(75.99,-3)">
			<title>Sheet.88</title>
			<rect x="0" y="27.2998" width="509.25" height="225" class="st6"/>
		</g>
		<g id="shape89-18" v:mID="89" v:groupContext="shape" v:layerMember="0" transform="translate(1.365,-91.125)">
			<title>I/O port</title>
			<desc>waveform</desc>
			<v:userDefs>
				<v:ud v:nameU="Form" v:val="VT0(0):26"/>
				<v:ud v:nameU="visDescription" v:val="VT4(Unidirectional or bidirectional I/O port. )"/>
				<v:ud v:nameU="visVersion" v:val="VT0(14):26"/>
			</v:userDefs>
			<v:textBlock v:margins="rect(1,1,1,1)"/>
			<v:textRect cx="20.25" cy="242.925" width="36.8" height="11.6036"/>
			<path d="M0 243.67 L0 235.05 L34.5 235.05 L51.75 243.67 L34.5 252.3 L0 252.3 L0 243.67 Z" class="st7"/>
			<text x="3.76" y="245.32" class="st8" v:langID="1033"><v:paragraph v:horizAlign="1"/><v:tabList/>waveform</text>		</g>
		<g id="shape100-21" v:mID="100" v:groupContext="shape" transform="translate(85.74,-231.5)">
			<title>Sheet.100</title>
			<desc>freq_memory</desc>
			<v:textBlock v:margins="rect(4,4,4,4)"/>
			<v:textRect cx="83.25" cy="242.3" width="166.5" height="20"/>
			<rect x="0" y="232.3" width="166.5" height="20" class="st3"/>
			<text x="4" y="247.7" class="st9" v:langID="1033"><v:paragraph/><v:tabList/>freq_memory</text>		</g>
		<g id="shape1-24" v:mID="1" v:groupContext="shape" transform="translate(503.615,-51.5)">
			<title>Sheet.1</title>
			<desc>data_r</desc>
			<v:textBlock v:margins="rect(4,4,4,4)"/>
			<v:textRect cx="25.0625" cy="247.3" width="50.13" height="10"/>
			<rect x="0" y="242.3" width="50.125" height="10" class="st3"/>
			<text x="19.47" y="250.3" class="st4" v:langID="1033"><v:paragraph v:horizAlign="2"/><v:tabList/>data_r</text>		</g>
		<g id="shape2-27" v:mID="2" v:groupContext="shape" transform="translate(495.303,-72.25)">
			<title>Sheet.2</title>
			<desc>address_r</desc>
			<v:textBlock v:margins="rect(4,4,4,4)"/>
			<v:textRect cx="29.2187" cy="247.3" width="58.44" height="10"/>
			<rect x="0" y="242.3" width="58.4375" height="10" class="st3"/>
			<text x="14.39" y="250.3" class="st4" v:langID="1033"><v:paragraph v:horizAlign="2"/><v:tabList/>address_r</text>		</g>
		<g id="shape3-30" v:mID="3" v:groupContext="shape" transform="translate(94.74,-43.5)">
			<title>Sheet.3</title>
			<desc>freq_measurement</desc>
			<v:textBlock v:margins="rect(4,4,4,4)"/>
			<v:textRect cx="92.25" cy="216.3" width="184.5" height="72"/>
			<rect x="0" y="180.3" width="184.5" height="72" class="st1"/>
			<text x="45.03" y="219.9" class="st2" v:langID="1033"><v:paragraph v:horizAlign="1"/><v:tabList/>freq_measurement</text>		</g>
		<g id="shape4-33" v:mID="4" v:groupContext="shape" transform="translate(112.74,-47)">
			<title>Sheet.4</title>
			<desc>reset_n</desc>
			<v:textBlock v:margins="rect(4,4,4,4)"/>
			<v:textRect cx="25.0625" cy="247.3" width="50.13" height="10"/>
			<rect x="0" y="242.3" width="50.125" height="10" class="st3"/>
			<text x="9.6" y="250.3" class="st4" v:langID="1033"><v:paragraph v:horizAlign="1"/><v:tabList/>reset_n</text>		</g>
		<g id="shape5-36" v:mID="5" v:groupContext="shape" transform="translate(94.74,-48)">
			<title>Sheet.5</title>
			<path d="M0 239.92 L7.88 246.11 L0 252.3" class="st5"/>
		</g>
		<g id="shape6-39" v:mID="6" v:groupContext="shape" transform="translate(95.5525,-95.875)">
			<title>Sheet.6</title>
			<desc>waveform</desc>
			<v:textBlock v:margins="rect(4,4,4,4)"/>
			<v:textRect cx="28.5625" cy="247.3" width="57.13" height="10"/>
			<rect x="0" y="242.3" width="57.125" height="10" class="st3"/>
			<text x="4" y="250.3" class="st4" v:langID="1033"><v:paragraph/><v:tabList/>waveform</text>		</g>
		<g id="shape7-42" v:mID="7" v:groupContext="shape" transform="translate(223.021,-76.0625)">
			<title>Sheet.7</title>
			<desc>done</desc>
			<v:textBlock v:margins="rect(4,4,4,4)"/>
			<v:textRect cx="29.2187" cy="247.3" width="58.44" height="10"/>
			<rect x="0" y="242.3" width="58.4375" height="10" class="st3"/>
			<text x="33.68" y="250.3" class="st4" v:langID="1033"><v:paragraph v:horizAlign="2"/><v:tabList/>done</text>		</g>
		<g id="shape8-45" v:mID="8" v:groupContext="shape" transform="translate(223.021,-57)">
			<title>Sheet.8</title>
			<desc>frequency</desc>
			<v:textBlock v:margins="rect(4,4,4,4)"/>
			<v:textRect cx="29.2187" cy="247.3" width="58.44" height="10"/>
			<rect x="0" y="242.3" width="58.4375" height="10" class="st3"/>
			<text x="13.43" y="250.3" class="st4" v:langID="1033"><v:paragraph v:horizAlign="2"/><v:tabList/>frequency</text>		</g>
		<g id="shape9-48" v:mID="9" v:groupContext="shape" transform="translate(279.24,-81.0625)">
			<title>Sheet.9</title>
			<path d="M0 252.3 L115.78 252.3" class="st10"/>
		</g>
		<g id="shape10-54" v:mID="10" v:groupContext="shape" transform="translate(279.24,-61.5)">
			<title>Sheet.10</title>
			<path d="M0 252.3 L115.78 252.3" class="st10"/>
		</g>
		<g id="group22-59" transform="translate(335.49,-140.25)" v:mID="22" v:groupContext="group">
			<title>Sheet.22</title>
			<g id="shape16-60" v:mID="16" v:groupContext="shape">
				<title>Sheet.16</title>
				<desc>2-bit incrementing register (see code)</desc>
				<v:textBlock v:margins="rect(4,4,4,4)"/>
				<v:textRect cx="48.375" cy="218.55" width="96.75" height="67.5"/>
				<rect x="0" y="184.8" width="96.75" height="67.5" class="st1"/>
				<text x="10.7" y="215.55" class="st4" v:langID="1033"><v:paragraph v:horizAlign="1"/><v:tabList/>2-bit incrementing<v:newlineChar/><tspan
							x="10.69" dy="1.2em" class="st12">register </tspan>(see code)</text>			</g>
			<g id="shape17-64" v:mID="17" v:groupContext="shape" transform="translate(20.2813,-3.5)">
				<title>Sheet.17</title>
				<desc>Q</desc>
				<v:textBlock v:margins="rect(4,4,4,4)"/>
				<v:textRect cx="29.2187" cy="247.3" width="58.44" height="10"/>
				<rect x="0" y="242.3" width="58.4375" height="10" class="st3"/>
				<text x="25.18" y="250.9" class="st2" v:langID="1033"><v:paragraph v:horizAlign="1"/><v:tabList/>Q</text>			</g>
		</g>
		<g id="shape23-67" v:mID="23" v:groupContext="shape" transform="translate(384.99,-100.875)">
			<title>Sheet.23</title>
			<path d="M0 212.92 L0 252.3 L10.09 252.3" class="st10"/>
		</g>
		<g id="shape24-72" v:mID="24" v:groupContext="shape" transform="translate(112.087,16.8969) rotate(-45)">
			<title>Sheet.24</title>
			<path d="M0 252.3 L11.67 252.3" class="st5"/>
		</g>
		<g id="shape25-75" v:mID="25" v:groupContext="shape" transform="translate(285.021,-43.75)">
			<title>Sheet.25</title>
			<desc>26</desc>
			<v:textBlock v:margins="rect(4,4,4,4)"/>
			<v:textRect cx="14.4687" cy="242.3" width="28.94" height="20"/>
			<rect x="0" y="232.3" width="28.9375" height="20" class="st3"/>
			<text x="9.4" y="245.3" class="st4" v:langID="1033"><v:paragraph v:horizAlign="1"/><v:tabList/>26</text>		</g>
		<g id="shape26-78" v:mID="26" v:groupContext="shape" transform="translate(199.837,16.8969) rotate(-45)">
			<title>Sheet.26</title>
			<path d="M0 252.3 L11.67 252.3" class="st5"/>
		</g>
		<g id="shape27-81" v:mID="27" v:groupContext="shape" transform="translate(372.771,-43.75)">
			<title>Sheet.27</title>
			<desc>26</desc>
			<v:textBlock v:margins="rect(4,4,4,4)"/>
			<v:textRect cx="14.4687" cy="242.3" width="28.94" height="20"/>
			<rect x="0" y="232.3" width="28.9375" height="20" class="st3"/>
			<text x="9.4" y="245.3" class="st4" v:langID="1033"><v:paragraph v:horizAlign="1"/><v:tabList/>26</text>		</g>
		<g id="shape28-84" v:mID="28" v:groupContext="shape" transform="translate(335.771,-145.312)">
			<title>Sheet.28</title>
			<path d="M0 239.92 L7.88 246.11 L0 252.3" class="st5"/>
		</g>
		<g id="shape30-87" v:mID="30" v:groupContext="shape" transform="translate(416.49,-52.625)">
			<title>Sheet.30</title>
			<desc>ADDR_WIDTH = 2</desc>
			<v:textBlock v:margins="rect(4,4,4,4)"/>
			<v:textRect cx="62.1875" cy="247.3" width="124.38" height="10"/>
			<rect x="0" y="242.3" width="124.375" height="10" class="st3"/>
			<text x="40.66" y="249.1" class="st13" v:langID="1033"><v:paragraph v:horizAlign="1"/><v:tabList/>ADDR_WIDTH = 2</text>		</g>
		<g id="shape31-90" v:mID="31" v:groupContext="shape" transform="translate(416.49,-44.125)">
			<title>Sheet.31</title>
			<desc>DATA_WIDTH = 26</desc>
			<v:textBlock v:margins="rect(4,4,4,4)"/>
			<v:textRect cx="62.1875" cy="247.3" width="124.38" height="10"/>
			<rect x="0" y="242.3" width="124.375" height="10" class="st3"/>
			<text x="39.42" y="249.1" class="st13" v:langID="1033"><v:paragraph v:horizAlign="1"/><v:tabList/>DATA_WIDTH = 26</text>		</g>
		<g id="shape29-93" v:mID="29" v:groupContext="shape" transform="translate(336.64,-186.5)">
			<title>Sheet.29</title>
			<desc>en</desc>
			<v:textBlock v:margins="rect(4,4,4,4)"/>
			<v:textRect cx="16.85" cy="242.3" width="33.7" height="20"/>
			<rect x="0" y="232.3" width="33.7" height="20" class="st3"/>
			<text x="4" y="245.3" class="st4" v:langID="1033"><v:paragraph/><v:tabList/>en</text>		</g>
		<g id="shape32-96" v:mID="32" v:groupContext="shape" transform="translate(306.24,-81.0625)">
			<title>Sheet.32</title>
			<path d="M0 252.3 L0 136.86 L24.68 136.86" class="st10"/>
		</g>
		<g id="shape34-101" v:mID="34" v:groupContext="shape" transform="translate(400.74,468.975) rotate(180)">
			<title>Sheet.34</title>
			<path d="M0 252.3 L315 252.3" class="st5"/>
		</g>
		<g id="shape35-104" v:mID="35" v:groupContext="shape" transform="translate(-166.56,216.675) rotate(-90)">
			<title>Sheet.35</title>
			<path d="M0 252.3 L115.87 252.3" class="st5"/>
		</g>
		<g id="shape36-107" v:mID="36" v:groupContext="shape" transform="translate(335.49,353.1) rotate(180)">
			<title>Sheet.36</title>
			<path d="M0 252.3 L249.75 252.3" class="st5"/>
		</g>
		<g id="shape37-110" v:mID="37" v:groupContext="shape" transform="translate(94.74,449.85) rotate(180)">
			<title>Sheet.37</title>
			<path d="M0 252.3 L9 252.3" class="st5"/>
		</g>
		<g id="shape18-113" v:mID="18" v:groupContext="shape" transform="translate(94.74,404.85) rotate(180)">
			<title>Sheet.18</title>
			<path d="M5.36 252.3 L5.72 252.3 L41.62 252.3" class="st14"/>
		</g>
		<g id="shape19-119" v:mID="19" v:groupContext="shape" v:layerMember="0" transform="translate(667.365,418.725) rotate(180)">
			<title>I/O port.19</title>
			<desc>addr_r</desc>
			<v:userDefs>
				<v:ud v:nameU="Form" v:val="VT0(0):26"/>
				<v:ud v:nameU="visDescription" v:val="VT4(Unidirectional or bidirectional I/O port. )"/>
				<v:ud v:nameU="visVersion" v:val="VT0(14):26"/>
			</v:userDefs>
			<v:textBlock v:margins="rect(1,1,1,1)"/>
			<v:textRect cx="20.25" cy="242.925" width="25.62" height="11.6036" transform="rotate(180)"/>
			<path d="M0 243.67 L0 235.05 L34.5 235.05 L51.75 243.67 L34.5 252.3 L0 252.3 L0 243.67 Z" class="st7"/>
			<text x="-31.15" y="-240.52" transform="rotate(180)" class="st8" v:langID="1033"><v:paragraph v:horizAlign="1"/><v:tabList/>addr_r</text>		</g>
		<g id="shape20-122" v:mID="20" v:groupContext="shape" transform="translate(553.74,-77.25)">
			<title>Sheet.20</title>
			<path d="M5.36 252.3 L5.72 252.3 L61.88 252.3" class="st14"/>
		</g>
		<g id="shape21-127" v:mID="21" v:groupContext="shape" transform="translate(553.74,-54.75)">
			<title>Sheet.21</title>
			<path d="M0 252.3 L61.88 252.3" class="st5"/>
		</g>
		<g id="shape33-130" v:mID="33" v:groupContext="shape" v:layerMember="0" transform="translate(615.615,-46.125)">
			<title>I/O port.33</title>
			<desc>data_r</desc>
			<v:userDefs>
				<v:ud v:nameU="Form" v:val="VT0(0):26"/>
				<v:ud v:nameU="visDescription" v:val="VT4(Unidirectional or bidirectional I/O port. )"/>
				<v:ud v:nameU="visVersion" v:val="VT0(14):26"/>
			</v:userDefs>
			<v:textBlock v:margins="rect(1,1,1,1)"/>
			<v:textRect cx="20.25" cy="242.925" width="25.14" height="11.6036"/>
			<path d="M0 243.67 L0 235.05 L34.5 235.05 L51.75 243.67 L34.5 252.3 L0 252.3 L0 243.67 Z" class="st7"/>
			<text x="9.59" y="245.32" class="st8" v:langID="1033"><v:paragraph v:horizAlign="1"/><v:tabList/>data_r</text>		</g>
		<g id="shape38-133" v:mID="38" v:groupContext="shape" transform="translate(416.15,0.396902) rotate(-45)">
			<title>Sheet.38</title>
			<path d="M0 252.3 L11.67 252.3" class="st5"/>
		</g>
		<g id="shape39-136" v:mID="39" v:groupContext="shape" transform="translate(582.021,-72.75)">
			<title>Sheet.39</title>
			<desc>2</desc>
			<v:textBlock v:margins="rect(4,4,4,4)"/>
			<v:textRect cx="14.4688" cy="242.3" width="28.94" height="20"/>
			<rect x="0" y="232.3" width="28.9375" height="20" class="st3"/>
			<text x="11.93" y="245.3" class="st4" v:langID="1033"><v:paragraph v:horizAlign="1"/><v:tabList/>2</text>		</g>
		<g id="shape40-139" v:mID="40" v:groupContext="shape" transform="translate(384.337,23.3969) rotate(-45)">
			<title>Sheet.40</title>
			<path d="M0 252.3 L11.67 252.3" class="st5"/>
		</g>
		<g id="shape41-142" v:mID="41" v:groupContext="shape" transform="translate(557.271,-37.25)">
			<title>Sheet.41</title>
			<desc>26</desc>
			<v:textBlock v:margins="rect(4,4,4,4)"/>
			<v:textRect cx="14.4688" cy="242.3" width="28.94" height="20"/>
			<rect x="0" y="232.3" width="28.9375" height="20" class="st3"/>
			<text x="9.4" y="245.3" class="st4" v:langID="1033"><v:paragraph v:horizAlign="1"/><v:tabList/>26</text>		</g>
		<g id="shape42-145" v:mID="42" v:groupContext="shape" transform="translate(417.118,23.3969) rotate(-45)">
			<title>Sheet.42</title>
			<path d="M0 252.3 L11.67 252.3" class="st5"/>
		</g>
		<g id="shape43-148" v:mID="43" v:groupContext="shape" transform="translate(590.053,-37.25)">
			<title>Sheet.43</title>
			<desc>26</desc>
			<v:textBlock v:margins="rect(4,4,4,4)"/>
			<v:textRect cx="14.4687" cy="242.3" width="28.94" height="20"/>
			<rect x="0" y="232.3" width="28.9375" height="20" class="st3"/>
			<text x="9.4" y="245.3" class="st4" v:langID="1033"><v:paragraph v:horizAlign="1"/><v:tabList/>26</text>		</g>
		<g id="shape44-151" v:mID="44" v:groupContext="shape" v:layerMember="0" transform="translate(0.24,-46.125)">
			<title>I/O port.44</title>
			<desc>clk</desc>
			<v:userDefs>
				<v:ud v:nameU="Form" v:val="VT0(0):26"/>
				<v:ud v:nameU="visDescription" v:val="VT4(Unidirectional or bidirectional I/O port. )"/>
				<v:ud v:nameU="visVersion" v:val="VT0(14):26"/>
			</v:userDefs>
			<v:textBlock v:margins="rect(1,1,1,1)"/>
			<v:textRect cx="20.25" cy="242.925" width="12.67" height="11.6036"/>
			<path d="M0 243.67 L0 235.05 L34.5 235.05 L51.75 243.67 L34.5 252.3 L0 252.3 L0 243.67 Z" class="st7"/>
			<text x="15.82" y="245.32" class="st8" v:langID="1033"><v:paragraph v:horizAlign="1"/><v:tabList/>clk</text>		</g>
		<g id="shape45-154" v:mID="45" v:groupContext="shape" transform="translate(85.74,449.85) rotate(180)">
			<title>Sheet.45</title>
			<path d="M0 252.3 L33.75 252.3" class="st5"/>
		</g>
		<g id="shape46-157" v:mID="46" v:groupContext="shape" v:layerMember="0" transform="translate(0.24,-12)">
			<title>I/O port.46</title>
			<desc>reset_n</desc>
			<v:userDefs>
				<v:ud v:nameU="Form" v:val="VT0(0):26"/>
				<v:ud v:nameU="visDescription" v:val="VT4(Unidirectional or bidirectional I/O port. )"/>
				<v:ud v:nameU="visVersion" v:val="VT0(14):26"/>
			</v:userDefs>
			<v:textBlock v:margins="rect(1,1,1,1)"/>
			<v:textRect cx="20.25" cy="242.925" width="28.56" height="11.6036"/>
			<path d="M0 243.67 L0 235.05 L34.5 235.05 L51.75 243.67 L34.5 252.3 L0 252.3 L0 243.67 Z" class="st7"/>
			<text x="7.88" y="245.32" class="st8" v:langID="1033"><v:paragraph v:horizAlign="1"/><v:tabList/>reset_n</text>		</g>
		<g id="shape47-160" v:mID="47" v:groupContext="shape" transform="translate(139.74,483.975) rotate(180)">
			<title>Sheet.47</title>
			<path d="M0 252.3 L87.75 252.3" class="st5"/>
		</g>
		<g id="shape48-163" v:mID="48" v:groupContext="shape" transform="translate(392.04,208.8) rotate(90)">
			<title>Sheet.48</title>
			<path d="M0 252.3 L22.87 252.3" class="st5"/>
		</g>
		<g id="shape49-166" v:mID="49" v:groupContext="shape" transform="translate(304.552,-79.5)">
			<title>Sheet.49</title>
			<ellipse cx="1.6875" cy="250.612" rx="1.6875" ry="1.6875" class="st15"/>
		</g>
		<g id="shape50-168" v:mID="50" v:groupContext="shape" transform="translate(84.0525,-52.5)">
			<title>Sheet.50</title>
			<ellipse cx="1.6875" cy="250.612" rx="1.6875" ry="1.6875" class="st15"/>
		</g>
		<g id="shape101-170" v:mID="101" v:groupContext="shape" transform="translate(386.9,0.396902) rotate(-45)">
			<title>Sheet.101</title>
			<path d="M0 252.3 L11.67 252.3" class="st5"/>
		</g>
		<g id="shape102-173" v:mID="102" v:groupContext="shape" transform="translate(552.771,-72.75)">
			<title>Sheet.102</title>
			<desc>2</desc>
			<v:textBlock v:margins="rect(4,4,4,4)"/>
			<v:textRect cx="14.4688" cy="242.3" width="28.94" height="20"/>
			<rect x="0" y="232.3" width="28.9375" height="20" class="st3"/>
			<text x="11.93" y="245.3" class="st4" v:langID="1033"><v:paragraph v:horizAlign="1"/><v:tabList/>2</text>		</g>
		<g id="shape103-176" v:mID="103" v:groupContext="shape" transform="translate(207.868,-23.8843) rotate(-45)">
			<title>Sheet.103</title>
			<path d="M0 252.3 L8.84 252.3" class="st5"/>
		</g>
		<g id="shape104-179" v:mID="104" v:groupContext="shape" transform="translate(376.146,-84.25)">
			<title>Sheet.104</title>
			<desc>2</desc>
			<v:textBlock v:margins="rect(4,4,4,4)"/>
			<v:textRect cx="14.4687" cy="242.3" width="28.94" height="20"/>
			<rect x="0" y="232.3" width="28.9375" height="20" class="st3"/>
			<text x="11.93" y="245.3" class="st4" v:langID="1033"><v:paragraph v:horizAlign="1"/><v:tabList/>2</text>		</g>
		<g id="shape105-182" v:mID="105" v:groupContext="shape" transform="translate(203.212,-55.3843) rotate(-45)">
			<title>Sheet.105</title>
			<path d="M0 252.3 L8.84 252.3" class="st5"/>
		</g>
		<g id="shape106-185" v:mID="106" v:groupContext="shape" transform="translate(378.24,-121.25)">
			<title>Sheet.106</title>
			<desc>2</desc>
			<v:textBlock v:margins="rect(4,4,4,4)"/>
			<v:textRect cx="14.4688" cy="242.3" width="28.94" height="20"/>
			<rect x="0" y="232.3" width="28.9375" height="20" class="st3"/>
			<text x="11.93" y="245.3" class="st4" v:langID="1033"><v:paragraph v:horizAlign="1"/><v:tabList/>2</text>		</g>
	</g>
</svg>
