<?xml version="1.0" encoding="UTF-8" standalone="no"?>
<!DOCTYPE svg PUBLIC "-//W3C//DTD SVG 1.0//EN" "http://www.w3.org/TR/2001/REC-SVG-20010904/DTD/svg10.dtd">
<!-- Generated by Microsoft Visio 11.0, SVG Export, v1.0 freq_measurement_blockDiagram.svg Page-1 -->
<svg xmlns="http://www.w3.org/2000/svg" xmlns:xlink="http://www.w3.org/1999/xlink" xmlns:ev="http://www.w3.org/2001/xml-events"
		xmlns:v="http://schemas.microsoft.com/visio/2003/SVGExtensions/" width="10.5588in" height="6.03458in"
		viewBox="0 0 760.23 434.49" xml:space="preserve" color-interpolation-filters="sRGB" class="st15">
	<v:documentProperties v:langID="1033" v:viewMarkup="false"/>

	<style type="text/css">
	<![CDATA[
		.st1 {marker-end:url(#mrkr5-6);stroke:#000000;stroke-linecap:round;stroke-linejoin:round;stroke-width:0.75}
		.st2 {fill:#000000;fill-opacity:1;stroke:#000000;stroke-opacity:1;stroke-width:0.22935779816514}
		.st3 {fill:#ffffff;stroke:#000000;stroke-linecap:round;stroke-linejoin:round;stroke-width:0.75}
		.st4 {fill:#000000;font-family:Calibri;font-size:1.00001em}
		.st5 {fill:none;stroke:none;stroke-linecap:round;stroke-linejoin:round;stroke-width:0.75}
		.st6 {fill:#000000;font-family:Calibri;font-size:0.833336em}
		.st7 {stroke:#000000;stroke-linecap:round;stroke-linejoin:round;stroke-width:0.75}
		.st8 {marker-start:url(#mrkr5-137);stroke:#000000;stroke-linecap:round;stroke-linejoin:round;stroke-width:0.75}
		.st9 {fill:#000000;font-family:Calibri;font-size:0.499992em}
		.st10 {fill:#000000;stroke:#000000;stroke-linecap:round;stroke-linejoin:round;stroke-width:0.75}
		.st11 {fill:none;stroke:#000000;stroke-linecap:round;stroke-linejoin:round;stroke-width:3}
		.st12 {fill:#ffffff;stroke:#000000;stroke-linecap:round;stroke-linejoin:round;stroke-width:0.24}
		.st13 {fill:#000000;font-family:Calibri;font-size:0.666664em}
		.st14 {fill:#000000;font-family:Calibri;font-size:1.5em}
		.st15 {fill:none;fill-rule:evenodd;font-size:12px;overflow:visible;stroke-linecap:square;stroke-miterlimit:3}
	]]>
	</style>

	<defs id="Markers">
		<g id="lend5">
			<path d="M 2 1 L 0 0 L 1.98117 -0.993387 C 1.67173 -0.364515 1.67301 0.372641 1.98465 1.00043 " style="stroke:none"/>
		</g>
		<marker id="mrkr5-6" class="st2" v:arrowType="5" v:arrowSize="2" v:setback="7.63" refX="-7.63" orient="auto"
				markerUnits="strokeWidth" overflow="visible">
			<use xlink:href="#lend5" transform="scale(-4.36,-4.36) "/>
		</marker>
		<marker id="mrkr5-137" class="st2" v:arrowType="5" v:arrowSize="2" v:setback="7.15" refX="7.15" orient="auto"
				markerUnits="strokeWidth" overflow="visible">
			<use xlink:href="#lend5" transform="scale(4.36) "/>
		</marker>
	</defs>
	<g v:mID="0" v:index="1" v:groupContext="foregroundPage">
		<title>Page-1</title>
		<v:pageProperties v:drawingScale="1" v:pageScale="1" v:drawingUnits="19" v:shadowOffsetX="9" v:shadowOffsetY="-9"/>
		<v:layer v:name="Electrical" v:index="0"/>
		<g id="shape35-1" v:mID="35" v:groupContext="shape" transform="translate(309.99,-324.75)">
			<title>Sheet.35</title>
			<path d="M0 434.49 L102.28 434.49" class="st1"/>
		</g>
		<g id="group30-7" transform="translate(134.49,-203.25)" v:mID="30" v:groupContext="group">
			<title>Sheet.30</title>
			<g id="shape22-8" v:mID="22" v:groupContext="shape">
				<title>Sheet.22</title>
				<desc>edge_detector</desc>
				<v:textBlock v:margins="rect(4,4,4,4)"/>
				<v:textRect cx="87.75" cy="400.74" width="175.5" height="67.5"/>
				<rect x="0" y="366.99" width="175.5" height="67.5" class="st3"/>
				<text x="51.88" y="404.34" class="st4" v:langID="1033"><v:paragraph v:horizAlign="1"/><v:tabList/>edge_detector</text>			</g>
			<g id="shape24-11" v:mID="24" v:groupContext="shape" transform="translate(0.754464,-30.5)">
				<title>Sheet.24</title>
				<desc>reset_n</desc>
				<v:textBlock v:margins="rect(4,4,4,4)"/>
				<v:textRect cx="23.2723" cy="429.49" width="46.55" height="10"/>
				<rect x="0" y="424.49" width="46.5446" height="10" class="st5"/>
				<text x="4" y="432.49" class="st6" v:langID="1033"><v:paragraph/><v:tabList/>reset_n</text>			</g>
			<g id="shape26-14" v:mID="26" v:groupContext="shape" transform="translate(0,-4.5)">
				<title>Sheet.26</title>
				<path d="M0 422.11 L7.31 428.3 L0 434.49" class="st7"/>
			</g>
			<g id="shape27-17" v:mID="27" v:groupContext="shape" transform="translate(128.955,-47.25)">
				<title>Sheet.27</title>
				<desc>p_edge</desc>
				<v:textBlock v:margins="rect(4,4,4,4)"/>
				<v:textRect cx="23.2723" cy="429.49" width="46.55" height="10"/>
				<rect x="0" y="424.49" width="46.5446" height="10" class="st5"/>
				<text x="12.4" y="432.49" class="st6" v:langID="1033"><v:paragraph v:horizAlign="2"/><v:tabList/>p_edge</text>			</g>
			<g id="shape28-20" v:mID="28" v:groupContext="shape" transform="translate(128.955,-11.25)">
				<title>Sheet.28</title>
				<desc>n­_edge</desc>
				<v:textBlock v:margins="rect(4,4,4,4)"/>
				<v:textRect cx="23.2723" cy="429.49" width="46.55" height="10"/>
				<rect x="0" y="424.49" width="46.5446" height="10" class="st5"/>
				<text x="12.4" y="432.49" class="st6" v:langID="1033"><v:paragraph v:horizAlign="2"/><v:tabList/>n_edge</text>			</g>
			<g id="shape29-23" v:mID="29" v:groupContext="shape" transform="translate(128.955,-28.75)">
				<title>Sheet.29</title>
				<desc>_edge</desc>
				<v:textBlock v:margins="rect(4,4,4,4)"/>
				<v:textRect cx="23.2723" cy="429.49" width="46.55" height="10"/>
				<rect x="0" y="424.49" width="46.5446" height="10" class="st5"/>
				<text x="17.65" y="432.49" class="st6" v:langID="1033"><v:paragraph v:horizAlign="2"/><v:tabList/>_edge</text>			</g>
			<g id="shape23-26" v:mID="23" v:groupContext="shape" transform="translate(0.754464,-49)">
				<title>Sheet.23</title>
				<desc>level</desc>
				<v:textBlock v:margins="rect(4,4,4,4)"/>
				<v:textRect cx="23.2723" cy="429.49" width="46.55" height="10"/>
				<rect x="0" y="424.49" width="46.5446" height="10" class="st5"/>
				<text x="4" y="432.49" class="st6" v:langID="1033"><v:paragraph/><v:tabList/>level</text>			</g>
		</g>
		<g id="shape32-29" v:mID="32" v:groupContext="shape" transform="translate(309.99,-255)">
			<title>Sheet.32</title>
			<path d="M0 434.49 L42.75 434.49 L42.75 382.74 L103.09 382.74" class="st1"/>
		</g>
		<g id="shape14-34" v:mID="14" v:groupContext="shape" transform="translate(417.99,-255)">
			<title>Sheet.14</title>
			<desc>freq­_measurement_fsm</desc>
			<v:textBlock v:margins="rect(4,4,4,4)"/>
			<v:textRect cx="108" cy="389.49" width="216" height="90"/>
			<rect x="0" y="344.49" width="216" height="90" class="st3"/>
			<text x="48.82" y="393.09" class="st4" v:langID="1033"><v:paragraph v:horizAlign="1"/><v:tabList/>freq_measurement_fsm</text>		</g>
		<g id="shape16-37" v:mID="16" v:groupContext="shape" transform="translate(418.803,-281)">
			<title>Sheet.16</title>
			<desc>reset_n</desc>
			<v:textBlock v:margins="rect(4,4,4,4)"/>
			<v:textRect cx="25.0625" cy="429.49" width="50.13" height="10"/>
			<rect x="0" y="424.49" width="50.125" height="10" class="st5"/>
			<text x="4" y="432.49" class="st6" v:langID="1033"><v:paragraph/><v:tabList/>reset_n</text>		</g>
		<g id="shape18-40" v:mID="18" v:groupContext="shape" transform="translate(417.99,-259.5)">
			<title>Sheet.18</title>
			<path d="M0 422.11 L7.88 428.3 L0 434.49" class="st7"/>
		</g>
		<g id="shape20-43" v:mID="20" v:groupContext="shape" transform="translate(418.803,-321.125)">
			<title>Sheet.20</title>
			<desc>timerDone</desc>
			<v:textBlock v:margins="rect(4,4,4,4)"/>
			<v:textRect cx="28.5625" cy="429.49" width="57.13" height="10"/>
			<rect x="0" y="424.49" width="57.125" height="10" class="st5"/>
			<text x="4" y="432.49" class="st6" v:langID="1033"><v:paragraph/><v:tabList/>timerDone</text>		</g>
		<g id="shape21-46" v:mID="21" v:groupContext="shape" transform="translate(418.803,-301.75)">
			<title>Sheet.21</title>
			<desc>p_edge</desc>
			<v:textBlock v:margins="rect(4,4,4,4)"/>
			<v:textRect cx="25.0625" cy="429.49" width="50.13" height="10"/>
			<rect x="0" y="424.49" width="50.125" height="10" class="st5"/>
			<text x="4" y="432.49" class="st6" v:langID="1033"><v:paragraph/><v:tabList/>p_edge</text>		</g>
		<g id="shape17-49" v:mID="17" v:groupContext="shape" transform="translate(458.49,-256.75)">
			<title>Sheet.17</title>
			<desc>countReset</desc>
			<v:textBlock v:margins="rect(4,4,4,4)"/>
			<v:textRect cx="29.25" cy="429.49" width="58.5" height="10"/>
			<rect x="0" y="424.49" width="58.5" height="10" class="st5"/>
			<text x="8.5" y="432.49" class="st6" v:langID="1033"><v:paragraph v:horizAlign="2"/><v:tabList/>countReset</text>		</g>
		<g id="shape19-52" v:mID="19" v:groupContext="shape" transform="translate(534.99,-256.75)">
			<title>Sheet.19</title>
			<desc>count</desc>
			<v:textBlock v:margins="rect(4,4,4,4)"/>
			<v:textRect cx="29.25" cy="429.49" width="58.5" height="10"/>
			<rect x="0" y="424.49" width="58.5" height="10" class="st5"/>
			<text x="17.57" y="432.49" class="st6" v:langID="1033"><v:paragraph v:horizAlign="1"/><v:tabList/>count</text>		</g>
		<g id="group49-55" transform="translate(469.74,-19.875)" v:mID="49" v:groupContext="group">
			<title>Sheet.49</title>
			<g id="shape46-56" v:mID="46" v:groupContext="shape" transform="translate(0,-5.625)">
				<title>Sheet.46</title>
				<path d="M0 434.49 L9 434.49" class="st7"/>
			</g>
			<g id="shape47-59" v:mID="47" v:groupContext="shape" transform="translate(2.25,-2.8125)">
				<title>Sheet.47</title>
				<path d="M0 434.49 L4.5 434.49" class="st7"/>
			</g>
			<g id="shape48-62" v:mID="48" v:groupContext="shape" transform="translate(3.86719,5.68434E-014)">
				<title>Sheet.48</title>
				<path d="M0 434.49 L1.27 434.49" class="st7"/>
			</g>
		</g>
		<g id="shape6-65" v:mID="6" v:groupContext="shape" transform="translate(426.99,-45.75)">
			<title>Sheet.6</title>
			<desc>udl_counter</desc>
			<v:textBlock v:margins="rect(4,4,4,4)"/>
			<v:textRect cx="59.0009" cy="377.115" width="118.01" height="114.75"/>
			<rect x="0" y="319.74" width="118.002" height="114.75" class="st3"/>
			<text x="29.24" y="380.72" class="st4" v:langID="1033"><v:paragraph v:horizAlign="1"/><v:tabList/>udl_counter</text>		</g>
		<g id="shape7-68" v:mID="7" v:groupContext="shape" transform="translate(506.23,-115)">
			<title>Sheet.7</title>
			<desc>Q</desc>
			<v:textBlock v:margins="rect(4,4,4,4)"/>
			<v:textRect cx="19.7596" cy="429.49" width="39.52" height="10"/>
			<rect x="0" y="424.49" width="39.5193" height="10" class="st5"/>
			<text x="28.79" y="432.49" class="st6" v:langID="1033"><v:paragraph v:horizAlign="2"/><v:tabList/>Q</text>		</g>
		<g id="shape8-71" v:mID="8" v:groupContext="shape" transform="translate(426.99,-69.5)">
			<title>Sheet.8</title>
			<desc>reset_n</desc>
			<v:textBlock v:margins="rect(4,4,4,4)"/>
			<v:textRect cx="19.7596" cy="429.49" width="39.52" height="10"/>
			<rect x="0" y="424.49" width="39.5193" height="10" class="st5"/>
			<text x="4" y="432.49" class="st6" v:langID="1033"><v:paragraph/><v:tabList/>reset_n</text>		</g>
		<g id="shape9-74" v:mID="9" v:groupContext="shape" transform="translate(505.74,-138)">
			<title>Sheet.9</title>
			<desc>enable</desc>
			<v:textBlock v:margins="rect(4,4,4,4)"/>
			<v:textRect cx="19.7596" cy="429.49" width="39.52" height="10"/>
			<rect x="0" y="424.49" width="39.5193" height="10" class="st5"/>
			<text x="7.97" y="432.49" class="st6" v:langID="1033"><v:paragraph v:horizAlign="2"/><v:tabList/>enable</text>		</g>
		<g id="shape10-77" v:mID="10" v:groupContext="shape" transform="translate(426.99,-50.8125)">
			<title>Sheet.10</title>
			<path d="M0 422.11 L6.21 428.3 L0 434.49" class="st7"/>
		</g>
		<g id="shape11-80" v:mID="11" v:groupContext="shape" transform="translate(487.74,-46.875)">
			<title>Sheet.11</title>
			<desc>up</desc>
			<v:textBlock v:margins="rect(4,4,4,4)"/>
			<v:textRect cx="11.3173" cy="429.49" width="22.64" height="10"/>
			<rect x="0" y="424.49" width="22.6346" height="10" class="st5"/>
			<text x="6.06" y="432.49" class="st6" v:langID="1033"><v:paragraph v:horizAlign="1"/><v:tabList/>up</text>		</g>
		<g id="shape12-83" v:mID="12" v:groupContext="shape" transform="translate(458.49,-46.875)">
			<title>Sheet.12</title>
			<desc>load</desc>
			<v:textBlock v:margins="rect(4,4,4,4)"/>
			<v:textRect cx="15.1875" cy="429.49" width="30.38" height="10"/>
			<rect x="0" y="424.49" width="30.375" height="10" class="st5"/>
			<text x="6.38" y="432.49" class="st6" v:langID="1033"><v:paragraph v:horizAlign="1"/><v:tabList/>load</text>		</g>
		<g id="shape13-86" v:mID="13" v:groupContext="shape" transform="translate(516.99,-46.875)">
			<title>Sheet.13</title>
			<desc>D</desc>
			<v:textBlock v:margins="rect(4,4,4,4)"/>
			<v:textRect cx="8.44231" cy="429.49" width="16.89" height="10"/>
			<rect x="0" y="424.49" width="16.8846" height="10" class="st5"/>
			<text x="5.37" y="432.49" class="st6" v:langID="1033"><v:paragraph v:horizAlign="1"/><v:tabList/>D</text>		</g>
		<g id="shape31-89" v:mID="31" v:groupContext="shape" transform="translate(908.73,388.74) rotate(90)">
			<title>Sheet.31</title>
			<path d="M0 434.49 L20.25 434.49" class="st7"/>
		</g>
		<g id="shape36-92" v:mID="36" v:groupContext="shape" transform="translate(498.99,-37.875)">
			<title>Sheet.36</title>
			<path d="M0 426.61 L0 434.49 L27 434.49" class="st7"/>
		</g>
		<g id="shape37-95" v:mID="37" v:groupContext="shape" transform="translate(525.99,-37.875)">
			<title>Sheet.37</title>
			<path d="M0 426.61 L0 434.49 L45 434.49 L45 417.61" class="st7"/>
		</g>
		<g id="shape38-98" v:mID="38" v:groupContext="shape" transform="translate(576.615,814.23) rotate(180)">
			<title>Sheet.38</title>
			<path d="M0 434.49 L10.48 434.49" class="st7"/>
		</g>
		<g id="group34-101" transform="translate(820.98,300.99) rotate(90)" v:mID="34" v:groupContext="group" v:layerMember="0">
			<v:custProps>
				<v:cp v:nameU="Input" v:lbl="No. of Inputs" v:type="1" v:format="2;3;4;5" v:sortKey="2" v:langID="1033"
						v:val="VT4(2)"/>
				<v:cp v:nameU="Type" v:lbl="Gate Type" v:type="1" v:format="OR;AND;NOR;NAND;XOR;XNOR" v:sortKey="1" v:langID="1033"
						v:val="VT4(AND)"/>
				<v:cp v:nameU="Out" v:lbl="No. of Outputs" v:type="1" v:format="1;2;3" v:sortKey="3" v:langID="1033" v:val="VT4(1)"/>
			</v:custProps>
			<v:userDefs>
				<v:ud v:nameU="SubType" v:val="VT0(1):26"/>
				<v:ud v:nameU="Margin" v:val="VT0(0.0625):0"/>
				<v:ud v:nameU="LimitHeight" v:val="VT0(0):26"/>
				<v:ud v:nameU="visDescription" v:val="VT4(Represents various forms of logic gates.)"/>
				<v:ud v:nameU="visVersion" v:val="VT0(14):26"/>
			</v:userDefs>
			<title>Logic gate 2</title>
			<g id="shape39-102" v:mID="39" v:groupContext="shape" v:layerMember="0" transform="translate(0,-4.5)">
				<title>Sheet.39</title>
				<path d="M0 425.49 L18 425.49" class="st7"/>
				<path d="M0 434.49 L18 434.49" class="st7"/>
				<path d="M36 429.99 L18 429.99" class="st7"/>
			</g>
			<g id="shape40-107" v:mID="40" v:groupContext="shape" v:layerMember="0" transform="translate(6.3,5.68434E-014)">
				<title>Sheet.40</title>
				<v:userDefs>
					<v:ud v:nameU="X" v:val="VT0(0.03125):0"/>
				</v:userDefs>
				<path d="M23.4 425.49 A24.2376 14.8495 0 0 1 7.02 434.49 L0 434.49 A34.7267 21.2757 -180 0 0 -0 416.49 L7.02 416.49
							 A23.913 14.6506 0 0 1 23.4 425.49 Z" class="st3"/>
			</g>
			<g id="shape41-109" v:mID="41" v:groupContext="shape" v:layerMember="0" transform="translate(0,2.25)">
				<title>Sheet.41</title>
			</g>
			<g id="shape42-111" v:mID="42" v:groupContext="shape" v:layerMember="0" transform="translate(24.3744,-2.26162)">
				<title>Sheet.42</title>
			</g>
			<g id="shape43-113" v:mID="43" v:groupContext="shape" v:layerMember="0" transform="translate(6.3,5.68434E-014)">
				<title>Sheet.43</title>
				<path d="M14.4 434.49 L0 434.49 L0 416.49 L14.4 416.49 A9 9 0 0 1 14.4 434.49 Z" class="st3"/>
			</g>
		</g>
		<g id="shape15-115" v:mID="15" v:groupContext="shape" transform="translate(924.48,179.49) rotate(90)">
			<title>Sheet.15</title>
			<path d="M0 434.49 L36 434.49" class="st7"/>
		</g>
		<g id="shape45-118" v:mID="45" v:groupContext="shape" transform="translate(399.99,-219)">
			<title>Sheet.45</title>
			<path d="M0 434.49 L90 434.49" class="st7"/>
		</g>
		<g id="shape52-121" v:mID="52" v:groupContext="shape" transform="translate(834.48,215.49) rotate(90)">
			<title>Sheet.52</title>
			<path d="M0 434.49 L22.5 434.49" class="st7"/>
		</g>
		<g id="shape53-124" v:mID="53" v:groupContext="shape" transform="translate(834.48,252.503) rotate(90)">
			<title>Sheet.53</title>
			<path d="M0 434.49 L48.49 434.49" class="st7"/>
		</g>
		<g id="group44-127" transform="translate(827.73,237.99) rotate(90)" v:mID="44" v:groupContext="group" v:layerMember="0">
			<v:userDefs>
				<v:ud v:nameU="Form" v:val="VT0(0):26"/>
				<v:ud v:nameU="visDescription" v:val="VT4(Represents an inverter.)"/>
				<v:ud v:nameU="visVersion" v:val="VT0(14):26"/>
			</v:userDefs>
			<title>Inverter</title>
			<g id="shape50-128" v:mID="50" v:groupContext="shape" v:layerMember="0" transform="translate(306.726,114.4) rotate(45)">
				<title>Sheet.50</title>
			</g>
			<g id="shape51-130" v:mID="51" v:groupContext="shape" v:layerMember="0">
				<title>Sheet.51</title>
				<desc>1</desc>
				<v:textBlock v:margins="rect(1,1,1,1)"/>
				<v:textRect cx="6.75" cy="424.365" width="6.41" height="9.20349"/>
				<path d="M13.5 427.74 A1.0125 1.0125 -180 1 0 15.53 427.74 A1.0125 1.0125 -180 0 0 13.5 427.74 ZM0 420.99 L13.5 427.74
							 L0 434.49 L0 420.99 Z" class="st3"/>
			</g>
		</g>
		<g id="shape54-132" v:mID="54" v:groupContext="shape" transform="translate(417.99,582.48) rotate(180)">
			<title>Sheet.54</title>
			<path d="M5.36 434.49 L5.72 434.49 L27.19 434.49" class="st8"/>
		</g>
		<g id="shape55-138" v:mID="55" v:groupContext="shape" transform="translate(-43.5,300.99) rotate(-90)">
			<title>Sheet.55</title>
			<path d="M0 434.49 L131.62 434.49" class="st7"/>
		</g>
		<g id="shape56-141" v:mID="56" v:groupContext="shape" transform="translate(395.49,-73.875)">
			<title>Sheet.56</title>
			<path d="M0 410.86 L0 434.49 L25.78 434.49" class="st1"/>
		</g>
		<g id="shape57-146" v:mID="57" v:groupContext="shape" transform="translate(-52.5,109.74) rotate(-90)">
			<title>Sheet.57</title>
			<path d="M0 434.49 L101.25 434.49" class="st7"/>
		</g>
		<g id="group33-149" transform="translate(133.052,-282)" v:mID="33" v:groupContext="group">
			<title>Sheet.33</title>
			<g id="shape1-150" v:mID="1" v:groupContext="shape">
				<title>Sheet.1</title>
				<desc>timer_parameter</desc>
				<v:textBlock v:margins="rect(4,4,4,4)"/>
				<v:textRect cx="88.3125" cy="407.49" width="176.63" height="54"/>
				<rect x="0" y="380.49" width="176.625" height="54" class="st3"/>
				<text x="46.21" y="411.09" class="st4" v:langID="1033"><v:paragraph v:horizAlign="1"/><v:tabList/>timer_parameter</text>			</g>
			<g id="shape3-153" v:mID="3" v:groupContext="shape" transform="translate(126.813,-37.75)">
				<title>Sheet.3</title>
				<desc>done</desc>
				<v:textBlock v:margins="rect(4,4,4,4)"/>
				<v:textRect cx="25.0625" cy="429.49" width="50.13" height="10"/>
				<rect x="0" y="424.49" width="50.125" height="10" class="st5"/>
				<text x="25.37" y="432.49" class="st6" v:langID="1033"><v:paragraph v:horizAlign="2"/><v:tabList/>done</text>			</g>
			<g id="shape2-156" v:mID="2" v:groupContext="shape" transform="translate(0.8125,-22)">
				<title>Sheet.2</title>
				<desc>reset_n</desc>
				<v:textBlock v:margins="rect(4,4,4,4)"/>
				<v:textRect cx="25.0625" cy="429.49" width="50.13" height="10"/>
				<rect x="0" y="424.49" width="50.125" height="10" class="st5"/>
				<text x="4" y="432.49" class="st6" v:langID="1033"><v:paragraph/><v:tabList/>reset_n</text>			</g>
			<g id="shape5-159" v:mID="5" v:groupContext="shape" transform="translate(0.8125,-40)">
				<title>Sheet.5</title>
				<desc>enable</desc>
				<v:textBlock v:margins="rect(4,4,4,4)"/>
				<v:textRect cx="25.0625" cy="429.49" width="50.13" height="10"/>
				<rect x="0" y="424.49" width="50.125" height="10" class="st5"/>
				<text x="4" y="432.49" class="st6" v:langID="1033"><v:paragraph/><v:tabList/>enable</text>			</g>
			<g id="shape4-162" v:mID="4" v:groupContext="shape" transform="translate(0,-4.5)">
				<title>Sheet.4</title>
				<path d="M0 422.11 L7.88 428.3 L0 434.49" class="st7"/>
			</g>
			<g id="shape25-165" v:mID="25" v:groupContext="shape" transform="translate(26.125,-11.25)">
				<title>Sheet.25</title>
				<desc>FINAL_VALUE = 50_000_000</desc>
				<v:textBlock v:margins="rect(4,4,4,4)"/>
				<v:textRect cx="62.1875" cy="429.49" width="124.38" height="10"/>
				<rect x="0" y="424.49" width="124.375" height="10" class="st5"/>
				<text x="27.53" y="431.29" class="st9" v:langID="1033"><v:paragraph v:horizAlign="1"/><v:tabList/>FINAL_VALUE = 50_000_000</text>			</g>
		</g>
		<g id="shape59-168" v:mID="59" v:groupContext="shape" transform="translate(555.48,196.365) rotate(90)">
			<title>Sheet.59</title>
			<path d="M0 434.49 L82.12 434.49" class="st7"/>
		</g>
		<g id="shape60-171" v:mID="60" v:groupContext="shape" transform="translate(120.99,-156)">
			<title>Sheet.60</title>
			<path d="M0 434.49 L270 434.49" class="st7"/>
		</g>
		<g id="shape61-174" v:mID="61" v:groupContext="shape" transform="translate(-43.5,169.365) rotate(-90)">
			<title>Sheet.61</title>
			<path d="M0 434.49 L21.38 434.49" class="st7"/>
		</g>
		<g id="shape62-177" v:mID="62" v:groupContext="shape" transform="translate(545.259,-142.5)">
			<title>Sheet.62</title>
			<path d="M5.36 434.49 L5.72 434.49 L18.98 434.49" class="st8"/>
		</g>
		<g id="shape63-182" v:mID="63" v:groupContext="shape" transform="translate(129.75,291.99) rotate(-90)">
			<title>Sheet.63</title>
			<path d="M0 434.49 L112.5 434.49" class="st7"/>
		</g>
		<g id="shape58-185" v:mID="58" v:groupContext="shape" transform="translate(134.49,630.855) rotate(180)">
			<title>Sheet.58</title>
			<path d="M5.36 434.49 L5.72 434.49 L13.5 434.49" class="st8"/>
		</g>
		<g id="shape64-190" v:mID="64" v:groupContext="shape" transform="translate(-313.5,196.365) rotate(-90)">
			<title>Sheet.64</title>
			<path d="M0 434.49 L70.69 434.49" class="st7"/>
		</g>
		<g id="shape65-193" v:mID="65" v:groupContext="shape" transform="translate(133.052,559.98) rotate(180)">
			<title>Sheet.65</title>
			<path d="M5.36 434.49 L5.72 434.49 L12.06 434.49" class="st8"/>
		</g>
		<g id="group68-198" transform="translate(578.303,-54.75)" v:mID="68" v:groupContext="group">
			<title>Sheet.68</title>
			<g id="shape66-199" v:mID="66" v:groupContext="shape" transform="translate(436.177,431.115) rotate(90)">
				<title>Sheet.66</title>
				<path d="M0 434.49 L3.37 434.49" class="st7"/>
			</g>
			<g id="shape67-202" v:mID="67" v:groupContext="shape" transform="translate(0,-1.6875)">
				<title>Sheet.67</title>
				<path d="M0 434.49 L3.37 434.49" class="st7"/>
			</g>
		</g>
		<g id="shape69-205" v:mID="69" v:groupContext="shape" transform="translate(545.75,-120)">
			<title>Sheet.69</title>
			<path d="M0 434.49 L40.99 434.49" class="st7"/>
		</g>
		<g id="shape70-208" v:mID="70" v:groupContext="shape" transform="translate(130.552,509.355) rotate(180)">
			<title>Sheet.70</title>
			<path d="M0 434.49 L10.48 434.49" class="st7"/>
		</g>
		<g id="group71-211" transform="translate(132.24,-359.625)" v:mID="71" v:groupContext="group">
			<title>Sheet.71</title>
			<g id="shape72-212" v:mID="72" v:groupContext="shape" transform="translate(436.177,431.115) rotate(90)">
				<title>Sheet.72</title>
				<path d="M0 434.49 L3.37 434.49" class="st7"/>
			</g>
			<g id="shape73-215" v:mID="73" v:groupContext="shape" transform="translate(0,-1.6875)">
				<title>Sheet.73</title>
				<path d="M0 434.49 L3.37 434.49" class="st7"/>
			</g>
		</g>
		<g id="shape74-218" v:mID="74" v:groupContext="shape" transform="translate(133.865,541.98) rotate(180)">
			<title>Sheet.74</title>
			<path d="M0 434.49 L8.38 434.49" class="st7"/>
		</g>
		<g id="shape75-221" v:mID="75" v:groupContext="shape" transform="translate(-309,107.49) rotate(-90)">
			<title>Sheet.75</title>
			<path d="M0 434.49 L32.62 434.49" class="st7"/>
		</g>
		<g id="shape76-224" v:mID="76" v:groupContext="shape" transform="translate(881.837,618.105) rotate(135)">
			<title>Sheet.76</title>
			<path d="M0 434.49 L11.48 434.49" class="st7"/>
		</g>
		<g id="shape77-227" v:mID="77" v:groupContext="shape" transform="translate(560.883,-120)">
			<title>Sheet.77</title>
			<desc>26</desc>
			<v:textBlock v:margins="rect(4,4,4,4)"/>
			<v:textRect cx="11.8036" cy="424.49" width="23.61" height="20"/>
			<rect x="0" y="414.49" width="23.6071" height="20" class="st5"/>
			<text x="6.74" y="427.49" class="st6" v:langID="1033"><v:paragraph v:horizAlign="1"/><v:tabList/>26</text>		</g>
		<g id="shape78-230" v:mID="78" v:groupContext="shape" transform="translate(107.49,-214.5)">
			<title>Sheet.78</title>
			<path d="M25.56 355.74 L0 355.74 L0 434.49 L27 434.49" class="st7"/>
		</g>
		<g id="shape79-233" v:mID="79" v:groupContext="shape" transform="translate(541.98,219.99) rotate(90)">
			<title>Sheet.79</title>
			<path d="M0 434.49 L31.5 434.49" class="st7"/>
		</g>
		<g id="shape80-236" v:mID="80" v:groupContext="shape" transform="translate(107.49,-183)">
			<title>Sheet.80</title>
			<path d="M0 434.49 L265.5 434.49" class="st7"/>
		</g>
		<g id="shape81-239" v:mID="81" v:groupContext="shape" transform="translate(372.99,-183)">
			<title>Sheet.81</title>
			<path d="M0 434.49 L0 351.24 L45 351.24" class="st7"/>
		</g>
		<g id="shape82-242" v:mID="82" v:groupContext="shape" transform="translate(372.99,-57)">
			<title>Sheet.82</title>
			<path d="M0 308.49 L0 434.49 L54 434.49" class="st7"/>
		</g>
		<g id="shape83-245" v:mID="83" v:groupContext="shape" transform="translate(371.302,-181.875)">
			<title>Sheet.83</title>
			<ellipse cx="1.6875" cy="432.803" rx="1.6875" ry="1.6875" class="st10"/>
		</g>
		<g id="shape84-247" v:mID="84" v:groupContext="shape" transform="translate(389.302,-154.312)">
			<title>Sheet.84</title>
			<ellipse cx="1.6875" cy="432.803" rx="1.6875" ry="1.6875" class="st10"/>
		</g>
		<g id="shape85-249" v:mID="85" v:groupContext="shape" transform="translate(119.302,-236.437)">
			<title>Sheet.85</title>
			<ellipse cx="1.6875" cy="432.803" rx="1.6875" ry="1.6875" class="st10"/>
		</g>
		<g id="shape86-251" v:mID="86" v:groupContext="shape" transform="translate(380.302,-323.062)">
			<title>Sheet.86</title>
			<ellipse cx="1.6875" cy="432.803" rx="1.6875" ry="1.6875" class="st10"/>
		</g>
		<g id="shape87-253" v:mID="87" v:groupContext="shape" transform="translate(524.303,-36.75)">
			<title>Sheet.87</title>
			<ellipse cx="1.6875" cy="432.803" rx="1.6875" ry="1.6875" class="st10"/>
		</g>
		<g id="shape88-255" v:mID="88" v:groupContext="shape" transform="translate(84.99,-3)">
			<title>Sheet.88</title>
			<rect x="0" y="47.49" width="589.5" height="387" class="st11"/>
		</g>
		<g id="shape89-257" v:mID="89" v:groupContext="shape" v:layerMember="0" transform="translate(0.24,-248.625)">
			<title>I/O port</title>
			<desc>waveform</desc>
			<v:userDefs>
				<v:ud v:nameU="Form" v:val="VT0(0):26"/>
				<v:ud v:nameU="visDescription" v:val="VT4(Unidirectional or bidirectional I/O port. )"/>
				<v:ud v:nameU="visVersion" v:val="VT0(14):26"/>
			</v:userDefs>
			<v:textBlock v:margins="rect(1,1,1,1)"/>
			<v:textRect cx="20.25" cy="425.115" width="36.8" height="11.6036"/>
			<path d="M0 425.86 L0 417.24 L34.5 417.24 L51.75 425.86 L34.5 434.49 L0 434.49 L0 425.86 Z" class="st12"/>
			<text x="3.76" y="427.52" class="st13" v:langID="1033"><v:paragraph v:horizAlign="1"/><v:tabList/>waveform</text>		</g>
		<g id="shape90-260" v:mID="90" v:groupContext="shape" v:layerMember="0" transform="translate(0.615,-174.75)">
			<title>I/O port.90</title>
			<desc>clk</desc>
			<v:userDefs>
				<v:ud v:nameU="Form" v:val="VT0(0):26"/>
				<v:ud v:nameU="visDescription" v:val="VT4(Unidirectional or bidirectional I/O port. )"/>
				<v:ud v:nameU="visVersion" v:val="VT0(14):26"/>
			</v:userDefs>
			<v:textBlock v:margins="rect(1,1,1,1)"/>
			<v:textRect cx="20.25" cy="425.115" width="12.67" height="11.6036"/>
			<path d="M0 425.86 L0 417.24 L34.5 417.24 L51.75 425.86 L34.5 434.49 L0 434.49 L0 425.86 Z" class="st12"/>
			<text x="15.82" y="427.52" class="st13" v:langID="1033"><v:paragraph v:horizAlign="1"/><v:tabList/>clk</text>		</g>
		<g id="shape91-263" v:mID="91" v:groupContext="shape" v:layerMember="0" transform="translate(0.615,-147.375)">
			<title>I/O port.91</title>
			<desc>reset_n</desc>
			<v:userDefs>
				<v:ud v:nameU="Form" v:val="VT0(0):26"/>
				<v:ud v:nameU="visDescription" v:val="VT4(Unidirectional or bidirectional I/O port. )"/>
				<v:ud v:nameU="visVersion" v:val="VT0(14):26"/>
			</v:userDefs>
			<v:textBlock v:margins="rect(1,1,1,1)"/>
			<v:textRect cx="20.25" cy="425.115" width="28.56" height="11.6036"/>
			<path d="M0 425.86 L0 417.24 L34.5 417.24 L51.75 425.86 L34.5 434.49 L0 434.49 L0 425.86 Z" class="st12"/>
			<text x="7.88" y="427.52" class="st13" v:langID="1033"><v:paragraph v:horizAlign="1"/><v:tabList/>reset_n</text>		</g>
		<g id="shape92-266" v:mID="92" v:groupContext="shape" v:layerMember="0" transform="translate(393.24,-417)">
			<title>I/O port.92</title>
			<desc>done</desc>
			<v:userDefs>
				<v:ud v:nameU="Form" v:val="VT0(0):26"/>
				<v:ud v:nameU="visDescription" v:val="VT4(Unidirectional or bidirectional I/O port. )"/>
				<v:ud v:nameU="visVersion" v:val="VT0(14):26"/>
			</v:userDefs>
			<v:textBlock v:margins="rect(1,1,1,1)"/>
			<v:textRect cx="20.25" cy="425.115" width="20.42" height="11.6036"/>
			<path d="M0 425.86 L0 417.24 L34.5 417.24 L51.75 425.86 L34.5 434.49 L0 434.49 L0 425.86 Z" class="st12"/>
			<text x="11.95" y="427.52" class="st13" v:langID="1033"><v:paragraph v:horizAlign="1"/><v:tabList/>done</text>		</g>
		<g id="shape93-269" v:mID="93" v:groupContext="shape" v:layerMember="0" transform="translate(708.24,-110.609)">
			<title>I/O port.93</title>
			<desc>frequency</desc>
			<v:userDefs>
				<v:ud v:nameU="Form" v:val="VT0(0):26"/>
				<v:ud v:nameU="visDescription" v:val="VT4(Unidirectional or bidirectional I/O port. )"/>
				<v:ud v:nameU="visVersion" v:val="VT0(14):26"/>
			</v:userDefs>
			<v:textBlock v:margins="rect(1,1,1,1)"/>
			<v:textRect cx="20.25" cy="425.115" width="36.62" height="11.6036"/>
			<path d="M0 425.86 L0 417.24 L34.5 417.24 L51.75 425.86 L34.5 434.49 L0 434.49 L0 425.86 Z" class="st12"/>
			<text x="3.85" y="427.52" class="st13" v:langID="1033"><v:paragraph v:horizAlign="1"/><v:tabList/>frequency</text>		</g>
		<g id="shape94-272" v:mID="94" v:groupContext="shape" transform="translate(393.24,443.355) rotate(180)">
			<title>Sheet.94</title>
			<path d="M0 434.49 L11.25 434.49" class="st7"/>
		</g>
		<g id="shape95-275" v:mID="95" v:groupContext="shape" transform="translate(134.49,611.73) rotate(180)">
			<title>Sheet.95</title>
			<path d="M0 434.49 L82.5 434.49" class="st7"/>
		</g>
		<g id="shape96-278" v:mID="96" v:groupContext="shape" transform="translate(120.99,712.98) rotate(180)">
			<title>Sheet.96</title>
			<path d="M0 434.49 L68.62 434.49" class="st7"/>
		</g>
		<g id="shape97-281" v:mID="97" v:groupContext="shape" transform="translate(104.534,685.97) rotate(-179.61)">
			<title>Sheet.97</title>
			<path d="M0 434.49 L55.13 434.49" class="st7"/>
		</g>
		<g id="shape98-284" v:mID="98" v:groupContext="shape" transform="translate(587.303,-104.812)">
			<title>Sheet.98</title>
			<desc>&#60;&#60; 1</desc>
			<v:textBlock v:margins="rect(4,4,4,4)"/>
			<v:textRect cx="15.1875" cy="419.302" width="30.38" height="30.375"/>
			<ellipse cx="15.1875" cy="419.303" rx="15.1875" ry="15.1875" class="st3"/>
			<text x="4.81" y="422.9" class="st4" v:langID="1033"><v:paragraph v:horizAlign="1"/><v:tabList/>&#60;&#60; 1</text>		</g>
		<g id="shape99-287" v:mID="99" v:groupContext="shape" transform="translate(617.658,-119.234)">
			<title>Sheet.99</title>
			<path d="M0 434.49 L90.58 434.49" class="st7"/>
		</g>
		<g id="shape100-290" v:mID="100" v:groupContext="shape" transform="translate(91.74,-392.5)">
			<title>Sheet.100</title>
			<desc>freq_measurement</desc>
			<v:textBlock v:margins="rect(4,4,4,4)"/>
			<v:textRect cx="83.25" cy="424.49" width="166.5" height="20"/>
			<rect x="0" y="414.49" width="166.5" height="20" class="st5"/>
			<text x="4" y="429.89" class="st14" v:langID="1033"><v:paragraph/><v:tabList/>freq_measurement</text>		</g>
		<g id="shape101-293" v:mID="101" v:groupContext="shape" transform="translate(1004.44,618.105) rotate(135)">
			<title>Sheet.101</title>
			<path d="M0 434.49 L11.48 434.49" class="st7"/>
		</g>
		<g id="shape102-296" v:mID="102" v:groupContext="shape" transform="translate(683.49,-120)">
			<title>Sheet.102</title>
			<desc>26</desc>
			<v:textBlock v:margins="rect(4,4,4,4)"/>
			<v:textRect cx="11.8036" cy="424.49" width="23.61" height="20"/>
			<rect x="0" y="414.49" width="23.6071" height="20" class="st5"/>
			<text x="6.74" y="427.49" class="st6" v:langID="1033"><v:paragraph v:horizAlign="1"/><v:tabList/>26</text>		</g>
		<g id="shape103-299" v:mID="103" v:groupContext="shape" transform="translate(119.302,-154.312)">
			<title>Sheet.103</title>
			<ellipse cx="1.6875" cy="432.803" rx="1.6875" ry="1.6875" class="st10"/>
		</g>
		<g id="shape104-301" v:mID="104" v:groupContext="shape" transform="translate(105.802,-181.312)">
			<title>Sheet.104</title>
			<ellipse cx="1.6875" cy="432.803" rx="1.6875" ry="1.6875" class="st10"/>
		</g>
		<g id="shape105-303" v:mID="105" v:groupContext="shape" transform="translate(105.802,-212.812)">
			<title>Sheet.105</title>
			<ellipse cx="1.6875" cy="432.803" rx="1.6875" ry="1.6875" class="st10"/>
		</g>
	</g>
</svg>
