<?xml version="1.0" encoding="UTF-8" standalone="no"?>
<!DOCTYPE svg PUBLIC "-//W3C//DTD SVG 1.0//EN" "http://www.w3.org/TR/2001/REC-SVG-20010904/DTD/svg10.dtd">
<!-- Generated by Microsoft Visio 11.0, SVG Export, v1.0 FSM_diagram.svg Page-1 -->
<svg xmlns="http://www.w3.org/2000/svg" xmlns:xlink="http://www.w3.org/1999/xlink" xmlns:ev="http://www.w3.org/2001/xml-events"
		xmlns:v="http://schemas.microsoft.com/visio/2003/SVGExtensions/" width="4.19891in" height="5.56917in"
		viewBox="0 0 302.322 400.98" xml:space="preserve" color-interpolation-filters="sRGB" class="st11">
	<v:documentProperties v:langID="1033" v:viewMarkup="false"/>

	<style type="text/css">
	<![CDATA[
		.st1 {fill:#ffffff;stroke:#000000;stroke-linecap:round;stroke-linejoin:round;stroke-width:1.5}
		.st2 {fill:#000000;font-family:Calibri;font-size:1.00001em}
		.st3 {marker-start:url(#mrkr5-9);stroke:#000000;stroke-linecap:round;stroke-linejoin:round;stroke-width:1}
		.st4 {fill:#000000;fill-opacity:1;stroke:#000000;stroke-opacity:1;stroke-width:0.28409090909091}
		.st5 {font-size:1em}
		.st6 {marker-end:url(#mrkr5-48);stroke:#000000;stroke-linecap:round;stroke-linejoin:round;stroke-width:1}
		.st7 {marker-start:url(#mrkr5-64);stroke:#000000;stroke-linecap:round;stroke-linejoin:round;stroke-width:1}
		.st8 {marker-end:url(#mrkr5-120);stroke:#000000;stroke-linecap:round;stroke-linejoin:round;stroke-width:1}
		.st9 {fill:none;stroke:none;stroke-linecap:round;stroke-linejoin:round;stroke-width:0.75}
		.st10 {fill:#00b050;font-family:Calibri;font-size:0.75em}
		.st11 {fill:none;fill-rule:evenodd;font-size:12px;overflow:visible;stroke-linecap:square;stroke-miterlimit:3}
	]]>
	</style>

	<defs id="Markers">
		<g id="lend5">
			<path d="M 2 1 L 0 0 L 1.98117 -0.993387 C 1.67173 -0.364515 1.67301 0.372641 1.98465 1.00043 " style="stroke:none"/>
		</g>
		<marker id="mrkr5-9" class="st4" v:arrowType="5" v:arrowSize="2" v:setback="0" refX="0" orient="auto"
				markerUnits="strokeWidth" overflow="visible">
			<use xlink:href="#lend5" transform="scale(3.52) "/>
		</marker>
		<marker id="mrkr5-48" class="st4" v:arrowType="5" v:arrowSize="2" v:setback="5.8" refX="-5.8" orient="auto"
				markerUnits="strokeWidth" overflow="visible">
			<use xlink:href="#lend5" transform="scale(-3.52,-3.52) "/>
		</marker>
		<marker id="mrkr5-64" class="st4" v:arrowType="5" v:arrowSize="2" v:setback="5.8" refX="5.8" orient="auto"
				markerUnits="strokeWidth" overflow="visible">
			<use xlink:href="#lend5" transform="scale(3.52) "/>
		</marker>
		<marker id="mrkr5-120" class="st4" v:arrowType="5" v:arrowSize="2" v:setback="6.16" refX="-6.16" orient="auto"
				markerUnits="strokeWidth" overflow="visible">
			<use xlink:href="#lend5" transform="scale(-3.52,-3.52) "/>
		</marker>
	</defs>
	<g v:mID="0" v:index="1" v:groupContext="foregroundPage">
		<title>Page-1</title>
		<v:pageProperties v:drawingScale="1" v:pageScale="1" v:drawingUnits="19" v:shadowOffsetX="9" v:shadowOffsetY="-9"/>
		<v:layer v:name="Flowchart" v:index="0"/>
		<v:layer v:name="Connector" v:index="1"/>
		<g id="shape2-1" v:mID="2" v:groupContext="shape" v:layerMember="0" transform="translate(127.996,-336.75)">
			<title>State</title>
			<desc>s0</desc>
			<v:custProps>
				<v:cp v:nameU="Cost" v:lbl="Cost" v:type="7" v:format="@" v:langID="1033"/>
				<v:cp v:nameU="Duration" v:lbl="Duration" v:type="2" v:langID="1033"/>
				<v:cp v:nameU="Resources" v:lbl="Resources" v:langID="1033"/>
			</v:custProps>
			<v:userDefs>
				<v:ud v:nameU="visVersion" v:val="VT0(14):26"/>
			</v:userDefs>
			<v:textBlock v:margins="rect(1,1,1,1)"/>
			<v:textRect cx="20.25" cy="380.73" width="40.5" height="40.5"/>
			<path d="M0 380.73 A20.25 20.25 0 0 1 40.5 380.73 A20.25 20.25 0 1 1 0 380.73 Z" class="st1"/>
			<text x="14.45" y="384.33" class="st2" v:langID="1033"><v:paragraph v:horizAlign="1"/><v:tabList/>S0</text>		</g>
		<g id="shape3-4" v:mID="3" v:groupContext="shape" v:layerMember="1" transform="translate(141.636,-378.643)">
			<title>Dynamic connector.3</title>
			<desc>a̅ b̅</desc>
			<v:textBlock v:margins="rect(4,4,4,4)"/>
			<v:textRect cx="-38.3908" cy="389.998" width="60" height="22.4037"/>
			<path d="M-6.57 406.54 C-11.39 361.87 -58.64 409.12 -11.43 413.42" class="st3"/>
			<text x="-45.77" y="393.6" class="st2" v:langID="1033"><v:paragraph v:horizAlign="1"/><v:tabList/>a<tspan x="-3.335em"
						dy="0em" class="st5">̅</tspan> b<tspan x="-2.584em" dy="0em" class="st5">̅</tspan> </text>		</g>
		<g id="shape1-13" v:mID="1" v:groupContext="shape" v:layerMember="1" transform="translate(154.911,-378.352)">
			<title>Dynamic connector.1</title>
			<desc>a b</desc>
			<v:textBlock v:margins="rect(4,4,4,4)"/>
			<v:textRect cx="39.6536" cy="390.039" width="60" height="22.4037"/>
			<path d="M6.3 406.16 C13.58 359.33 58.58 408.83 11.7 413.8" class="st3"/>
			<text x="32.27" y="393.64" class="st2" v:langID="1033"><v:paragraph v:horizAlign="1"/><v:tabList/>a b</text>		</g>
		<g id="shape4-19" v:mID="4" v:groupContext="shape" v:layerMember="0" transform="translate(82.9956,-264.75)">
			<title>State.4</title>
			<desc>s1</desc>
			<v:custProps>
				<v:cp v:nameU="Cost" v:lbl="Cost" v:type="7" v:format="@" v:langID="1033"/>
				<v:cp v:nameU="Duration" v:lbl="Duration" v:type="2" v:langID="1033"/>
				<v:cp v:nameU="Resources" v:lbl="Resources" v:langID="1033"/>
			</v:custProps>
			<v:userDefs>
				<v:ud v:nameU="visVersion" v:val="VT0(14):26"/>
			</v:userDefs>
			<v:textBlock v:margins="rect(1,1,1,1)"/>
			<v:textRect cx="20.25" cy="380.73" width="40.5" height="40.5"/>
			<path d="M0 380.73 A20.25 20.25 0 0 1 40.5 380.73 A20.25 20.25 0 1 1 0 380.73 Z" class="st1"/>
			<text x="14.45" y="384.33" class="st2" v:langID="1033"><v:paragraph v:horizAlign="1"/><v:tabList/>S1</text>		</g>
		<g id="shape5-22" v:mID="5" v:groupContext="shape" v:layerMember="0" transform="translate(172.996,-264.75)">
			<title>State.5</title>
			<desc>s5</desc>
			<v:custProps>
				<v:cp v:nameU="Cost" v:lbl="Cost" v:type="7" v:format="@" v:langID="1033"/>
				<v:cp v:nameU="Duration" v:lbl="Duration" v:type="2" v:langID="1033"/>
				<v:cp v:nameU="Resources" v:lbl="Resources" v:langID="1033"/>
			</v:custProps>
			<v:userDefs>
				<v:ud v:nameU="visVersion" v:val="VT0(14):26"/>
			</v:userDefs>
			<v:textBlock v:margins="rect(1,1,1,1)"/>
			<v:textRect cx="20.25" cy="380.73" width="40.5" height="40.5"/>
			<path d="M0 380.73 A20.25 20.25 0 0 1 40.5 380.73 A20.25 20.25 0 1 1 0 380.73 Z" class="st1"/>
			<text x="14.45" y="384.33" class="st2" v:langID="1033"><v:paragraph v:horizAlign="1"/><v:tabList/>S5</text>		</g>
		<g id="shape6-25" v:mID="6" v:groupContext="shape" v:layerMember="0" transform="translate(82.9956,-177)">
			<title>State.6</title>
			<desc>s2</desc>
			<v:custProps>
				<v:cp v:nameU="Cost" v:lbl="Cost" v:type="7" v:format="@" v:langID="1033"/>
				<v:cp v:nameU="Duration" v:lbl="Duration" v:type="2" v:langID="1033"/>
				<v:cp v:nameU="Resources" v:lbl="Resources" v:langID="1033"/>
			</v:custProps>
			<v:userDefs>
				<v:ud v:nameU="visVersion" v:val="VT0(14):26"/>
			</v:userDefs>
			<v:textBlock v:margins="rect(1,1,1,1)"/>
			<v:textRect cx="20.25" cy="380.73" width="40.5" height="40.5"/>
			<path d="M0 380.73 A20.25 20.25 0 0 1 40.5 380.73 A20.25 20.25 0 1 1 0 380.73 Z" class="st1"/>
			<text x="14.45" y="384.33" class="st2" v:langID="1033"><v:paragraph v:horizAlign="1"/><v:tabList/>S2</text>		</g>
		<g id="shape7-28" v:mID="7" v:groupContext="shape" v:layerMember="0" transform="translate(172.996,-177)">
			<title>State.7</title>
			<desc>s6</desc>
			<v:custProps>
				<v:cp v:nameU="Cost" v:lbl="Cost" v:type="7" v:format="@" v:langID="1033"/>
				<v:cp v:nameU="Duration" v:lbl="Duration" v:type="2" v:langID="1033"/>
				<v:cp v:nameU="Resources" v:lbl="Resources" v:langID="1033"/>
			</v:custProps>
			<v:userDefs>
				<v:ud v:nameU="visVersion" v:val="VT0(14):26"/>
			</v:userDefs>
			<v:textBlock v:margins="rect(1,1,1,1)"/>
			<v:textRect cx="20.25" cy="380.73" width="40.5" height="40.5"/>
			<path d="M0 380.73 A20.25 20.25 0 0 1 40.5 380.73 A20.25 20.25 0 1 1 0 380.73 Z" class="st1"/>
			<text x="14.45" y="384.33" class="st2" v:langID="1033"><v:paragraph v:horizAlign="1"/><v:tabList/>S6</text>		</g>
		<g id="shape8-31" v:mID="8" v:groupContext="shape" v:layerMember="0" transform="translate(82.9956,-89.25)">
			<title>State.8</title>
			<desc>s3</desc>
			<v:custProps>
				<v:cp v:nameU="Cost" v:lbl="Cost" v:type="7" v:format="@" v:langID="1033"/>
				<v:cp v:nameU="Duration" v:lbl="Duration" v:type="2" v:langID="1033"/>
				<v:cp v:nameU="Resources" v:lbl="Resources" v:langID="1033"/>
			</v:custProps>
			<v:userDefs>
				<v:ud v:nameU="visVersion" v:val="VT0(14):26"/>
			</v:userDefs>
			<v:textBlock v:margins="rect(1,1,1,1)"/>
			<v:textRect cx="20.25" cy="380.73" width="40.5" height="40.5"/>
			<path d="M0 380.73 A20.25 20.25 0 0 1 40.5 380.73 A20.25 20.25 0 1 1 0 380.73 Z" class="st1"/>
			<text x="14.45" y="384.33" class="st2" v:langID="1033"><v:paragraph v:horizAlign="1"/><v:tabList/>S3</text>		</g>
		<g id="shape9-34" v:mID="9" v:groupContext="shape" v:layerMember="0" transform="translate(172.996,-89.25)">
			<title>State.9</title>
			<desc>s7</desc>
			<v:custProps>
				<v:cp v:nameU="Cost" v:lbl="Cost" v:type="7" v:format="@" v:langID="1033"/>
				<v:cp v:nameU="Duration" v:lbl="Duration" v:type="2" v:langID="1033"/>
				<v:cp v:nameU="Resources" v:lbl="Resources" v:langID="1033"/>
			</v:custProps>
			<v:userDefs>
				<v:ud v:nameU="visVersion" v:val="VT0(14):26"/>
			</v:userDefs>
			<v:textBlock v:margins="rect(1,1,1,1)"/>
			<v:textRect cx="20.25" cy="380.73" width="40.5" height="40.5"/>
			<path d="M0 380.73 A20.25 20.25 0 0 1 40.5 380.73 A20.25 20.25 0 1 1 0 380.73 Z" class="st1"/>
			<text x="14.45" y="384.33" class="st2" v:langID="1033"><v:paragraph v:horizAlign="1"/><v:tabList/>S7</text>		</g>
		<g id="shape10-37" v:mID="10" v:groupContext="shape" v:layerMember="0" transform="translate(82.9956,-1.5)">
			<title>State.10</title>
			<desc>s4</desc>
			<v:custProps>
				<v:cp v:nameU="Cost" v:lbl="Cost" v:type="7" v:format="@" v:langID="1033"/>
				<v:cp v:nameU="Duration" v:lbl="Duration" v:type="2" v:langID="1033"/>
				<v:cp v:nameU="Resources" v:lbl="Resources" v:langID="1033"/>
			</v:custProps>
			<v:userDefs>
				<v:ud v:nameU="visVersion" v:val="VT0(14):26"/>
			</v:userDefs>
			<v:textBlock v:margins="rect(6,1,1,1)" v:verticalAlign="0"/>
			<v:textRect cx="20.25" cy="380.73" width="40.5" height="40.5"/>
			<path d="M0 380.73 A20.25 20.25 0 0 1 40.5 380.73 A20.25 20.25 0 1 1 0 380.73 Z" class="st1"/>
			<text x="14.45" y="377.28" class="st2" v:langID="1033"><v:paragraph v:horizAlign="1"/><v:tabList/>S4</text>		</g>
		<g id="shape11-40" v:mID="11" v:groupContext="shape" v:layerMember="0" transform="translate(172.996,-1.5)">
			<title>State.11</title>
			<desc>s8</desc>
			<v:custProps>
				<v:cp v:nameU="Cost" v:lbl="Cost" v:type="7" v:format="@" v:langID="1033"/>
				<v:cp v:nameU="Duration" v:lbl="Duration" v:type="2" v:langID="1033"/>
				<v:cp v:nameU="Resources" v:lbl="Resources" v:langID="1033"/>
			</v:custProps>
			<v:userDefs>
				<v:ud v:nameU="visVersion" v:val="VT0(14):26"/>
			</v:userDefs>
			<v:textBlock v:margins="rect(6,1,1,1)" v:verticalAlign="0"/>
			<v:textRect cx="20.25" cy="380.73" width="40.5" height="40.5"/>
			<path d="M0 380.73 A20.25 20.25 0 0 1 40.5 380.73 A20.25 20.25 0 1 1 0 380.73 Z" class="st1"/>
			<text x="14.45" y="377.28" class="st2" v:langID="1033"><v:paragraph v:horizAlign="1"/><v:tabList/>S8</text>		</g>
		<g id="shape12-43" v:mID="12" v:groupContext="shape" v:layerMember="1" transform="translate(131.04,-346.321)">
			<title>Dynamic connector</title>
			<desc>a b̅</desc>
			<v:textBlock v:margins="rect(4,4,4,4)"/>
			<v:textRect cx="-36.7948" cy="411.676" width="60" height="22.4037"/>
			<path d="M0 400.98 C-30.23 407.39 -34.01 421.97 -32.09 436.24 L-32.03 436.6" class="st6"/>
			<text x="-44.18" y="415.28" class="st2" v:langID="1033"><v:paragraph v:horizAlign="1"/><v:tabList/>a b<tspan x="-2.451em"
						dy="0em" class="st5">̅</tspan> </text>		</g>
		<g id="shape13-51" v:mID="13" v:groupContext="shape" v:layerMember="1" transform="translate(120.585,-295.459)">
			<title>Dynamic connector.13</title>
			<desc>a̅ b̅</desc>
			<v:textBlock v:margins="rect(4,4,4,4)"/>
			<v:textRect cx="5.1601" cy="382.189" width="60" height="22.4037"/>
			<path d="M0 400.98 C8.54 395.69 11.09 391.8 13.89 386.11 C16.44 380.94 19.21 374.29 21.05 364.97 L21.11 364.62"
					class="st6"/>
			<text x="-2.22" y="385.79" class="st2" v:langID="1033"><v:paragraph v:horizAlign="1"/><v:tabList/>a<tspan x="0.294em"
						dy="0em" class="st5">̅</tspan> b<tspan x="1.045em" dy="0em" class="st5">̅</tspan> </text>		</g>
		<g id="shape14-59" v:mID="14" v:groupContext="shape" v:layerMember="1" transform="translate(153.289,-337.388)">
			<title>Dynamic connector.14</title>
			<desc>a̅ b̅</desc>
			<v:textBlock v:margins="rect(4,4,4,4)"/>
			<v:textRect cx="19.7069" cy="424.118" width="60" height="22.4037"/>
			<path d="M0.93 406.7 L0.99 407.06 C2.78 415.78 5.64 420.7 8.89 425.95 C12.39 431.59 16.33 437.62 23.09 442.16"
					class="st7"/>
			<text x="12.32" y="427.72" class="st2" v:langID="1033"><v:paragraph v:horizAlign="1"/><v:tabList/>a<tspan x="1.506em"
						dy="0em" class="st5">̅</tspan> b<tspan x="2.257em" dy="0em" class="st5">̅</tspan> </text>		</g>
		<g id="shape15-68" v:mID="15" v:groupContext="shape" v:layerMember="1" transform="translate(164.878,-345.449)">
			<title>Dynamic connector.15</title>
			<desc>a̅ b</desc>
			<v:textBlock v:margins="rect(4,4,4,4)"/>
			<v:textRect cx="41.3048" cy="414.883" width="60" height="22.4037"/>
			<path d="M0 400.98 C31.05 406.68 39.92 421.42 36.99 436.48 L36.89 436.82" class="st6"/>
			<text x="33.92" y="418.48" class="st2" v:langID="1033"><v:paragraph v:horizAlign="1"/><v:tabList/>a<tspan x="3.306em"
						dy="0em" class="st5">̅</tspan> b</text>		</g>
		<g id="shape18-75" v:mID="18" v:groupContext="shape" v:layerMember="1" transform="translate(102.5,-179.473)">
			<title>Dynamic connector.18</title>
			<desc>a̅ b</desc>
			<v:textBlock v:margins="rect(4,4,4,4)"/>
			<v:textRect cx="-24.0043" cy="425.953" width="60" height="22.4037"/>
			<path d="M-8.95 400.98 C-12.75 414.7 -13.84 429.51 -12.45 440.02 C-12.08 442.83 -11.53 445.33 -10.98 447.38 L-10.86 447.72"
					class="st6"/>
			<text x="-31.39" y="429.55" class="st2" v:langID="1033"><v:paragraph v:horizAlign="1"/><v:tabList/>a<tspan x="-2.137em"
						dy="0em" class="st5">̅</tspan> b</text>		</g>
		<g id="shape19-82" v:mID="19" v:groupContext="shape" v:layerMember="1" transform="translate(192.791,-179.34)">
			<title>Dynamic connector.19</title>
			<desc>a b̅</desc>
			<v:textBlock v:margins="rect(4,4,4,4)"/>
			<v:textRect cx="-22.0457" cy="428.07" width="60" height="22.4037"/>
			<path d="M-9 400.98 C-11.92 414.57 -12.77 432.03 -11.68 442.09 C-11.47 444.01 -11.19 445.66 -10.89 447.05 L-10.78 447.39"
					class="st6"/>
			<text x="-29.43" y="431.67" class="st2" v:langID="1033"><v:paragraph v:horizAlign="1"/><v:tabList/>a b<tspan x="-1.222em"
						dy="0em" class="st5">̅</tspan> </text>		</g>
		<g id="shape20-89" v:mID="20" v:groupContext="shape" v:layerMember="1" transform="translate(101.523,-267.363)">
			<title>Dynamic connector.20</title>
			<desc>a b</desc>
			<v:textBlock v:margins="rect(4,4,4,4)"/>
			<v:textRect cx="-23.0271" cy="426.093" width="60" height="22.4037"/>
			<path d="M-8.23 400.98 C-11.78 412.59 -12.46 432.45 -11.62 443.19 C-11.46 445.24 -11.25 446.96 -11.02 448.39 L-10.95
						 448.74" class="st6"/>
			<text x="-30.41" y="429.69" class="st2" v:langID="1033"><v:paragraph v:horizAlign="1"/><v:tabList/>a b</text>		</g>
		<g id="shape21-95" v:mID="21" v:groupContext="shape" v:layerMember="1" transform="translate(105.394,-267.671)">
			<title>Dynamic connector.21</title>
			<desc>a b̅</desc>
			<v:textBlock v:margins="rect(4,4,4,4)"/>
			<v:textRect cx="24.8518" cy="424.151" width="60" height="22.4037"/>
			<path d="M9.8 406.59 L9.89 406.94 C12.69 419.89 13.22 437.13 12.24 445.95 C11.38 453.75 9.34 454.96 9.67 454.96"
					class="st7"/>
			<text x="17.47" y="427.75" class="st2" v:langID="1033"><v:paragraph v:horizAlign="1"/><v:tabList/>a b<tspan x="2.686em"
						dy="0em" class="st5">̅</tspan> </text>		</g>
		<g id="shape22-102" v:mID="22" v:groupContext="shape" v:layerMember="1" transform="translate(191.951,-267.554)">
			<title>Dynamic connector.22</title>
			<desc>a b</desc>
			<v:textBlock v:margins="rect(4,4,4,4)"/>
			<v:textRect cx="-22.3306" cy="424.034" width="60" height="22.4037"/>
			<path d="M-8.99 400.98 C-12.21 413.91 -12.48 434.6 -11.41 444.67 C-11.28 445.95 -11.12 447.05 -10.95 448.01 L-10.84 448.35"
					class="st6"/>
			<text x="-29.71" y="427.63" class="st2" v:langID="1033"><v:paragraph v:horizAlign="1"/><v:tabList/>a b</text>		</g>
		<g id="shape23-108" v:mID="23" v:groupContext="shape" v:layerMember="1" transform="translate(196.157,-268.411)">
			<title>Dynamic connector.23</title>
			<desc>a̅ b</desc>
			<v:textBlock v:margins="rect(4,4,4,4)"/>
			<v:textRect cx="24.0887" cy="429.391" width="60" height="22.4037"/>
			<path d="M10.21 406.58 L10.31 406.93 C12.75 418.94 12.45 436.01 11.5 445.33 C10.61 454.06 9.15 455.99 9.3 455.99"
					class="st7"/>
			<text x="16.71" y="432.99" class="st2" v:langID="1033"><v:paragraph v:horizAlign="1"/><v:tabList/>a<tspan x="1.871em"
						dy="0em" class="st5">̅</tspan> b</text>		</g>
		<g id="shape24-115" v:mID="24" v:groupContext="shape" v:layerMember="1" transform="translate(94.2456,-89.25)">
			<title>Dynamic connector.24</title>
			<desc>a̅ b̅</desc>
			<v:textBlock v:margins="rect(4,4,4,4)"/>
			<v:textRect cx="22.5" cy="425.73" width="60" height="22.4037"/>
			<path d="M9 400.98 C9 410.99 9 429.47 9 442.07" class="st8"/>
			<text x="15.12" y="429.33" class="st2" v:langID="1033"><v:paragraph v:horizAlign="1"/><v:tabList/>a<tspan x="1.739em"
						dy="0em" class="st5">̅</tspan> b<tspan x="2.49em" dy="0em" class="st5">̅</tspan> </text>		</g>
		<g id="shape25-124" v:mID="25" v:groupContext="shape" v:layerMember="1" transform="translate(184.246,-89.25)">
			<title>Dynamic connector.25</title>
			<desc>a̅ b̅</desc>
			<v:textBlock v:margins="rect(4,4,4,4)"/>
			<v:textRect cx="22.5" cy="425.73" width="60" height="22.4037"/>
			<path d="M9 400.98 C9 410.99 9 429.47 9 442.07" class="st8"/>
			<text x="15.12" y="429.33" class="st2" v:langID="1033"><v:paragraph v:horizAlign="1"/><v:tabList/>a<tspan x="1.739em"
						dy="0em" class="st5">̅</tspan> b<tspan x="2.49em" dy="0em" class="st5">̅</tspan> </text>		</g>
		<g id="shape26-132" v:mID="26" v:groupContext="shape" v:layerMember="1" transform="translate(105.582,-180.387)">
			<title>Dynamic connector.26</title>
			<desc>a b</desc>
			<v:textBlock v:margins="rect(4,4,4,4)"/>
			<v:textRect cx="23.5384" cy="429.117" width="60" height="22.4037"/>
			<path d="M10.46 406.56 L10.56 406.9 C13.38 419.61 13.18 437.37 12.01 446.28 C10.94 454.36 9.06 455.17 9.13 455.17"
					class="st7"/>
			<text x="16.16" y="432.72" class="st2" v:langID="1033"><v:paragraph v:horizAlign="1"/><v:tabList/>a b</text>		</g>
		<g id="shape27-138" v:mID="27" v:groupContext="shape" v:layerMember="1" transform="translate(212.952,-180.166)">
			<title>Dynamic connector.27</title>
			<desc>a b</desc>
			<v:textBlock v:margins="rect(4,4,4,4)"/>
			<v:textRect cx="7.29381" cy="428.896" width="60" height="22.4037"/>
			<path d="M-7.53 406.63 L-7.45 406.98 C-5.15 419.35 -5.44 433.97 -6.46 442.59 C-7.38 450.34 -8.91 453.23 -9.17 454.36"
					class="st7"/>
			<text x="-0.09" y="432.5" class="st2" v:langID="1033"><v:paragraph v:horizAlign="1"/><v:tabList/>a b</text>		</g>
		<g id="shape16-144" v:mID="16" v:groupContext="shape" v:layerMember="1" transform="translate(84.3023,-28.9064)">
			<title>Dynamic connector.16</title>
			<path d="M0 400.98 C-50.81 387.89 -63.34 318.41 -64.33 237.4 C-65.29 160.05 -55.72 72.18 37.54 72.73 L37.9 72.74"
					class="st6"/>
		</g>
		<g id="shape17-149" v:mID="17" v:groupContext="shape" v:layerMember="1" transform="translate(212.778,-27.0937)">
			<title>Dynamic connector.17</title>
			<path d="M0 400.98 C45.72 386.07 62.83 315.35 68.37 235.37 C73.66 159.04 68.42 74.29 -38.12 71.16 L-38.48 71.16"
					class="st6"/>
		</g>
		<g id="shape28-154" v:mID="28" v:groupContext="shape" transform="translate(79.6206,-8.5)">
			<title>Sheet.28</title>
			<desc>car_enter</desc>
			<v:textBlock v:margins="rect(4,4,4,4)"/>
			<v:textRect cx="23.625" cy="390.98" width="47.25" height="20"/>
			<rect x="0" y="380.98" width="47.25" height="20" class="st9"/>
			<text x="5.84" y="393.68" class="st10" v:langID="1033"><v:paragraph v:horizAlign="1"/><v:tabList/>car_enter</text>		</g>
		<g id="shape29-157" v:mID="29" v:groupContext="shape" transform="translate(169.621,-7.25)">
			<title>Sheet.29</title>
			<desc>car_exit</desc>
			<v:textBlock v:margins="rect(4,4,4,4)"/>
			<v:textRect cx="23.625" cy="390.98" width="47.25" height="20"/>
			<rect x="0" y="380.98" width="47.25" height="20" class="st9"/>
			<text x="9.03" y="393.68" class="st10" v:langID="1033"><v:paragraph v:horizAlign="1"/><v:tabList/>car_exit</text>		</g>
	</g>
</svg>
