<?xml version="1.0" encoding="UTF-8" standalone="no"?>
<!DOCTYPE svg PUBLIC "-//W3C//DTD SVG 1.0//EN" "http://www.w3.org/TR/2001/REC-SVG-20010904/DTD/svg10.dtd">
<!-- Generated by Microsoft Visio 11.0, SVG Export, v1.0 dash_examples.svg Page-1 -->
<svg xmlns="http://www.w3.org/2000/svg" xmlns:xlink="http://www.w3.org/1999/xlink" xmlns:ev="http://www.w3.org/2001/xml-events"
		xmlns:v="http://schemas.microsoft.com/visio/2003/SVGExtensions/" width="6.37023in" height="2.41667in"
		viewBox="0 0 458.656 174" xml:space="preserve" color-interpolation-filters="sRGB" class="st5">
	<v:documentProperties v:langID="1033" v:viewMarkup="false"/>

	<style type="text/css">
	<![CDATA[
		.st1 {stroke:#ff5050;stroke-dasharray:10.5,7.5;stroke-linecap:round;stroke-linejoin:round;stroke-width:1.5}
		.st2 {stroke:#000000;stroke-linecap:round;stroke-linejoin:round;stroke-width:2.25}
		.st3 {fill:none;stroke:none;stroke-linecap:round;stroke-linejoin:round;stroke-width:0.75}
		.st4 {fill:#000000;font-family:Calibri;font-size:1.5em;font-weight:bold}
		.st5 {fill:none;fill-rule:evenodd;font-size:12px;overflow:visible;stroke-linecap:square;stroke-miterlimit:3}
	]]>
	</style>

	<g v:mID="0" v:index="1" v:groupContext="foregroundPage">
		<title>Page-1</title>
		<v:pageProperties v:drawingScale="1" v:pageScale="1" v:drawingUnits="19" v:shadowOffsetX="9" v:shadowOffsetY="-9"/>
		<g id="shape23-1" v:mID="23" v:groupContext="shape" transform="translate(256.906,1.5) rotate(90)">
			<title>Sheet.23</title>
			<path d="M0 174 L171 174" class="st1"/>
		</g>
		<g id="shape24-4" v:mID="24" v:groupContext="shape" transform="translate(328.906,1.5) rotate(90)">
			<title>Sheet.24</title>
			<path d="M0 174 L171 174" class="st1"/>
		</g>
		<g id="shape25-7" v:mID="25" v:groupContext="shape" transform="translate(400.906,1.5) rotate(90)">
			<title>Sheet.25</title>
			<path d="M0 174 L171 174" class="st1"/>
		</g>
		<g id="shape26-10" v:mID="26" v:groupContext="shape" transform="translate(472.906,1.5) rotate(90)">
			<title>Sheet.26</title>
			<path d="M0 174 L171 174" class="st1"/>
		</g>
		<g id="shape27-13" v:mID="27" v:groupContext="shape" transform="translate(544.906,1.5) rotate(90)">
			<title>Sheet.27</title>
			<path d="M0 174 L171 174" class="st1"/>
		</g>
		<g id="shape28-16" v:mID="28" v:groupContext="shape" transform="translate(616.906,1.5) rotate(90)">
			<title>Sheet.28</title>
			<path d="M0 174 L171 174" class="st1"/>
		</g>
		<g id="group30-19" transform="translate(37.9062,-28.5)" v:mID="30" v:groupContext="group">
			<title>Sheet.30</title>
			<g id="shape21-20" v:mID="21" v:groupContext="shape">
				<title>Sheet.21</title>
				<path d="M0 174 L45 174" class="st2"/>
			</g>
			<g id="shape22-23" v:mID="22" v:groupContext="shape" transform="translate(45,0)">
				<title>Sheet.22</title>
				<path d="M0 174 L0 147 L320.62 147" class="st2"/>
			</g>
			<g id="shape29-26" v:mID="29" v:groupContext="shape" transform="translate(364.5,0)">
				<title>Sheet.29</title>
				<path d="M0 147 L0 174 L54 174" class="st2"/>
			</g>
		</g>
		<g id="group31-29" transform="translate(37.9062,-73.5)" v:mID="31" v:groupContext="group">
			<title>Sheet.31</title>
			<g id="shape15-30" v:mID="15" v:groupContext="shape">
				<title>Sheet.15</title>
				<path d="M0 174 L45 174" class="st2"/>
			</g>
			<g id="shape19-33" v:mID="19" v:groupContext="shape" transform="translate(45,0)">
				<title>Sheet.19</title>
				<path d="M0 174 L0 147 L261 147" class="st2"/>
			</g>
			<g id="shape20-36" v:mID="20" v:groupContext="shape" transform="translate(306,0)">
				<title>Sheet.20</title>
				<path d="M0 147 L0 174 L112.5 174" class="st2"/>
			</g>
		</g>
		<g id="group32-39" transform="translate(37.9062,-118.5)" v:mID="32" v:groupContext="group">
			<title>Sheet.32</title>
			<g id="shape16-40" v:mID="16" v:groupContext="shape">
				<title>Sheet.16</title>
				<path d="M0 174 L45 174" class="st2"/>
			</g>
			<g id="shape17-43" v:mID="17" v:groupContext="shape" transform="translate(45,0)">
				<title>Sheet.17</title>
				<path d="M0 174 L0 147 L216 147" class="st2"/>
			</g>
			<g id="shape18-46" v:mID="18" v:groupContext="shape" transform="translate(261,0)">
				<title>Sheet.18</title>
				<path d="M0 147 L0 174 L157.5 174" class="st2"/>
			</g>
		</g>
		<g id="shape49-49" v:mID="49" v:groupContext="shape" transform="translate(0.75,-107.5)">
			<title>Sheet.49</title>
			<desc>b</desc>
			<v:textBlock v:margins="rect(4,4,4,4)"/>
			<v:textRect cx="19.1562" cy="164" width="38.32" height="20"/>
			<rect x="0" y="154" width="38.3125" height="20" class="st3"/>
			<text x="14.33" y="169.4" class="st4" v:langID="1033"><v:paragraph v:horizAlign="1"/><v:tabList/>b</text>		</g>
		<g id="shape51-52" v:mID="51" v:groupContext="shape" transform="translate(0.75,-64.5)">
			<title>Sheet.51</title>
			<desc>b</desc>
			<v:textBlock v:margins="rect(4,4,4,4)"/>
			<v:textRect cx="19.1562" cy="164" width="38.32" height="20"/>
			<rect x="0" y="154" width="38.3125" height="20" class="st3"/>
			<text x="14.33" y="169.4" class="st4" v:langID="1033"><v:paragraph v:horizAlign="1"/><v:tabList/>b</text>		</g>
		<g id="shape52-55" v:mID="52" v:groupContext="shape" transform="translate(0.75,-28.5)">
			<title>Sheet.52</title>
			<desc>b</desc>
			<v:textBlock v:margins="rect(4,4,4,4)"/>
			<v:textRect cx="19.1562" cy="164" width="38.32" height="20"/>
			<rect x="0" y="154" width="38.3125" height="20" class="st3"/>
			<text x="14.33" y="169.4" class="st4" v:langID="1033"><v:paragraph v:horizAlign="1"/><v:tabList/>b</text>		</g>
	</g>
</svg>
