<?xml version="1.0" encoding="UTF-8" standalone="no"?>
<!DOCTYPE svg PUBLIC "-//W3C//DTD SVG 1.0//EN" "http://www.w3.org/TR/2001/REC-SVG-20010904/DTD/svg10.dtd">
<!-- Generated by Microsoft Visio 11.0, SVG Export, v1.0 dot_examples.svg Page-1 -->
<svg xmlns="http://www.w3.org/2000/svg" xmlns:xlink="http://www.w3.org/1999/xlink" xmlns:ev="http://www.w3.org/2001/xml-events"
		xmlns:v="http://schemas.microsoft.com/visio/2003/SVGExtensions/" width="6.55773in" height="2.04167in"
		viewBox="0 0 472.156 147" xml:space="preserve" color-interpolation-filters="sRGB" class="st5">
	<v:documentProperties v:langID="1033" v:viewMarkup="false"/>

	<style type="text/css">
	<![CDATA[
		.st1 {stroke:#000000;stroke-linecap:round;stroke-linejoin:round;stroke-width:2.25}
		.st2 {stroke:#ff5050;stroke-dasharray:10.5,7.5;stroke-linecap:round;stroke-linejoin:round;stroke-width:1.5}
		.st3 {fill:none;stroke:none;stroke-linecap:round;stroke-linejoin:round;stroke-width:0.75}
		.st4 {fill:#000000;font-family:Calibri;font-size:1.5em;font-weight:bold}
		.st5 {fill:none;fill-rule:evenodd;font-size:12px;overflow:visible;stroke-linecap:square;stroke-miterlimit:3}
	]]>
	</style>

	<g v:mID="0" v:index="1" v:groupContext="foregroundPage">
		<title>Page-1</title>
		<v:pageProperties v:drawingScale="1" v:pageScale="1" v:drawingUnits="19" v:shadowOffsetX="9" v:shadowOffsetY="-9"/>
		<g id="group12-1" transform="translate(37.9062,-91.5)" v:mID="12" v:groupContext="group">
			<title>Sheet.12</title>
			<g id="shape7-2" v:mID="7" v:groupContext="shape">
				<title>Sheet.7</title>
				<path d="M0 147 L45 147" class="st1"/>
			</g>
			<g id="shape8-5" v:mID="8" v:groupContext="shape" transform="translate(45,0)">
				<title>Sheet.8</title>
				<path d="M0 147 L0 120 L72 120" class="st1"/>
			</g>
			<g id="shape9-8" v:mID="9" v:groupContext="shape" transform="translate(117,0)">
				<title>Sheet.9</title>
				<path d="M0 120 L0 147 L301.5 147" class="st1"/>
			</g>
		</g>
		<g id="group13-11" transform="translate(37.9062,-22.875)" v:mID="13" v:groupContext="group">
			<title>Sheet.13</title>
			<g id="shape11-12" v:mID="11" v:groupContext="shape">
				<title>Sheet.11</title>
				<path d="M0 147 L45 147 L45 123.38 L238.5 123.38 L238.5 145.88 L432 145.88" class="st1"/>
			</g>
		</g>
		<g id="group14-15" transform="translate(37.9062,-55.5)" v:mID="14" v:groupContext="group">
			<title>Sheet.14</title>
			<g id="shape10-16" v:mID="10" v:groupContext="shape">
				<title>Sheet.10</title>
				<path d="M0 147 L45 147 L45 122.25 L166.5 122.25 L166.5 147 L419.62 147" class="st1"/>
			</g>
		</g>
		<g id="shape1-19" v:mID="1" v:groupContext="shape" transform="translate(229.906,1.5) rotate(90)">
			<title>Sheet.1</title>
			<path d="M0 147 L144 147" class="st2"/>
		</g>
		<g id="shape2-22" v:mID="2" v:groupContext="shape" transform="translate(301.906,1.5) rotate(90)">
			<title>Sheet.2</title>
			<path d="M0 147 L144 147" class="st2"/>
		</g>
		<g id="shape3-25" v:mID="3" v:groupContext="shape" transform="translate(373.906,1.5) rotate(90)">
			<title>Sheet.3</title>
			<path d="M0 147 L144 147" class="st2"/>
		</g>
		<g id="shape4-28" v:mID="4" v:groupContext="shape" transform="translate(445.906,1.5) rotate(90)">
			<title>Sheet.4</title>
			<path d="M0 147 L144 147" class="st2"/>
		</g>
		<g id="shape5-31" v:mID="5" v:groupContext="shape" transform="translate(517.906,1.5) rotate(90)">
			<title>Sheet.5</title>
			<path d="M0 147 L144 147" class="st2"/>
		</g>
		<g id="shape6-34" v:mID="6" v:groupContext="shape" transform="translate(589.906,1.5) rotate(90)">
			<title>Sheet.6</title>
			<path d="M0 147 L144 147" class="st2"/>
		</g>
		<g id="shape43-37" v:mID="43" v:groupContext="shape" transform="translate(0.75,-98.5)">
			<title>Sheet.43</title>
			<desc>b</desc>
			<v:textBlock v:margins="rect(4,4,4,4)"/>
			<v:textRect cx="19.1562" cy="137" width="38.32" height="20"/>
			<rect x="0" y="127" width="38.3125" height="20" class="st3"/>
			<text x="14.33" y="142.4" class="st4" v:langID="1033"><v:paragraph v:horizAlign="1"/><v:tabList/>b</text>		</g>
		<g id="shape46-40" v:mID="46" v:groupContext="shape" transform="translate(0.75,-55.5)">
			<title>Sheet.46</title>
			<desc>b</desc>
			<v:textBlock v:margins="rect(4,4,4,4)"/>
			<v:textRect cx="19.1562" cy="137" width="38.32" height="20"/>
			<rect x="0" y="127" width="38.3125" height="20" class="st3"/>
			<text x="14.33" y="142.4" class="st4" v:langID="1033"><v:paragraph v:horizAlign="1"/><v:tabList/>b</text>		</g>
		<g id="shape48-43" v:mID="48" v:groupContext="shape" transform="translate(0.75,-19.5)">
			<title>Sheet.48</title>
			<desc>b</desc>
			<v:textBlock v:margins="rect(4,4,4,4)"/>
			<v:textRect cx="19.1562" cy="137" width="38.32" height="20"/>
			<rect x="0" y="127" width="38.3125" height="20" class="st3"/>
			<text x="14.33" y="142.4" class="st4" v:langID="1033"><v:paragraph v:horizAlign="1"/><v:tabList/>b</text>		</g>
	</g>
</svg>
