<?xml version="1.0" encoding="UTF-8" standalone="no"?>
<!DOCTYPE svg PUBLIC "-//W3C//DTD SVG 1.0//EN" "http://www.w3.org/TR/2001/REC-SVG-20010904/DTD/svg10.dtd">
<!-- Generated by Microsoft Visio 11.0, SVG Export, v1.0 FSM_diagram_revised.svg Page-1 -->
<svg xmlns="http://www.w3.org/2000/svg" xmlns:xlink="http://www.w3.org/1999/xlink" xmlns:ev="http://www.w3.org/2001/xml-events"
		xmlns:v="http://schemas.microsoft.com/visio/2003/SVGExtensions/" width="8.03878in" height="8.38058in"
		viewBox="0 0 578.792 603.402" xml:space="preserve" color-interpolation-filters="sRGB" class="st15">
	<v:documentProperties v:langID="1033" v:viewMarkup="false"/>

	<style type="text/css">
	<![CDATA[
		.st1 {fill:#ffffff;stroke:#000000;stroke-linecap:round;stroke-linejoin:round;stroke-width:1.5}
		.st2 {fill:#000000;font-family:Calibri;font-size:1.99999em}
		.st3 {fill:#00b050;font-size:0.500006em;font-weight:bold}
		.st4 {marker-end:url(#mrkr5-30);stroke:#000000;stroke-linecap:round;stroke-linejoin:round;stroke-width:1.5}
		.st5 {fill:#000000;fill-opacity:1;stroke:#000000;stroke-opacity:1;stroke-width:0.37313432835821}
		.st6 {fill:#000000;font-family:Calibri;font-size:1.16666em}
		.st7 {font-size:1em}
		.st8 {marker-end:url(#mrkr5-44);stroke:#000000;stroke-linecap:round;stroke-linejoin:round;stroke-width:1.5}
		.st9 {marker-start:url(#mrkr5-83);stroke:#000000;stroke-linecap:round;stroke-linejoin:round;stroke-width:1.5}
		.st10 {marker-start:url(#mrkr5-91);stroke:#000000;stroke-linecap:round;stroke-linejoin:round;stroke-width:1.5}
		.st11 {fill:#00b050;font-size:1em;font-weight:bold}
		.st12 {fill:#00b050;font-size:0.857157em;font-weight:bold}
		.st13 {marker-end:url(#mrkr13-182);stroke:#000000;stroke-linecap:round;stroke-linejoin:round;stroke-width:1}
		.st14 {fill:#000000;fill-opacity:1;stroke:#000000;stroke-opacity:1;stroke-width:0.28409090909091}
		.st15 {fill:none;fill-rule:evenodd;font-size:12px;overflow:visible;stroke-linecap:square;stroke-miterlimit:3}
	]]>
	</style>

	<defs id="Markers">
		<g id="lend5">
			<path d="M 2 1 L 0 0 L 1.98117 -0.993387 C 1.67173 -0.364515 1.67301 0.372641 1.98465 1.00043 " style="stroke:none"/>
		</g>
		<marker id="mrkr5-30" class="st5" v:arrowType="5" v:arrowSize="2" v:setback="4.45" refX="-4.45" orient="auto"
				markerUnits="strokeWidth" overflow="visible">
			<use xlink:href="#lend5" transform="scale(-2.68,-2.68) "/>
		</marker>
		<marker id="mrkr5-44" class="st5" v:arrowType="5" v:arrowSize="2" v:setback="4.69" refX="-4.69" orient="auto"
				markerUnits="strokeWidth" overflow="visible">
			<use xlink:href="#lend5" transform="scale(-2.68,-2.68) "/>
		</marker>
		<marker id="mrkr5-83" class="st5" v:arrowType="5" v:arrowSize="2" v:setback="4.45" refX="4.45" orient="auto"
				markerUnits="strokeWidth" overflow="visible">
			<use xlink:href="#lend5" transform="scale(2.68) "/>
		</marker>
		<marker id="mrkr5-91" class="st5" v:arrowType="5" v:arrowSize="2" v:setback="0" refX="0" orient="auto"
				markerUnits="strokeWidth" overflow="visible">
			<use xlink:href="#lend5" transform="scale(2.68) "/>
		</marker>
		<g id="lend13">
			<path d="M 3 1 L 0 0 L 3 -1 L 3 1 " style="stroke:none"/>
		</g>
		<marker id="mrkr13-182" class="st14" v:arrowType="13" v:arrowSize="2" v:setback="10.56" refX="-10.56" orient="auto"
				markerUnits="strokeWidth" overflow="visible">
			<use xlink:href="#lend13" transform="scale(-3.52,-3.52) "/>
		</marker>
	</defs>
	<g v:mID="0" v:index="1" v:groupContext="foregroundPage">
		<title>Page-1</title>
		<v:pageProperties v:drawingScale="1" v:pageScale="1" v:drawingUnits="19" v:shadowOffsetX="9" v:shadowOffsetY="-9"/>
		<v:layer v:name="Flowchart" v:index="0"/>
		<v:layer v:name="Connector" v:index="1"/>
		<g id="shape1-1" v:mID="1" v:groupContext="shape" v:layerMember="0" transform="translate(248.75,-534.402)">
			<title>State.32</title>
			<desc>S0 count_reset</desc>
			<v:custProps>
				<v:cp v:nameU="Cost" v:lbl="Cost" v:type="7" v:format="@" v:langID="1033"/>
				<v:cp v:nameU="Duration" v:lbl="Duration" v:type="2" v:langID="1033"/>
				<v:cp v:nameU="Resources" v:lbl="Resources" v:langID="1033"/>
			</v:custProps>
			<v:userDefs>
				<v:ud v:nameU="visVersion" v:val="VT0(14):26"/>
			</v:userDefs>
			<v:textBlock v:margins="rect(6,1,1,1)" v:verticalAlign="0"/>
			<v:textRect cx="33.75" cy="569.652" width="67.5" height="67.5"/>
			<path d="M0 569.65 A33.75 33.75 0 0 1 67.5 569.65 A33.75 33.75 0 1 1 0 569.65 Z" class="st1"/>
			<text x="22.15" y="563.5" class="st2" v:langID="1033"><v:paragraph v:horizAlign="1"/><v:tabList/>S0<v:newlineChar/><tspan
						x="3.86" dy="1.65em" class="st3">count</tspan><tspan class="st3">_</tspan><tspan class="st3">reset</tspan></text>		</g>
		<g id="shape2-7" v:mID="2" v:groupContext="shape" v:layerMember="0" transform="translate(404,-426.402)">
			<title>State.1</title>
			<desc>s4</desc>
			<v:custProps>
				<v:cp v:nameU="Cost" v:lbl="Cost" v:type="7" v:format="@" v:langID="1033"/>
				<v:cp v:nameU="Duration" v:lbl="Duration" v:type="2" v:langID="1033"/>
				<v:cp v:nameU="Resources" v:lbl="Resources" v:langID="1033"/>
			</v:custProps>
			<v:userDefs>
				<v:ud v:nameU="visVersion" v:val="VT0(14):26"/>
			</v:userDefs>
			<v:textBlock v:margins="rect(6,1,1,1)" v:verticalAlign="0"/>
			<v:textRect cx="33.75" cy="569.652" width="67.5" height="67.5"/>
			<path d="M0 569.65 A33.75 33.75 0 0 1 67.5 569.65 A33.75 33.75 0 1 1 0 569.65 Z" class="st1"/>
			<text x="22.15" y="563.5" class="st2" v:langID="1033"><v:paragraph v:horizAlign="1"/><v:tabList/>S4</text>		</g>
		<g id="shape3-10" v:mID="3" v:groupContext="shape" v:layerMember="0" transform="translate(404,-282.402)">
			<title>State.2</title>
			<desc>s5</desc>
			<v:custProps>
				<v:cp v:nameU="Cost" v:lbl="Cost" v:type="7" v:format="@" v:langID="1033"/>
				<v:cp v:nameU="Duration" v:lbl="Duration" v:type="2" v:langID="1033"/>
				<v:cp v:nameU="Resources" v:lbl="Resources" v:langID="1033"/>
			</v:custProps>
			<v:userDefs>
				<v:ud v:nameU="visVersion" v:val="VT0(14):26"/>
			</v:userDefs>
			<v:textBlock v:margins="rect(6,1,1,1)" v:verticalAlign="0"/>
			<v:textRect cx="33.75" cy="569.652" width="67.5" height="67.5"/>
			<path d="M0 569.65 A33.75 33.75 0 0 1 67.5 569.65 A33.75 33.75 0 1 1 0 569.65 Z" class="st1"/>
			<text x="22.15" y="563.5" class="st2" v:langID="1033"><v:paragraph v:horizAlign="1"/><v:tabList/>S5</text>		</g>
		<g id="shape4-13" v:mID="4" v:groupContext="shape" v:layerMember="0" transform="translate(404,-138.402)">
			<title>State.3</title>
			<desc>s6</desc>
			<v:custProps>
				<v:cp v:nameU="Cost" v:lbl="Cost" v:type="7" v:format="@" v:langID="1033"/>
				<v:cp v:nameU="Duration" v:lbl="Duration" v:type="2" v:langID="1033"/>
				<v:cp v:nameU="Resources" v:lbl="Resources" v:langID="1033"/>
			</v:custProps>
			<v:userDefs>
				<v:ud v:nameU="visVersion" v:val="VT0(14):26"/>
			</v:userDefs>
			<v:textBlock v:margins="rect(6,1,1,1)" v:verticalAlign="0"/>
			<v:textRect cx="33.75" cy="569.652" width="67.5" height="67.5"/>
			<path d="M0 569.65 A33.75 33.75 0 0 1 67.5 569.65 A33.75 33.75 0 1 1 0 569.65 Z" class="st1"/>
			<text x="22.15" y="563.5" class="st2" v:langID="1033"><v:paragraph v:horizAlign="1"/><v:tabList/>S6</text>		</g>
		<g id="shape5-16" v:mID="5" v:groupContext="shape" v:layerMember="0" transform="translate(93.5,-426.402)">
			<title>State.4</title>
			<desc>s1</desc>
			<v:custProps>
				<v:cp v:nameU="Cost" v:lbl="Cost" v:type="7" v:format="@" v:langID="1033"/>
				<v:cp v:nameU="Duration" v:lbl="Duration" v:type="2" v:langID="1033"/>
				<v:cp v:nameU="Resources" v:lbl="Resources" v:langID="1033"/>
			</v:custProps>
			<v:userDefs>
				<v:ud v:nameU="visVersion" v:val="VT0(14):26"/>
			</v:userDefs>
			<v:textBlock v:margins="rect(6,1,1,1)" v:verticalAlign="0"/>
			<v:textRect cx="33.75" cy="569.652" width="67.5" height="67.5"/>
			<path d="M0 569.65 A33.75 33.75 0 0 1 67.5 569.65 A33.75 33.75 0 1 1 0 569.65 Z" class="st1"/>
			<text x="22.15" y="563.5" class="st2" v:langID="1033"><v:paragraph v:horizAlign="1"/><v:tabList/>S1</text>		</g>
		<g id="shape6-19" v:mID="6" v:groupContext="shape" v:layerMember="0" transform="translate(93.5,-282.402)">
			<title>State.5</title>
			<desc>s2</desc>
			<v:custProps>
				<v:cp v:nameU="Cost" v:lbl="Cost" v:type="7" v:format="@" v:langID="1033"/>
				<v:cp v:nameU="Duration" v:lbl="Duration" v:type="2" v:langID="1033"/>
				<v:cp v:nameU="Resources" v:lbl="Resources" v:langID="1033"/>
			</v:custProps>
			<v:userDefs>
				<v:ud v:nameU="visVersion" v:val="VT0(14):26"/>
			</v:userDefs>
			<v:textBlock v:margins="rect(6,1,1,1)" v:verticalAlign="0"/>
			<v:textRect cx="33.75" cy="569.652" width="67.5" height="67.5"/>
			<path d="M0 569.65 A33.75 33.75 0 0 1 67.5 569.65 A33.75 33.75 0 1 1 0 569.65 Z" class="st1"/>
			<text x="22.15" y="563.5" class="st2" v:langID="1033"><v:paragraph v:horizAlign="1"/><v:tabList/>S2</text>		</g>
		<g id="shape7-22" v:mID="7" v:groupContext="shape" v:layerMember="0" transform="translate(93.5,-138.402)">
			<title>State.6</title>
			<desc>s3</desc>
			<v:custProps>
				<v:cp v:nameU="Cost" v:lbl="Cost" v:type="7" v:format="@" v:langID="1033"/>
				<v:cp v:nameU="Duration" v:lbl="Duration" v:type="2" v:langID="1033"/>
				<v:cp v:nameU="Resources" v:lbl="Resources" v:langID="1033"/>
			</v:custProps>
			<v:userDefs>
				<v:ud v:nameU="visVersion" v:val="VT0(14):26"/>
			</v:userDefs>
			<v:textBlock v:margins="rect(6,1,1,1)" v:verticalAlign="0"/>
			<v:textRect cx="33.75" cy="569.652" width="67.5" height="67.5"/>
			<path d="M0 569.65 A33.75 33.75 0 0 1 67.5 569.65 A33.75 33.75 0 1 1 0 569.65 Z" class="st1"/>
			<text x="22.15" y="563.5" class="st2" v:langID="1033"><v:paragraph v:horizAlign="1"/><v:tabList/>S3</text>		</g>
		<g id="shape8-25" v:mID="8" v:groupContext="shape" v:layerMember="1" transform="translate(253.917,-550.205)">
			<title>Dynamic connector</title>
			<desc>b</desc>
			<v:textBlock v:margins="rect(4,4,4,4)"/>
			<v:textRect cx="-16.4175" cy="623.705" width="70" height="24.8035"/>
			<path d="M0 603.4 C-36.61 626.73 -66.65 644.04 -95.37 667.3 L-95.65 667.53" class="st4"/>
			<text x="-20.1" y="627.9" class="st6" v:langID="1033"><v:paragraph v:horizAlign="1"/><v:tabList/>b</text>		</g>
		<g id="shape9-32" v:mID="9" v:groupContext="shape" v:layerMember="1" transform="translate(310.041,-548.644)">
			<title>Dynamic connector.8</title>
			<desc>b̅</desc>
			<v:textBlock v:margins="rect(4,4,4,4)"/>
			<v:textRect cx="17.4592" cy="622.144" width="70" height="24.8035"/>
			<path d="M0 603.4 C38.02 616.95 64.3 633.9 98.25 663.7 L98.52 663.93" class="st4"/>
			<text x="13.78" y="626.34" class="st6" v:langID="1033"><v:paragraph v:horizAlign="1"/><v:tabList/>b<tspan x="1.51em"
						dy="0em" class="st7">̅</tspan> </text>		</g>
		<g id="shape10-39" v:mID="10" v:groupContext="shape" v:layerMember="1" transform="translate(118.25,-426.402)">
			<title>Dynamic connector.9</title>
			<desc>(b)(count &#62;= 1)</desc>
			<v:textBlock v:margins="rect(4,4,4,4)"/>
			<v:textRect cx="56.25" cy="648.402" width="95.58" height="24.8035"/>
			<path d="M9 603.4 C9 620.4 9 652.51 9 672.87" class="st8"/>
			<text x="14.05" y="652.6" class="st6" v:langID="1033"><v:paragraph v:horizAlign="1"/><v:tabList/>(b)(count &#62;= 1)</text>		</g>
		<g id="shape11-46" v:mID="11" v:groupContext="shape" v:layerMember="1" transform="translate(118.25,-282.402)">
			<title>Dynamic connector.10</title>
			<desc>(b)(count &#62;= 3)</desc>
			<v:textBlock v:margins="rect(4,4,4,4)"/>
			<v:textRect cx="-38.25" cy="648.402" width="95.58" height="24.8035"/>
			<path d="M9 603.4 C9 620.4 9 652.51 9 672.87" class="st8"/>
			<text x="-80.45" y="652.6" class="st6" v:langID="1033"><v:paragraph v:horizAlign="1"/><v:tabList/>(b)(count &#62;= 3)</text>		</g>
		<g id="shape12-52" v:mID="12" v:groupContext="shape" v:layerMember="1" transform="translate(428.75,-426.402)">
			<title>Dynamic connector.11</title>
			<desc>(b̅)(count &#62;= 3)</desc>
			<v:textBlock v:margins="rect(4,4,4,4)"/>
			<v:textRect cx="-42.75" cy="657.402" width="95.58" height="24.8035"/>
			<path d="M9 603.4 C9 620.4 9 652.51 9 672.87" class="st8"/>
			<text x="-84.95" y="661.6" class="st6" v:langID="1033"><v:paragraph v:horizAlign="1"/><v:tabList/>(b<tspan x="-5.24em"
						dy="0em" class="st7">̅</tspan>)(count &#62;= 3)</text>		</g>
		<g id="shape13-59" v:mID="13" v:groupContext="shape" v:layerMember="1" transform="translate(428.75,-282.402)">
			<title>Dynamic connector.12</title>
			<desc>(b̅)(count &#62;= 7)</desc>
			<v:textBlock v:margins="rect(4,4,4,4)"/>
			<v:textRect cx="56.25" cy="652.902" width="95.58" height="24.8035"/>
			<path d="M9 603.4 C9 620.4 9 652.51 9 672.87" class="st8"/>
			<text x="14.05" y="657.1" class="st6" v:langID="1033"><v:paragraph v:horizAlign="1"/><v:tabList/>(b<tspan x="1.832em"
						dy="0em" class="st7">̅</tspan>)(count &#62;= 7)</text>		</g>
		<g id="shape14-66" v:mID="14" v:groupContext="shape" v:layerMember="1" transform="translate(166.657,-316.152)">
			<title>Dynamic connector.13</title>
			<desc>(b)(count &#60; 3)</desc>
			<v:textBlock v:margins="rect(4,4,4,4)"/>
			<v:textRect cx="30.3432" cy="646.152" width="88.61" height="24.8035"/>
			<path d="M-5.66 603.4 C28.44 584.22 30.24 639.72 -5.93 626.46 L-6.26 626.31" class="st4"/>
			<text x="-8.37" y="650.35" class="st6" v:langID="1033"><v:paragraph v:horizAlign="1"/><v:tabList/>(b)(count &#60; 3)</text>		</g>
		<g id="shape15-72" v:mID="15" v:groupContext="shape" v:layerMember="1" transform="translate(167.297,-460.152)">
			<title>Dynamic connector.14</title>
			<desc>(b)(count &#60; 1)</desc>
			<v:textBlock v:margins="rect(4,4,4,4)"/>
			<v:textRect cx="38.7029" cy="637.152" width="88.61" height="24.8035"/>
			<path d="M-6.3 603.4 C27.74 582.13 29.6 637.28 -5.29 624.62 L-5.62 624.47" class="st4"/>
			<text x="-0.02" y="641.35" class="st6" v:langID="1033"><v:paragraph v:horizAlign="1"/><v:tabList/>(b)(count &#60; 1)</text>		</g>
		<g id="shape16-78" v:mID="16" v:groupContext="shape" v:layerMember="1" transform="translate(248.75,-568.152)">
			<title>Dynamic connector.15</title>
			<desc>b̅</desc>
			<v:textBlock v:margins="rect(4,4,4,4)"/>
			<v:textRect cx="-88.2" cy="618.721" width="70" height="24.8035"/>
			<path d="M-6.64 604.12 L-6.99 604.16 C-72.17 612 -106.29 638.53 -121.5 677.65" class="st9"/>
			<text x="-91.88" y="622.92" class="st6" v:langID="1033"><v:paragraph v:horizAlign="1"/><v:tabList/>b<tspan x="-6.037em"
						dy="0em" class="st7">̅</tspan> </text>		</g>
		<g id="shape17-86" v:mID="17" v:groupContext="shape" v:layerMember="1" transform="translate(251.164,-580.686)">
			<title>Dynamic connector.16</title>
			<desc>b̅ / dot</desc>
			<v:textBlock v:margins="rect(4,4,4,4)"/>
			<v:textRect cx="-216.164" cy="802.686" width="70" height="24.8035"/>
			<path d="M0 603.4 C-189.16 586.69 -203.41 692.8 -197.65 765.16 C-192.48 830.16 -171.16 867.94 -157.66 867.94"
					class="st10"/>
			<text x="-235.66" y="806.89" class="st6" v:langID="1033"><v:paragraph v:horizAlign="1"/><v:tabList/>b<tspan x="-16.307em"
						dy="0em" class="st7">̅</tspan> / <tspan class="st11">dot</tspan></text>		</g>
		<g id="shape18-95" v:mID="18" v:groupContext="shape" v:layerMember="1" transform="translate(127.25,-138.196)">
			<title>Dynamic connector.17</title>
			<desc>b</desc>
			<v:textBlock v:margins="rect(4,4,4,4)"/>
			<v:textRect cx="-38.25" cy="639.196" width="70" height="24.8035"/>
			<path d="M0 603.2 C-10.59 662.49 -63.04 610.17 -35.71 589.14 L-35.4 588.96" class="st4"/>
			<text x="-41.93" y="643.4" class="st6" v:langID="1033"><v:paragraph v:horizAlign="1"/><v:tabList/>b</text>		</g>
		<g id="shape19-101" v:mID="19" v:groupContext="shape" v:layerMember="1" transform="translate(316.25,-568.152)">
			<title>Dynamic connector.18</title>
			<desc>b</desc>
			<v:textBlock v:margins="rect(4,4,4,4)"/>
			<v:textRect cx="101.25" cy="628.152" width="70" height="24.8035"/>
			<path d="M6.64 604.05 L7 604.08 C80.37 612.13 106.23 643.83 121.5 677.65" class="st9"/>
			<text x="97.57" y="632.35" class="st6" v:langID="1033"><v:paragraph v:horizAlign="1"/><v:tabList/>b</text>		</g>
		<g id="shape20-107" v:mID="20" v:groupContext="shape" v:layerMember="1" transform="translate(313.42,-581.679)">
			<title>Dynamic connector.19</title>
			<desc>b / LG</desc>
			<v:textBlock v:margins="rect(4,4,4,4)"/>
			<v:textRect cx="225.58" cy="803.679" width="70" height="24.8035"/>
			<path d="M0 603.4 C189.58 587.68 201.53 685.5 198.29 758.01 C195.41 822.29 180.58 866.68 158.08 868.93" class="st10"/>
			<text x="208.61" y="807.88" class="st6" v:langID="1033"><v:paragraph v:horizAlign="1"/><v:tabList/>b / <tspan
						class="st11">LG</tspan></text>		</g>
		<g id="shape21-114" v:mID="21" v:groupContext="shape" v:layerMember="1" transform="translate(399.721,-315.287)">
			<title>Dynamic connector.20</title>
			<desc>(b̅)(count &#60; 7)</desc>
			<v:textBlock v:margins="rect(4,4,4,4)"/>
			<v:textRect cx="-25.5334" cy="645.287" width="88.61" height="24.8035"/>
			<path d="M4.29 603.4 C-42.51 597.34 -17.56 647.07 8.3 630.44 L8.58 630.21" class="st4"/>
			<text x="-64.25" y="649.49" class="st6" v:langID="1033"><v:paragraph v:horizAlign="1"/><v:tabList/>(b<tspan x="-3.761em"
						dy="0em" class="st7">̅</tspan>)(count &#60; 7)</text>		</g>
		<g id="shape22-121" v:mID="22" v:groupContext="shape" v:layerMember="1" transform="translate(399.367,-460.152)">
			<title>Dynamic connector.21</title>
			<desc>(b̅)(count &#60; 3)</desc>
			<v:textBlock v:margins="rect(4,4,4,4)"/>
			<v:textRect cx="-25.1797" cy="646.152" width="88.61" height="24.8035"/>
			<path d="M4.63 603.4 C-46.15 592.82 -13.36 655.86 9.22 631.74 L9.43 631.45" class="st4"/>
			<text x="-63.9" y="650.35" class="st6" v:langID="1033"><v:paragraph v:horizAlign="1"/><v:tabList/>(b<tspan x="-3.736em"
						dy="0em" class="st7">̅</tspan>)(count &#60; 3)</text>		</g>
		<g id="shape23-128" v:mID="23" v:groupContext="shape" v:layerMember="1" transform="translate(282.5,-534.402)">
			<title>Dynamic connector.22</title>
			<desc>b̅ / dash</desc>
			<v:textBlock v:margins="rect(4,4,4,4)"/>
			<v:textRect cx="-49.5" cy="972.402" width="70" height="24.8035"/>
			<path d="M-0 610.08 L-0 610.44 C-0.02 701.61 -0.72 846.88 -28.23 912.23 C-50.72 965.65 -91.13 965.65 -121.5 965.65"
					class="st9"/>
			<text x="-72.81" y="976.6" class="st6" v:langID="1033"><v:paragraph v:horizAlign="1"/><v:tabList/>b<tspan x="-4.675em"
						dy="0em" class="st7">̅</tspan> / <tspan class="st11">dash</tspan></text>		</g>
		<g id="shape24-136" v:mID="24" v:groupContext="shape" v:layerMember="1" transform="translate(282.5,-534.402)">
			<title>Dynamic connector.23</title>
			<desc>(b)(count&#60;20) WG</desc>
			<v:textBlock v:margins="rect(4,4,4,4)"/>
			<v:textRect cx="67.5" cy="985.902" width="92.54" height="41.6033"/>
			<path d="M0 610.08 L0 610.44 C0.02 701.61 0.72 846.88 28.23 912.23 C50.72 965.65 91.13 965.65 121.5 965.65" class="st9"/>
			<text x="28.4" y="981.7" class="st6" v:langID="1033"><v:paragraph v:horizAlign="1"/><v:tabList/>(b)(count&#60;20) <v:newlineChar/><tspan
						x="55.11" dy="1.2em" class="st7"> </tspan><tspan class="st11">WG</tspan></text>		</g>
		<g id="shape25-144" v:mID="25" v:groupContext="shape" v:layerMember="1" transform="translate(456.976,-147.179)">
			<title>Dynamic connector.24</title>
			<desc>(b̅) (count &#60; 20)</desc>
			<v:textBlock v:margins="rect(4,4,4,4)"/>
			<v:textRect cx="72.3831" cy="582.607" width="98.87" height="24.8035"/>
			<path d="M3.48 603.4 C29.21 623.13 35.68 590.08 21.18 580.71 L20.84 580.59" class="st4"/>
			<text x="28.53" y="586.81" class="st6" v:langID="1033"><v:paragraph v:horizAlign="1"/><v:tabList/>(b<tspan x="2.867em"
						dy="0em" class="st7">̅</tspan>) (count &#60; 20)</text>		</g>
		<g id="shape26-151" v:mID="26" v:groupContext="shape" v:layerMember="0" transform="translate(248.75,-37.1517)">
			<title>State.26</title>
			<desc>S_idle count_reset</desc>
			<v:custProps>
				<v:cp v:nameU="Cost" v:lbl="Cost" v:type="7" v:format="@" v:langID="1033"/>
				<v:cp v:nameU="Duration" v:lbl="Duration" v:type="2" v:langID="1033"/>
				<v:cp v:nameU="Resources" v:lbl="Resources" v:langID="1033"/>
			</v:custProps>
			<v:userDefs>
				<v:ud v:nameU="visVersion" v:val="VT0(14):26"/>
			</v:userDefs>
			<v:textBlock v:margins="rect(6,1,1,1)" v:verticalAlign="0"/>
			<v:textRect cx="33.75" cy="569.652" width="67.5" height="67.5"/>
			<path d="M0 569.65 A33.75 33.75 0 0 1 67.5 569.65 A33.75 33.75 0 1 1 0 569.65 Z" class="st1"/>
			<text x="14.62" y="554.5" class="st6" v:langID="1033"><v:paragraph v:horizAlign="1"/><v:tabList/>S_IDLE<v:newlineChar/><v:newlineChar/><tspan
						x="3.86" dy="2.3em" class="st12">count</tspan><tspan class="st12">_</tspan><tspan class="st12">reset</tspan></text>		</g>
		<g id="shape27-157" v:mID="27" v:groupContext="shape" v:layerMember="1" transform="translate(282.5,-36.4478)">
			<title>Dynamic connector.27</title>
			<desc>b̅</desc>
			<v:textBlock v:margins="rect(4,4,4,4)"/>
			<v:textRect cx="49.5" cy="627.448" width="70" height="24.8035"/>
			<path d="M0 602.7 C4.3 643.54 66.1 624.83 34.17 590.95 L33.91 590.7" class="st4"/>
			<text x="45.82" y="631.65" class="st6" v:langID="1033"><v:paragraph v:horizAlign="1"/><v:tabList/>b<tspan x="3.798em"
						dy="0em" class="st7">̅</tspan></text>		</g>
		<g id="shape28-164" v:mID="28" v:groupContext="shape" v:layerMember="1" transform="translate(273.5,-534.402)">
			<title>Dynamic connector.28</title>
			<desc>b</desc>
			<v:textBlock v:margins="rect(4,4,4,4)"/>
			<v:textRect cx="22.5" cy="1012.9" width="70" height="24.8035"/>
			<path d="M9 610.08 L9 610.44 C9 719.98 9 928.01 9 1033.15" class="st9"/>
			<text x="18.82" y="1017.1" class="st6" v:langID="1033"><v:paragraph v:horizAlign="1"/><v:tabList/>b</text>		</g>
		<g id="shape29-170" v:mID="29" v:groupContext="shape" v:layerMember="1" transform="translate(312.827,-85.7124)">
			<title>Dynamic connector.29</title>
			<desc>count &#62;= 20 / WG</desc>
			<v:textBlock v:margins="rect(4,4,4,4)"/>
			<v:textRect cx="108.611" cy="591.212" width="111.69" height="24.8035"/>
			<path d="M6.64 602.69 L6.99 602.65 C46.59 597.18 87.42 571.34 99.98 539.7" class="st9"/>
			<text x="58.35" y="595.41" class="st6" v:langID="1033"><v:paragraph v:horizAlign="1"/><v:tabList/>count &#62;= 20 / <tspan
						class="st11">WG</tspan></text>		</g>
		<g id="shape30-177" v:mID="30" v:groupContext="shape" v:layerMember="1" transform="translate(273.5,-104.652)">
			<title>Dynamic connector.30</title>
			<path d="M9 603.4 L9 539.71" class="st13"/>
		</g>
	</g>
</svg>
