<?xml version="1.0" encoding="UTF-8" standalone="no"?>
<!DOCTYPE svg PUBLIC "-//W3C//DTD SVG 1.0//EN" "http://www.w3.org/TR/2001/REC-SVG-20010904/DTD/svg10.dtd">
<!-- Generated by Microsoft Visio 11.0, SVG Export, v1.0 LG_examples.svg Page-1 -->
<svg xmlns="http://www.w3.org/2000/svg" xmlns:xlink="http://www.w3.org/1999/xlink" xmlns:ev="http://www.w3.org/2001/xml-events"
		xmlns:v="http://schemas.microsoft.com/visio/2003/SVGExtensions/" width="8.22917in" height="2.41667in"
		viewBox="0 0 592.5 174" xml:space="preserve" color-interpolation-filters="sRGB" class="st5">
	<v:documentProperties v:langID="1033" v:viewMarkup="false"/>

	<style type="text/css">
	<![CDATA[
		.st1 {stroke:#ff5050;stroke-dasharray:10.5,7.5;stroke-linecap:round;stroke-linejoin:round;stroke-width:1.5}
		.st2 {stroke:#000000;stroke-linecap:round;stroke-linejoin:round;stroke-width:2.25}
		.st3 {fill:none;stroke:none;stroke-linecap:round;stroke-linejoin:round;stroke-width:0.75}
		.st4 {fill:#000000;font-family:Calibri;font-size:1.5em;font-weight:bold}
		.st5 {fill:none;fill-rule:evenodd;font-size:12px;overflow:visible;stroke-linecap:square;stroke-miterlimit:3}
	]]>
	</style>

	<g v:mID="0" v:index="1" v:groupContext="foregroundPage">
		<title>Page-1</title>
		<v:pageProperties v:drawingScale="1" v:pageScale="1" v:drawingUnits="19" v:shadowOffsetX="9" v:shadowOffsetY="-9"/>
		<g id="shape33-1" v:mID="33" v:groupContext="shape" transform="translate(219.75,1.5) rotate(90)">
			<title>Sheet.33</title>
			<path d="M0 174 L171 174" class="st1"/>
		</g>
		<g id="shape34-4" v:mID="34" v:groupContext="shape" transform="translate(291.75,1.5) rotate(90)">
			<title>Sheet.34</title>
			<path d="M0 174 L171 174" class="st1"/>
		</g>
		<g id="shape35-7" v:mID="35" v:groupContext="shape" transform="translate(363.75,1.5) rotate(90)">
			<title>Sheet.35</title>
			<path d="M0 174 L171 174" class="st1"/>
		</g>
		<g id="shape36-10" v:mID="36" v:groupContext="shape" transform="translate(435.75,1.5) rotate(90)">
			<title>Sheet.36</title>
			<path d="M0 174 L171 174" class="st1"/>
		</g>
		<g id="shape37-13" v:mID="37" v:groupContext="shape" transform="translate(507.75,1.5) rotate(90)">
			<title>Sheet.37</title>
			<path d="M0 174 L171 174" class="st1"/>
		</g>
		<g id="shape38-16" v:mID="38" v:groupContext="shape" transform="translate(579.75,1.5) rotate(90)">
			<title>Sheet.38</title>
			<path d="M0 174 L171 174" class="st1"/>
		</g>
		<g id="shape50-19" v:mID="50" v:groupContext="shape" transform="translate(45.75,-118.5)">
			<title>Sheet.50</title>
			<path d="M0 147 L0 174 L216 174" class="st2"/>
		</g>
		<g id="shape39-22" v:mID="39" v:groupContext="shape" transform="translate(261.75,-118.5)">
			<title>Sheet.39</title>
			<path d="M0 174 L0 147 L328.5 147" class="st2"/>
		</g>
		<g id="shape40-25" v:mID="40" v:groupContext="shape" transform="translate(45.75,-69)">
			<title>Sheet.40</title>
			<path d="M0 147 L0 174 L265.5 174" class="st2"/>
		</g>
		<g id="shape41-28" v:mID="41" v:groupContext="shape" transform="translate(311.25,-69)">
			<title>Sheet.41</title>
			<path d="M0 174 L0 147 L279 147" class="st2"/>
		</g>
		<g id="shape42-31" v:mID="42" v:groupContext="shape" transform="translate(45.75,-15)">
			<title>Sheet.42</title>
			<path d="M0 147 L0 174 L405 174" class="st2"/>
		</g>
		<g id="shape44-34" v:mID="44" v:groupContext="shape" transform="translate(656.25,1.5) rotate(90)">
			<title>Sheet.44</title>
			<path d="M0 174 L171 174" class="st1"/>
		</g>
		<g id="shape45-37" v:mID="45" v:groupContext="shape" transform="translate(728.25,1.5) rotate(90)">
			<title>Sheet.45</title>
			<path d="M0 174 L171 174" class="st1"/>
		</g>
		<g id="shape47-40" v:mID="47" v:groupContext="shape" transform="translate(450.75,-15)">
			<title>Sheet.47</title>
			<path d="M0 174 L0 147 L139.5 147" class="st2"/>
		</g>
		<g id="shape53-43" v:mID="53" v:groupContext="shape" transform="translate(0.75,-122.159)">
			<title>Sheet.53</title>
			<desc>b</desc>
			<v:textBlock v:margins="rect(4,4,4,4)"/>
			<v:textRect cx="19.1562" cy="160.08" width="38.32" height="27.8409"/>
			<rect x="0" y="146.159" width="38.3125" height="27.8409" class="st3"/>
			<text x="14.33" y="165.48" class="st4" v:langID="1033"><v:paragraph v:horizAlign="1"/><v:tabList/>b</text>		</g>
		<g id="shape54-46" v:mID="54" v:groupContext="shape" transform="translate(0.75,-62.3011)">
			<title>Sheet.54</title>
			<desc>b</desc>
			<v:textBlock v:margins="rect(4,4,4,4)"/>
			<v:textRect cx="19.1562" cy="160.08" width="38.32" height="27.8409"/>
			<rect x="0" y="146.159" width="38.3125" height="27.8409" class="st3"/>
			<text x="14.33" y="165.48" class="st4" v:langID="1033"><v:paragraph v:horizAlign="1"/><v:tabList/>b</text>		</g>
		<g id="shape55-49" v:mID="55" v:groupContext="shape" transform="translate(0.75,-12.1875)">
			<title>Sheet.55</title>
			<desc>b</desc>
			<v:textBlock v:margins="rect(4,4,4,4)"/>
			<v:textRect cx="19.1562" cy="160.08" width="38.32" height="27.8409"/>
			<rect x="0" y="146.159" width="38.3125" height="27.8409" class="st3"/>
			<text x="14.33" y="165.48" class="st4" v:langID="1033"><v:paragraph v:horizAlign="1"/><v:tabList/>b</text>		</g>
	</g>
</svg>
