<?xml version="1.0" encoding="UTF-8" standalone="no"?>
<!DOCTYPE svg PUBLIC "-//W3C//DTD SVG 1.0//EN" "http://www.w3.org/TR/2001/REC-SVG-20010904/DTD/svg10.dtd">
<!-- Generated by Microsoft Visio 11.0, SVG Export, v1.0 WG_examples.svg Page-1 -->
<svg xmlns="http://www.w3.org/2000/svg" xmlns:xlink="http://www.w3.org/1999/xlink" xmlns:ev="http://www.w3.org/2001/xml-events"
		xmlns:v="http://schemas.microsoft.com/visio/2003/SVGExtensions/" width="10.9167in" height="2.74653in"
		viewBox="0 0 786 197.75" xml:space="preserve" color-interpolation-filters="sRGB" class="st7">
	<v:documentProperties v:langID="1033" v:viewMarkup="false"/>

	<style type="text/css">
	<![CDATA[
		.st1 {stroke:#ff5050;stroke-dasharray:10.5,7.5;stroke-linecap:round;stroke-linejoin:round;stroke-width:1.5}
		.st2 {stroke:#000000;stroke-linecap:round;stroke-linejoin:round;stroke-width:2.25}
		.st3 {fill:none;stroke:none;stroke-linecap:round;stroke-linejoin:round;stroke-width:0.75}
		.st4 {fill:#000000;font-family:Calibri;font-size:1.5em;font-weight:bold}
		.st5 {fill:#000000;font-family:Calibri;font-size:1.16666em}
		.st6 {fill:#000000;stroke:#000000;stroke-linecap:round;stroke-linejoin:round;stroke-width:0.75}
		.st7 {fill:none;fill-rule:evenodd;font-size:12px;overflow:visible;stroke-linecap:square;stroke-miterlimit:3}
	]]>
	</style>

	<g v:mID="0" v:index="1" v:groupContext="foregroundPage">
		<title>Page-1</title>
		<v:pageProperties v:drawingScale="1" v:pageScale="1" v:drawingUnits="19" v:shadowOffsetX="9" v:shadowOffsetY="-9"/>
		<g id="shape56-1" v:mID="56" v:groupContext="shape" transform="translate(243.5,25.25) rotate(90)">
			<title>Sheet.56</title>
			<path d="M0 197.75 L171 197.75" class="st1"/>
		</g>
		<g id="shape57-4" v:mID="57" v:groupContext="shape" transform="translate(315.5,25.25) rotate(90)">
			<title>Sheet.57</title>
			<path d="M0 197.75 L171 197.75" class="st1"/>
		</g>
		<g id="shape58-7" v:mID="58" v:groupContext="shape" transform="translate(387.5,25.25) rotate(90)">
			<title>Sheet.58</title>
			<path d="M0 197.75 L171 197.75" class="st1"/>
		</g>
		<g id="shape59-10" v:mID="59" v:groupContext="shape" transform="translate(459.5,25.25) rotate(90)">
			<title>Sheet.59</title>
			<path d="M0 197.75 L171 197.75" class="st1"/>
		</g>
		<g id="shape60-13" v:mID="60" v:groupContext="shape" transform="translate(531.5,25.25) rotate(90)">
			<title>Sheet.60</title>
			<path d="M0 197.75 L171 197.75" class="st1"/>
		</g>
		<g id="shape61-16" v:mID="61" v:groupContext="shape" transform="translate(603.5,25.25) rotate(90)">
			<title>Sheet.61</title>
			<path d="M0 197.75 L171 197.75" class="st1"/>
		</g>
		<g id="shape66-19" v:mID="66" v:groupContext="shape" transform="translate(45.75,-118.5)">
			<title>Sheet.66</title>
			<path d="M0 170.75 L0 197.75 L436.5 197.75" class="st2"/>
		</g>
		<g id="shape67-22" v:mID="67" v:groupContext="shape" transform="translate(680,25.25) rotate(90)">
			<title>Sheet.67</title>
			<path d="M0 197.75 L171 197.75" class="st1"/>
		</g>
		<g id="shape68-25" v:mID="68" v:groupContext="shape" transform="translate(752,25.25) rotate(90)">
			<title>Sheet.68</title>
			<path d="M0 197.75 L171 197.75" class="st1"/>
		</g>
		<g id="shape69-28" v:mID="69" v:groupContext="shape" transform="translate(482.25,-118.5)">
			<title>Sheet.69</title>
			<path d="M0 197.75 L0 170.75 L265.5 170.75" class="st2"/>
		</g>
		<g id="shape70-31" v:mID="70" v:groupContext="shape" transform="translate(0.75,-122.159)">
			<title>Sheet.70</title>
			<desc>b</desc>
			<v:textBlock v:margins="rect(4,4,4,4)"/>
			<v:textRect cx="19.1562" cy="183.83" width="38.32" height="27.8409"/>
			<rect x="0" y="169.909" width="38.3125" height="27.8409" class="st3"/>
			<text x="14.33" y="189.23" class="st4" v:langID="1033"><v:paragraph v:horizAlign="1"/><v:tabList/>b</text>		</g>
		<g id="shape71-34" v:mID="71" v:groupContext="shape" transform="translate(0.75,-62.3011)">
			<title>Sheet.71</title>
			<desc>b</desc>
			<v:textBlock v:margins="rect(4,4,4,4)"/>
			<v:textRect cx="19.1562" cy="183.83" width="38.32" height="27.8409"/>
			<rect x="0" y="169.909" width="38.3125" height="27.8409" class="st3"/>
			<text x="14.33" y="189.23" class="st4" v:langID="1033"><v:paragraph v:horizAlign="1"/><v:tabList/>b</text>		</g>
		<g id="shape62-37" v:mID="62" v:groupContext="shape" transform="translate(45.75,-64.5)">
			<title>Sheet.62</title>
			<path d="M0 170.75 L0 197.75 L486 197.75" class="st2"/>
		</g>
		<g id="shape63-40" v:mID="63" v:groupContext="shape" transform="translate(531.75,-64.5)">
			<title>Sheet.63</title>
			<path d="M0 197.75 L0 170.75 L216 170.75" class="st2"/>
		</g>
		<g id="shape64-43" v:mID="64" v:groupContext="shape" transform="translate(45.75,-10.5)">
			<title>Sheet.64</title>
			<path d="M0 170.75 L0 197.75 L697.5 197.75" class="st2"/>
		</g>
		<g id="shape73-46" v:mID="73" v:groupContext="shape" transform="translate(941,25.25) rotate(90)">
			<title>Sheet.73</title>
			<path d="M0 197.75 L171 197.75" class="st1"/>
		</g>
		<g id="shape72-49" v:mID="72" v:groupContext="shape" transform="translate(24.625,-177)">
			<title>Sheet.72</title>
			<desc>0T</desc>
			<v:textBlock v:margins="rect(4,4,4,4)"/>
			<v:textRect cx="21.125" cy="187.75" width="42.25" height="20"/>
			<rect x="0" y="177.75" width="42.25" height="20" class="st3"/>
			<text x="14.17" y="191.95" class="st5" v:langID="1033"><v:paragraph v:horizAlign="1"/><v:tabList/>0T</text>		</g>
		<g id="shape74-52" v:mID="74" v:groupContext="shape" transform="translate(96.625,-177)">
			<title>Sheet.74</title>
			<desc>1T</desc>
			<v:textBlock v:margins="rect(4,4,4,4)"/>
			<v:textRect cx="21.125" cy="187.75" width="42.25" height="20"/>
			<rect x="0" y="177.75" width="42.25" height="20" class="st3"/>
			<text x="14.17" y="191.95" class="st5" v:langID="1033"><v:paragraph v:horizAlign="1"/><v:tabList/>1T</text>		</g>
		<g id="shape75-55" v:mID="75" v:groupContext="shape" transform="translate(168.625,-177)">
			<title>Sheet.75</title>
			<desc>2T</desc>
			<v:textBlock v:margins="rect(4,4,4,4)"/>
			<v:textRect cx="21.125" cy="187.75" width="42.25" height="20"/>
			<rect x="0" y="177.75" width="42.25" height="20" class="st3"/>
			<text x="14.17" y="191.95" class="st5" v:langID="1033"><v:paragraph v:horizAlign="1"/><v:tabList/>2T</text>		</g>
		<g id="shape76-58" v:mID="76" v:groupContext="shape" transform="translate(240.625,-177)">
			<title>Sheet.76</title>
			<desc>3T</desc>
			<v:textBlock v:margins="rect(4,4,4,4)"/>
			<v:textRect cx="21.125" cy="187.75" width="42.25" height="20"/>
			<rect x="0" y="177.75" width="42.25" height="20" class="st3"/>
			<text x="14.17" y="191.95" class="st5" v:langID="1033"><v:paragraph v:horizAlign="1"/><v:tabList/>3T</text>		</g>
		<g id="shape77-61" v:mID="77" v:groupContext="shape" transform="translate(312.625,-177)">
			<title>Sheet.77</title>
			<desc>4T</desc>
			<v:textBlock v:margins="rect(4,4,4,4)"/>
			<v:textRect cx="21.125" cy="187.75" width="42.25" height="20"/>
			<rect x="0" y="177.75" width="42.25" height="20" class="st3"/>
			<text x="14.17" y="191.95" class="st5" v:langID="1033"><v:paragraph v:horizAlign="1"/><v:tabList/>4T</text>		</g>
		<g id="shape78-64" v:mID="78" v:groupContext="shape" transform="translate(386,-177)">
			<title>Sheet.78</title>
			<desc>5T</desc>
			<v:textBlock v:margins="rect(4,4,4,4)"/>
			<v:textRect cx="21.125" cy="187.75" width="42.25" height="20"/>
			<rect x="0" y="177.75" width="42.25" height="20" class="st3"/>
			<text x="14.17" y="191.95" class="st5" v:langID="1033"><v:paragraph v:horizAlign="1"/><v:tabList/>5T</text>		</g>
		<g id="shape79-67" v:mID="79" v:groupContext="shape" transform="translate(461.125,-177)">
			<title>Sheet.79</title>
			<desc>6T</desc>
			<v:textBlock v:margins="rect(4,4,4,4)"/>
			<v:textRect cx="21.125" cy="187.75" width="42.25" height="20"/>
			<rect x="0" y="177.75" width="42.25" height="20" class="st3"/>
			<text x="14.17" y="191.95" class="st5" v:langID="1033"><v:paragraph v:horizAlign="1"/><v:tabList/>6T</text>		</g>
		<g id="shape80-70" v:mID="80" v:groupContext="shape" transform="translate(532.25,-177)">
			<title>Sheet.80</title>
			<desc>7T</desc>
			<v:textBlock v:margins="rect(4,4,4,4)"/>
			<v:textRect cx="21.125" cy="187.75" width="42.25" height="20"/>
			<rect x="0" y="177.75" width="42.25" height="20" class="st3"/>
			<text x="14.17" y="191.95" class="st5" v:langID="1033"><v:paragraph v:horizAlign="1"/><v:tabList/>7T</text>		</g>
		<g id="shape81-73" v:mID="81" v:groupContext="shape" transform="translate(827.125,25.25) rotate(90)">
			<title>Sheet.81</title>
			<path d="M0 197.75 L171 197.75" class="st1"/>
		</g>
		<g id="shape82-76" v:mID="82" v:groupContext="shape" transform="translate(608.25,-177)">
			<title>Sheet.82</title>
			<desc>8T</desc>
			<v:textBlock v:margins="rect(4,4,4,4)"/>
			<v:textRect cx="21.125" cy="187.75" width="42.25" height="20"/>
			<rect x="0" y="177.75" width="42.25" height="20" class="st3"/>
			<text x="14.17" y="191.95" class="st5" v:langID="1033"><v:paragraph v:horizAlign="1"/><v:tabList/>8T</text>		</g>
		<g id="shape83-79" v:mID="83" v:groupContext="shape" transform="translate(669,-177)">
			<title>Sheet.83</title>
			<ellipse cx="4.07813" cy="193.602" rx="4.07813" ry="4.14844" class="st6"/>
		</g>
		<g id="shape84-81" v:mID="84" v:groupContext="shape" transform="translate(685.594,-177)">
			<title>Sheet.84</title>
			<ellipse cx="4.07813" cy="193.602" rx="4.07813" ry="4.14844" class="st6"/>
		</g>
		<g id="shape85-83" v:mID="85" v:groupContext="shape" transform="translate(702.188,-177)">
			<title>Sheet.85</title>
			<ellipse cx="4.07813" cy="193.602" rx="4.07813" ry="4.14844" class="st6"/>
		</g>
		<g id="shape86-85" v:mID="86" v:groupContext="shape" transform="translate(722.125,-177)">
			<title>Sheet.86</title>
			<desc>20T</desc>
			<v:textBlock v:margins="rect(4,4,4,4)"/>
			<v:textRect cx="21.125" cy="187.75" width="42.25" height="20"/>
			<rect x="0" y="177.75" width="42.25" height="20" class="st3"/>
			<text x="10.62" y="191.95" class="st5" v:langID="1033"><v:paragraph v:horizAlign="1"/><v:tabList/>20T</text>		</g>
		<g id="shape65-88" v:mID="65" v:groupContext="shape" transform="translate(743.25,-10.5)">
			<title>Sheet.65</title>
			<path d="M0 197.75 L0 170.75 L40.5 170.75" class="st2"/>
		</g>
		<g id="shape87-91" v:mID="87" v:groupContext="shape" transform="translate(0.75,-15)">
			<title>Sheet.87</title>
			<desc>b</desc>
			<v:textBlock v:margins="rect(4,4,4,4)"/>
			<v:textRect cx="19.1562" cy="183.83" width="38.32" height="27.8409"/>
			<rect x="0" y="169.909" width="38.3125" height="27.8409" class="st3"/>
			<text x="14.33" y="189.23" class="st4" v:langID="1033"><v:paragraph v:horizAlign="1"/><v:tabList/>b</text>		</g>
	</g>
</svg>
