<?xml version="1.0" encoding="UTF-8" standalone="no"?>
<!DOCTYPE svg PUBLIC "-//W3C//DTD SVG 1.0//EN" "http://www.w3.org/TR/2001/REC-SVG-20010904/DTD/svg10.dtd">
<!-- Generated by Microsoft Visio 11.0, SVG Export, v1.0 ASCII_messenger_blockdiagram.svg Page-1 -->
<svg xmlns="http://www.w3.org/2000/svg" xmlns:xlink="http://www.w3.org/1999/xlink" xmlns:ev="http://www.w3.org/2001/xml-events"
		xmlns:v="http://schemas.microsoft.com/visio/2003/SVGExtensions/" width="10.1693in" height="4.2368in"
		viewBox="0 0 732.189 305.05" xml:space="preserve" color-interpolation-filters="sRGB" class="st15">
	<v:documentProperties v:langID="1033" v:viewMarkup="false"/>

	<style type="text/css">
	<![CDATA[
		.st1 {fill:none;stroke:#000000;stroke-linecap:round;stroke-linejoin:round;stroke-width:3}
		.st2 {fill:#ffffff;stroke:#000000;stroke-linecap:round;stroke-linejoin:round;stroke-width:0.75}
		.st3 {fill:#000000;font-family:Calibri;font-size:1.00001em}
		.st4 {font-size:1em}
		.st5 {fill:none;stroke:none;stroke-linecap:round;stroke-linejoin:round;stroke-width:0.75}
		.st6 {fill:#000000;font-family:Calibri;font-size:0.833336em}
		.st7 {stroke:#000000;stroke-linecap:round;stroke-linejoin:round;stroke-width:0.75}
		.st8 {marker-start:url(#mrkr5-118);stroke:#000000;stroke-linecap:round;stroke-linejoin:round;stroke-width:0.75}
		.st9 {fill:#000000;fill-opacity:1;stroke:#000000;stroke-opacity:1;stroke-width:0.22935779816514}
		.st10 {fill:#ffffff;stroke:#000000;stroke-linecap:round;stroke-linejoin:round;stroke-width:0.24}
		.st11 {marker-end:url(#mrkr5-149);stroke:#000000;stroke-linecap:round;stroke-linejoin:round;stroke-width:0.75}
		.st12 {fill:#000000;font-family:Calibri;font-size:0.666664em}
		.st13 {fill:#000000;font-family:Calibri;font-size:1.5em}
		.st14 {fill:#000000;font-family:Calibri;font-size:0.499992em}
		.st15 {fill:none;fill-rule:evenodd;font-size:12px;overflow:visible;stroke-linecap:square;stroke-miterlimit:3}
	]]>
	</style>

	<defs id="Markers">
		<g id="lend5">
			<path d="M 2 1 L 0 0 L 1.98117 -0.993387 C 1.67173 -0.364515 1.67301 0.372641 1.98465 1.00043 " style="stroke:none"/>
		</g>
		<marker id="mrkr5-118" class="st9" v:arrowType="5" v:arrowSize="2" v:setback="7.15" refX="7.15" orient="auto"
				markerUnits="strokeWidth" overflow="visible">
			<use xlink:href="#lend5" transform="scale(4.36) "/>
		</marker>
		<marker id="mrkr5-149" class="st9" v:arrowType="5" v:arrowSize="2" v:setback="7.63" refX="-7.63" orient="auto"
				markerUnits="strokeWidth" overflow="visible">
			<use xlink:href="#lend5" transform="scale(-4.36,-4.36) "/>
		</marker>
	</defs>
	<g v:mID="0" v:index="1" v:groupContext="foregroundPage">
		<title>Page-1</title>
		<v:pageProperties v:drawingScale="1" v:pageScale="1" v:drawingUnits="19" v:shadowOffsetX="9" v:shadowOffsetY="-9"/>
		<v:layer v:name="Electrical" v:index="0"/>
		<g id="shape88-1" v:mID="88" v:groupContext="shape" transform="translate(80.9489,-3)">
			<title>Sheet.88</title>
			<rect x="0" y="26.0498" width="590.25" height="279" class="st1"/>
		</g>
		<g id="shape109-3" v:mID="109" v:groupContext="shape" transform="translate(416.949,-111)">
			<title>Sheet.109</title>
			<desc>udl_counter (4-bit)</desc>
			<v:textBlock v:margins="rect(4,4,4,4)"/>
			<v:textRect cx="92.25" cy="269.05" width="184.5" height="72"/>
			<rect x="0" y="233.05" width="184.5" height="72" class="st2"/>
			<text x="62.49" y="265.45" class="st3" v:langID="1033"><v:paragraph v:horizAlign="1"/><v:tabList/>udl_counter<v:newlineChar/><tspan
						x="77.19" dy="1.2em" class="st4">(</tspan>4-bit)</text>		</g>
		<g id="shape110-7" v:mID="110" v:groupContext="shape" transform="translate(388.324,-23.25)">
			<title>Sheet.110</title>
			<desc>uart</desc>
			<v:textBlock v:margins="rect(4,4,4,4)"/>
			<v:textRect cx="92.25" cy="269.05" width="184.5" height="72"/>
			<rect x="0" y="233.05" width="184.5" height="72" class="st2"/>
			<text x="82.12" y="272.65" class="st3" v:langID="1033"><v:paragraph v:horizAlign="1"/><v:tabList/>uart</text>		</g>
		<g id="group115-10" transform="translate(131.199,-52.5)" v:mID="115" v:groupContext="group">
			<title>Sheet.115</title>
			<g id="shape107-11" v:mID="107" v:groupContext="shape" transform="translate(0.625,0)">
				<title>Sheet.107</title>
				<desc>synch_ROM</desc>
				<v:textBlock v:margins="rect(4,4,4,4)"/>
				<v:textRect cx="63" cy="269.05" width="126" height="72"/>
				<rect x="0" y="233.05" width="126" height="72" class="st2"/>
				<text x="33.75" y="272.65" class="st3" v:langID="1033"><v:paragraph v:horizAlign="1"/><v:tabList/>synch_ROM</text>			</g>
			<g id="shape112-14" v:mID="112" v:groupContext="shape" transform="translate(0,-53)">
				<title>Sheet.112</title>
				<desc>addr</desc>
				<v:textBlock v:margins="rect(4,4,4,4)"/>
				<v:textRect cx="25.0625" cy="300.05" width="50.13" height="10"/>
				<rect x="0" y="295.05" width="50.125" height="10" class="st5"/>
				<text x="4" y="303.05" class="st6" v:langID="1033"><v:paragraph/><v:tabList/>addr</text>			</g>
			<g id="shape113-17" v:mID="113" v:groupContext="shape" transform="translate(1.1875,-5.625)">
				<title>Sheet.113</title>
				<path d="M0 292.67 L7.88 298.86 L0 305.05" class="st7"/>
			</g>
			<g id="shape114-20" v:mID="114" v:groupContext="shape" transform="translate(77.125,-13)">
				<title>Sheet.114</title>
				<desc>data</desc>
				<v:textBlock v:margins="rect(4,4,4,4)"/>
				<v:textRect cx="25.0625" cy="300.05" width="50.13" height="10"/>
				<rect x="0" y="295.05" width="50.125" height="10" class="st5"/>
				<text x="27.94" y="303.05" class="st6" v:langID="1033"><v:paragraph v:horizAlign="2"/><v:tabList/>data</text>			</g>
		</g>
		<g id="shape108-23" v:mID="108" v:groupContext="shape" transform="translate(189.699,-192)">
			<title>Sheet.108</title>
			<desc>ASCII_messenger_fsm</desc>
			<v:textBlock v:margins="rect(4,4,4,4)"/>
			<v:textRect cx="92.25" cy="269.05" width="184.5" height="72"/>
			<rect x="0" y="233.05" width="184.5" height="72" class="st2"/>
			<text x="38.34" y="265.45" class="st3" v:langID="1033"><v:paragraph v:horizAlign="1"/><v:tabList/>ASCII_messenger_fsm<v:newlineChar/></text>		</g>
		<g id="shape111-26" v:mID="111" v:groupContext="shape" transform="translate(184.574,-196.5)">
			<title>Sheet.111</title>
			<desc>reset_n</desc>
			<v:textBlock v:margins="rect(4,4,4,4)"/>
			<v:textRect cx="25.0625" cy="300.05" width="50.13" height="10"/>
			<rect x="0" y="295.05" width="50.125" height="10" class="st5"/>
			<text x="9.6" y="303.05" class="st6" v:langID="1033"><v:paragraph v:horizAlign="1"/><v:tabList/>reset_n</text>		</g>
		<g id="shape116-29" v:mID="116" v:groupContext="shape" transform="translate(190.824,-208.312)">
			<title>Sheet.116</title>
			<path d="M0 292.67 L7.88 298.86 L0 305.05" class="st7"/>
		</g>
		<g id="shape117-32" v:mID="117" v:groupContext="shape" transform="translate(191.949,-232.5)">
			<title>Sheet.117</title>
			<desc>start</desc>
			<v:textBlock v:margins="rect(4,4,4,4)"/>
			<v:textRect cx="21.375" cy="300.05" width="42.75" height="10"/>
			<rect x="0" y="295.05" width="42.75" height="10" class="st5"/>
			<text x="4" y="303.05" class="st6" v:langID="1033"><v:paragraph/><v:tabList/>start</text>		</g>
		<g id="shape118-35" v:mID="118" v:groupContext="shape" transform="translate(330.324,-249.5)">
			<title>Sheet.118</title>
			<desc>count</desc>
			<v:textBlock v:margins="rect(4,4,4,4)"/>
			<v:textRect cx="21.375" cy="300.05" width="42.75" height="10"/>
			<rect x="0" y="295.05" width="42.75" height="10" class="st5"/>
			<text x="15.39" y="303.05" class="st6" v:langID="1033"><v:paragraph v:horizAlign="2"/><v:tabList/>count</text>		</g>
		<g id="shape119-38" v:mID="119" v:groupContext="shape" transform="translate(306.699,-214)">
			<title>Sheet.119</title>
			<desc>resetCounter</desc>
			<v:textBlock v:margins="rect(4,4,4,4)"/>
			<v:textRect cx="33.1875" cy="300.05" width="66.38" height="10"/>
			<rect x="0" y="295.05" width="66.375" height="10" class="st5"/>
			<text x="8.75" y="303.05" class="st6" v:langID="1033"><v:paragraph v:horizAlign="2"/><v:tabList/>resetCounter</text>		</g>
		<g id="shape120-41" v:mID="120" v:groupContext="shape" transform="translate(258.24,-196.5)">
			<title>Sheet.120</title>
			<desc>wr_en</desc>
			<v:textBlock v:margins="rect(4,4,4,4)"/>
			<v:textRect cx="26.4794" cy="300.05" width="52.96" height="10"/>
			<rect x="0" y="295.05" width="52.9588" height="10" class="st5"/>
			<text x="13.56" y="303.05" class="st6" v:langID="1033"><v:paragraph v:horizAlign="1"/><v:tabList/>wr_en</text>		</g>
		<g id="shape121-44" v:mID="121" v:groupContext="shape" transform="translate(312.24,-196.5)">
			<title>Sheet.121</title>
			<desc>count_en</desc>
			<v:textBlock v:margins="rect(4,4,4,4)"/>
			<v:textRect cx="26.4794" cy="300.05" width="52.96" height="10"/>
			<rect x="0" y="295.05" width="52.9588" height="10" class="st5"/>
			<text x="7.19" y="303.05" class="st6" v:langID="1033"><v:paragraph v:horizAlign="1"/><v:tabList/>count_en</text>		</g>
		<g id="shape123-47" v:mID="123" v:groupContext="shape" transform="translate(417.99,-160)">
			<title>Sheet.123</title>
			<desc>enable</desc>
			<v:textBlock v:margins="rect(4,4,4,4)"/>
			<v:textRect cx="26.4794" cy="300.05" width="52.96" height="10"/>
			<rect x="0" y="295.05" width="52.9588" height="10" class="st5"/>
			<text x="4" y="303.05" class="st6" v:langID="1033"><v:paragraph/><v:tabList/>enable</text>		</g>
		<g id="shape124-50" v:mID="124" v:groupContext="shape" transform="translate(414.074,-115)">
			<title>Sheet.124</title>
			<desc>reset_n</desc>
			<v:textBlock v:margins="rect(4,4,4,4)"/>
			<v:textRect cx="25.0625" cy="300.05" width="50.13" height="10"/>
			<rect x="0" y="295.05" width="50.125" height="10" class="st5"/>
			<text x="9.6" y="303.05" class="st6" v:langID="1033"><v:paragraph v:horizAlign="1"/><v:tabList/>reset_n</text>		</g>
		<g id="shape125-53" v:mID="125" v:groupContext="shape" transform="translate(417.511,-125.625)">
			<title>Sheet.125</title>
			<path d="M0 292.67 L7.88 298.86 L0 305.05" class="st7"/>
		</g>
		<g id="shape126-56" v:mID="126" v:groupContext="shape" transform="translate(547.449,-160)">
			<title>Sheet.126</title>
			<desc>up</desc>
			<v:textBlock v:margins="rect(4,4,4,4)"/>
			<v:textRect cx="26.4794" cy="300.05" width="52.96" height="10"/>
			<rect x="0" y="295.05" width="52.9588" height="10" class="st5"/>
			<text x="38.45" y="303.05" class="st6" v:langID="1033"><v:paragraph v:horizAlign="2"/><v:tabList/>up</text>		</g>
		<g id="shape127-59" v:mID="127" v:groupContext="shape" transform="translate(547.449,-147)">
			<title>Sheet.127</title>
			<desc>load</desc>
			<v:textBlock v:margins="rect(4,4,4,4)"/>
			<v:textRect cx="26.4794" cy="300.05" width="52.96" height="10"/>
			<rect x="0" y="295.05" width="52.9588" height="10" class="st5"/>
			<text x="31.35" y="303.05" class="st6" v:langID="1033"><v:paragraph v:horizAlign="2"/><v:tabList/>load</text>		</g>
		<g id="shape128-62" v:mID="128" v:groupContext="shape" transform="translate(547.449,-133)">
			<title>Sheet.128</title>
			<desc>D</desc>
			<v:textBlock v:margins="rect(4,4,4,4)"/>
			<v:textRect cx="26.4794" cy="300.05" width="52.96" height="10"/>
			<rect x="0" y="295.05" width="52.9588" height="10" class="st5"/>
			<text x="42.81" y="303.05" class="st6" v:langID="1033"><v:paragraph v:horizAlign="2"/><v:tabList/>D</text>		</g>
		<g id="shape129-65" v:mID="129" v:groupContext="shape" transform="translate(467.49,-169)">
			<title>Sheet.129</title>
			<desc>Q</desc>
			<v:textBlock v:margins="rect(4,4,4,4)"/>
			<v:textRect cx="26.4794" cy="300.05" width="52.96" height="10"/>
			<rect x="0" y="295.05" width="52.9588" height="10" class="st5"/>
			<text x="42.23" y="303.05" class="st6" v:langID="1033"><v:paragraph v:horizAlign="2"/><v:tabList/>Q</text>		</g>
		<g id="shape130-68" v:mID="130" v:groupContext="shape" transform="translate(601.449,-165)">
			<title>Sheet.130</title>
			<path d="M0 305.05 L19.29 305.05" class="st7"/>
		</g>
		<g id="shape131-71" v:mID="131" v:groupContext="shape" transform="translate(601.449,-151.5)">
			<title>Sheet.131</title>
			<path d="M0 305.05 L22.5 305.05" class="st7"/>
		</g>
		<g id="shape132-74" v:mID="132" v:groupContext="shape" transform="translate(601.449,-138)">
			<title>Sheet.132</title>
			<path d="M0 305.05 L23.06 305.05" class="st7"/>
		</g>
		<g id="shape133-77" v:mID="133" v:groupContext="shape" transform="translate(884.419,300.097) rotate(116.565)">
			<title>Sheet.133</title>
			<path d="M0 305.05 L7.55 305.05" class="st7"/>
		</g>
		<g id="shape134-80" v:mID="134" v:groupContext="shape" transform="translate(602.574,-133.75)">
			<title>Sheet.134</title>
			<desc>4</desc>
			<v:textBlock v:margins="rect(4,4,4,4)"/>
			<v:textRect cx="12.375" cy="295.05" width="24.75" height="20"/>
			<rect x="0" y="285.05" width="24.75" height="20" class="st5"/>
			<text x="9.84" y="298.05" class="st6" v:langID="1033"><v:paragraph v:horizAlign="1"/><v:tabList/>4</text>		</g>
		<g id="shape135-83" v:mID="135" v:groupContext="shape" transform="translate(616.074,-156)">
			<title>Sheet.135</title>
			<desc>1&#39;b1</desc>
			<v:textBlock v:margins="rect(4,4,4,4)"/>
			<v:textRect cx="17.4375" cy="295.05" width="34.88" height="20"/>
			<rect x="0" y="285.05" width="34.875" height="20" class="st5"/>
			<text x="8.64" y="298.05" class="st6" v:langID="1033"><v:paragraph v:horizAlign="1"/><v:tabList/>1&#39;b1</text>		</g>
		<g id="shape136-86" v:mID="136" v:groupContext="shape" transform="translate(620.011,-140.5)">
			<title>Sheet.136</title>
			<desc>1&#39;b0</desc>
			<v:textBlock v:margins="rect(4,4,4,4)"/>
			<v:textRect cx="17.4375" cy="295.05" width="34.88" height="20"/>
			<rect x="0" y="285.05" width="34.875" height="20" class="st5"/>
			<text x="8.64" y="298.05" class="st6" v:langID="1033"><v:paragraph v:horizAlign="1"/><v:tabList/>1&#39;b0</text>		</g>
		<g id="shape137-89" v:mID="137" v:groupContext="shape" transform="translate(620.574,-127)">
			<title>Sheet.137</title>
			<desc>4&#39;b0000</desc>
			<v:textBlock v:margins="rect(4,4,4,4)"/>
			<v:textRect cx="24.1875" cy="295.05" width="48.38" height="20"/>
			<rect x="0" y="285.05" width="48.375" height="20" class="st5"/>
			<text x="7.79" y="298.05" class="st6" v:langID="1033"><v:paragraph v:horizAlign="1"/><v:tabList/>4&#39;b0000</text>		</g>
		<g id="shape138-92" v:mID="138" v:groupContext="shape" transform="translate(643.249,113.05) rotate(90)">
			<title>Sheet.138</title>
			<path d="M0 305.05 L27 305.05" class="st7"/>
		</g>
		<g id="shape139-95" v:mID="139" v:groupContext="shape" transform="translate(338.199,-165)">
			<title>Sheet.139</title>
			<path d="M0 305.05 L78.75 305.05" class="st7"/>
		</g>
		<g id="shape140-98" v:mID="140" v:groupContext="shape" transform="translate(383.199,-26.75)">
			<title>Sheet.140</title>
			<desc>reset_n</desc>
			<v:textBlock v:margins="rect(4,4,4,4)"/>
			<v:textRect cx="25.0625" cy="300.05" width="50.13" height="10"/>
			<rect x="0" y="295.05" width="50.125" height="10" class="st5"/>
			<text x="9.6" y="303.05" class="st6" v:langID="1033"><v:paragraph v:horizAlign="1"/><v:tabList/>reset_n</text>		</g>
		<g id="shape141-101" v:mID="141" v:groupContext="shape" transform="translate(389.449,-39.5625)">
			<title>Sheet.141</title>
			<path d="M0 292.67 L7.88 298.86 L0 305.05" class="st7"/>
		</g>
		<g id="shape142-104" v:mID="142" v:groupContext="shape" transform="translate(388.324,-76.75)">
			<title>Sheet.142</title>
			<desc>wr_uart</desc>
			<v:textBlock v:margins="rect(4,4,4,4)"/>
			<v:textRect cx="25.0625" cy="300.05" width="50.13" height="10"/>
			<rect x="0" y="295.05" width="50.125" height="10" class="st5"/>
			<text x="4" y="303.05" class="st6" v:langID="1033"><v:paragraph/><v:tabList/>wr_uart</text>		</g>
		<g id="shape143-107" v:mID="143" v:groupContext="shape" transform="translate(388.324,-62.75)">
			<title>Sheet.143</title>
			<desc>w_data</desc>
			<v:textBlock v:margins="rect(4,4,4,4)"/>
			<v:textRect cx="25.0625" cy="300.05" width="50.13" height="10"/>
			<rect x="0" y="295.05" width="50.125" height="10" class="st5"/>
			<text x="4" y="303.05" class="st6" v:langID="1033"><v:paragraph/><v:tabList/>w_data</text>		</g>
		<g id="shape144-110" v:mID="144" v:groupContext="shape" transform="translate(589.249,113.05) rotate(90)">
			<title>Sheet.144</title>
			<path d="M0 305.05 L110.53 305.05" class="st7"/>
		</g>
		<g id="shape145-113" v:mID="145" v:groupContext="shape" transform="translate(388.324,528.35) rotate(180)">
			<title>Sheet.145</title>
			<path d="M5.36 305.05 L5.72 305.05 L104.12 305.05" class="st8"/>
		</g>
		<g id="group148-119" transform="translate(690.499,101.8) rotate(90)" v:mID="148" v:groupContext="group" v:layerMember="0">
			<v:userDefs>
				<v:ud v:nameU="Form" v:val="VT0(0):26"/>
				<v:ud v:nameU="visDescription" v:val="VT4(Represents an inverter.)"/>
				<v:ud v:nameU="visVersion" v:val="VT0(14):26"/>
			</v:userDefs>
			<title>Inverter</title>
			<g id="shape149-120" v:mID="149" v:groupContext="shape" v:layerMember="0"
					transform="translate(215.198,76.4876) rotate(45)">
				<title>Sheet.149</title>
			</g>
			<g id="shape150-122" v:mID="150" v:groupContext="shape" v:layerMember="0">
				<title>Sheet.150</title>
				<desc>1</desc>
				<v:textBlock v:margins="rect(1,1,1,1)"/>
				<v:textRect cx="6.75" cy="294.925" width="6.41" height="9.20349"/>
				<path d="M13.5 298.3 A1.0125 1.0125 -180 1 0 15.53 298.3 A1.0125 1.0125 -180 0 0 13.5 298.3 ZM0 291.55 L13.5 298.3
							 L0 305.05 L0 291.55 Z" class="st10"/>
			</g>
		</g>
		<g id="shape122-124" v:mID="122" v:groupContext="shape" transform="translate(373.074,-203.25)">
			<title>Sheet.122</title>
			<path d="M0 289.3 L19.12 289.3 L19.12 305.05" class="st7"/>
		</g>
		<g id="shape146-127" v:mID="146" v:groupContext="shape" transform="translate(697.249,116.312) rotate(90)">
			<title>Sheet.146</title>
			<path d="M0 305.05 L68.74 305.05" class="st7"/>
		</g>
		<g id="shape147-130" v:mID="147" v:groupContext="shape" transform="translate(392.199,-120)">
			<title>Sheet.147</title>
			<path d="M0 305.05 L25.03 305.05" class="st7"/>
		</g>
		<g id="shape151-133" v:mID="151" v:groupContext="shape" transform="translate(373.074,-183)">
			<title>Sheet.151</title>
			<path d="M5.36 233.05 L5.72 233.05 L140.62 233.05 L140.62 305.05" class="st8"/>
		</g>
		<g id="shape152-138" v:mID="152" v:groupContext="shape" transform="translate(520.136,-76.75)">
			<title>Sheet.152</title>
			<desc>tx</desc>
			<v:textBlock v:margins="rect(4,4,4,4)"/>
			<v:textRect cx="25.0625" cy="300.05" width="50.13" height="10"/>
			<rect x="0" y="295.05" width="50.125" height="10" class="st5"/>
			<text x="38.44" y="303.05" class="st6" v:langID="1033"><v:paragraph v:horizAlign="2"/><v:tabList/>tx</text>		</g>
		<g id="shape153-141" v:mID="153" v:groupContext="shape" transform="translate(520.136,-57)">
			<title>Sheet.153</title>
			<desc>rx</desc>
			<v:textBlock v:margins="rect(4,4,4,4)"/>
			<v:textRect cx="25.0625" cy="300.05" width="50.13" height="10"/>
			<rect x="0" y="295.05" width="50.125" height="10" class="st5"/>
			<text x="38.31" y="303.05" class="st6" v:langID="1033"><v:paragraph v:horizAlign="2"/><v:tabList/>rx</text>		</g>
		<g id="shape154-144" v:mID="154" v:groupContext="shape" transform="translate(258.449,-71)">
			<title>Sheet.154</title>
			<path d="M0 305.05 L124.15 305.05" class="st11"/>
		</g>
		<g id="shape155-150" v:mID="155" v:groupContext="shape" transform="translate(483.579,456.044) rotate(137.49)">
			<title>Sheet.155</title>
			<path d="M0 305.05 L9.16 305.05" class="st7"/>
		</g>
		<g id="shape156-153" v:mID="156" v:groupContext="shape" transform="translate(261.386,-56)">
			<title>Sheet.156</title>
			<desc>8</desc>
			<v:textBlock v:margins="rect(4,4,4,4)"/>
			<v:textRect cx="13.8125" cy="300.05" width="27.63" height="10"/>
			<rect x="0" y="295.05" width="27.625" height="10" class="st5"/>
			<text x="11.28" y="303.05" class="st6" v:langID="1033"><v:paragraph v:horizAlign="1"/><v:tabList/>8</text>		</g>
		<g id="shape157-156" v:mID="157" v:groupContext="shape" transform="translate(582.579,456.044) rotate(137.49)">
			<title>Sheet.157</title>
			<path d="M0 305.05 L9.16 305.05" class="st7"/>
		</g>
		<g id="shape158-159" v:mID="158" v:groupContext="shape" transform="translate(360.386,-56)">
			<title>Sheet.158</title>
			<desc>8</desc>
			<v:textBlock v:margins="rect(4,4,4,4)"/>
			<v:textRect cx="13.8125" cy="300.05" width="27.63" height="10"/>
			<rect x="0" y="295.05" width="27.625" height="10" class="st5"/>
			<text x="11.28" y="303.05" class="st6" v:langID="1033"><v:paragraph v:horizAlign="1"/><v:tabList/>8</text>		</g>
		<g id="shape159-162" v:mID="159" v:groupContext="shape" transform="translate(613.766,270.544) rotate(137.49)">
			<title>Sheet.159</title>
			<path d="M0 305.05 L9.16 305.05" class="st7"/>
		</g>
		<g id="shape160-165" v:mID="160" v:groupContext="shape" transform="translate(391.574,-241.5)">
			<title>Sheet.160</title>
			<desc>4</desc>
			<v:textBlock v:margins="rect(4,4,4,4)"/>
			<v:textRect cx="13.8125" cy="300.05" width="27.63" height="10"/>
			<rect x="0" y="295.05" width="27.625" height="10" class="st5"/>
			<text x="11.28" y="303.05" class="st6" v:langID="1033"><v:paragraph v:horizAlign="1"/><v:tabList/>4</text>		</g>
		<g id="shape161-168" v:mID="161" v:groupContext="shape" transform="translate(722.391,328.919) rotate(137.49)">
			<title>Sheet.161</title>
			<path d="M0 305.05 L9.16 305.05" class="st7"/>
		</g>
		<g id="shape162-171" v:mID="162" v:groupContext="shape" transform="translate(510.011,-193.75)">
			<title>Sheet.162</title>
			<desc>4</desc>
			<v:textBlock v:margins="rect(4,4,4,4)"/>
			<v:textRect cx="13.8125" cy="300.05" width="27.63" height="10"/>
			<rect x="0" y="295.05" width="27.625" height="10" class="st5"/>
			<text x="11.28" y="303.05" class="st6" v:langID="1033"><v:paragraph v:horizAlign="1"/><v:tabList/>4</text>		</g>
		<g id="shape163-174" v:mID="163" v:groupContext="shape" transform="translate(104.199,-115.5)">
			<title>Sheet.163</title>
			<path d="M333 165.05 L333 147.55 L0 147.55 L0 305.05 L4.5 305.05" class="st7"/>
		</g>
		<g id="shape164-177" v:mID="164" v:groupContext="shape" transform="translate(415.999,186.175) rotate(90)">
			<title>Sheet.164</title>
			<path d="M0 305.05 L18 305.05" class="st7"/>
		</g>
		<g id="shape165-180" v:mID="165" v:groupContext="shape" transform="translate(110.949,-109.875)">
			<title>Sheet.165</title>
			<path d="M0 305.05 L14.53 305.05" class="st11"/>
		</g>
		<g id="shape166-185" v:mID="166" v:groupContext="shape" transform="translate(59.1989,-108.758)">
			<title>Sheet.166</title>
			<desc>4</desc>
			<v:textBlock v:margins="rect(4,4,4,4)"/>
			<v:textRect cx="9" cy="300.272" width="18" height="9.55469"/>
			<rect x="0" y="295.495" width="18" height="9.55469" class="st5"/>
			<text x="6.97" y="302.67" class="st12" v:langID="1033"><v:paragraph v:horizAlign="1"/><v:tabList/>4</text>		</g>
		<g id="shape167-188" v:mID="167" v:groupContext="shape" transform="translate(572.824,-81.75)">
			<title>Sheet.167</title>
			<path d="M0 305.05 L107.37 305.05" class="st7"/>
		</g>
		<g id="shape168-191" v:mID="168" v:groupContext="shape" transform="translate(572.824,-61.5)">
			<title>Sheet.168</title>
			<path d="M0 305.05 L107.37 305.05" class="st7"/>
		</g>
		<g id="shape169-194" v:mID="169" v:groupContext="shape" v:layerMember="0" transform="translate(680.199,-73.125)">
			<title>I/O port.169</title>
			<desc>tx</desc>
			<v:userDefs>
				<v:ud v:nameU="Form" v:val="VT0(0):26"/>
				<v:ud v:nameU="visDescription" v:val="VT4(Unidirectional or bidirectional I/O port. )"/>
				<v:ud v:nameU="visVersion" v:val="VT0(14):26"/>
			</v:userDefs>
			<v:textBlock v:margins="rect(1,1,1,1)"/>
			<v:textRect cx="20.25" cy="295.675" width="9.96" height="11.6036"/>
			<path d="M0 296.42 L0 287.8 L34.5 287.8 L51.75 296.42 L34.5 305.05 L0 305.05 L0 296.42 Z" class="st10"/>
			<text x="17.18" y="298.07" class="st12" v:langID="1033"><v:paragraph v:horizAlign="1"/><v:tabList/>tx</text>		</g>
		<g id="shape170-197" v:mID="170" v:groupContext="shape" v:layerMember="0" transform="translate(680.199,-52.5)">
			<title>I/O port.170</title>
			<desc>rx</desc>
			<v:userDefs>
				<v:ud v:nameU="Form" v:val="VT0(0):26"/>
				<v:ud v:nameU="visDescription" v:val="VT4(Unidirectional or bidirectional I/O port. )"/>
				<v:ud v:nameU="visVersion" v:val="VT0(14):26"/>
			</v:userDefs>
			<v:textBlock v:margins="rect(1,1,1,1)"/>
			<v:textRect cx="20.25" cy="295.675" width="10.07" height="11.6036"/>
			<path d="M0 296.42 L0 287.8 L34.5 287.8 L51.75 296.42 L34.5 305.05 L0 305.05 L0 296.42 Z" class="st10"/>
			<text x="17.12" y="298.07" class="st12" v:langID="1033"><v:paragraph v:horizAlign="1"/><v:tabList/>rx</text>		</g>
		<g id="shape171-200" v:mID="171" v:groupContext="shape" transform="translate(95.1989,-284.25)">
			<title>Sheet.171</title>
			<desc>ASCII_messenger</desc>
			<v:textBlock v:margins="rect(4,4,4,4)"/>
			<v:textRect cx="85.5" cy="295.05" width="171" height="20"/>
			<rect x="0" y="285.05" width="171" height="20" class="st5"/>
			<text x="22.57" y="300.45" class="st13" v:langID="1033"><v:paragraph v:horizAlign="1"/><v:tabList/>ASCII_messenger</text>		</g>
		<g id="shape172-203" v:mID="172" v:groupContext="shape" v:layerMember="0" transform="translate(5.19885,-228)">
			<title>I/O port.172</title>
			<desc>start</desc>
			<v:userDefs>
				<v:ud v:nameU="Form" v:val="VT0(0):26"/>
				<v:ud v:nameU="visDescription" v:val="VT4(Unidirectional or bidirectional I/O port. )"/>
				<v:ud v:nameU="visVersion" v:val="VT0(14):26"/>
			</v:userDefs>
			<v:textBlock v:margins="rect(1,1,1,1)"/>
			<v:textRect cx="20.25" cy="295.675" width="18.93" height="11.6036"/>
			<path d="M0 296.42 L0 287.8 L34.5 287.8 L51.75 296.42 L34.5 305.05 L0 305.05 L0 296.42 Z" class="st10"/>
			<text x="12.7" y="298.07" class="st12" v:langID="1033"><v:paragraph v:horizAlign="1"/><v:tabList/>start</text>		</g>
		<g id="shape173-206" v:mID="173" v:groupContext="shape" transform="translate(190.561,373.098) rotate(179.838)">
			<title>Sheet.173</title>
			<path d="M0 305.05 L132.75 305.05" class="st7"/>
		</g>
		<g id="shape174-209" v:mID="174" v:groupContext="shape" v:layerMember="0" transform="translate(0.698852,-96.75)">
			<title>I/O port.174</title>
			<desc>mssg_index</desc>
			<v:userDefs>
				<v:ud v:nameU="Form" v:val="VT0(0):26"/>
				<v:ud v:nameU="visDescription" v:val="VT4(Unidirectional or bidirectional I/O port. )"/>
				<v:ud v:nameU="visVersion" v:val="VT0(14):26"/>
			</v:userDefs>
			<v:textBlock v:margins="rect(1,1,1,1)"/>
			<v:textRect cx="20.25" cy="294.175" width="41.9" height="11.6036"/>
			<path d="M0 295.67 L0 286.3 L37.5 286.3 L56.25 295.67 L37.5 305.05 L0 305.05 L0 295.67 Z" class="st10"/>
			<text x="1.21" y="296.57" class="st12" v:langID="1033"><v:paragraph v:horizAlign="1"/><v:tabList/>mssg_index</text>		</g>
		<g id="shape175-212" v:mID="175" v:groupContext="shape" transform="translate(56.9489,-106.125)">
			<title>Sheet.175</title>
			<path d="M0 305.05 L51.75 305.05" class="st7"/>
		</g>
		<g id="shape176-215" v:mID="176" v:groupContext="shape" transform="translate(287.277,412.003) rotate(135)">
			<title>Sheet.176</title>
			<path d="M0 305.05 L7.36 305.05" class="st7"/>
		</g>
		<g id="shape177-218" v:mID="177" v:groupContext="shape" transform="translate(100.824,-137.445)">
			<title>Sheet.177</title>
			<desc>4</desc>
			<v:textBlock v:margins="rect(4,4,4,4)"/>
			<v:textRect cx="9" cy="300.272" width="18" height="9.55469"/>
			<rect x="0" y="295.495" width="18" height="9.55469" class="st5"/>
			<text x="6.97" y="302.67" class="st12" v:langID="1033"><v:paragraph v:horizAlign="1"/><v:tabList/>4</text>		</g>
		<g id="shape178-221" v:mID="178" v:groupContext="shape" transform="translate(323.277,383.315) rotate(135)">
			<title>Sheet.178</title>
			<path d="M0 305.05 L7.36 305.05" class="st7"/>
		</g>
		<g id="shape179-224" v:mID="179" v:groupContext="shape" transform="translate(83.9489,-126.75)">
			<title>Sheet.179</title>
			<desc>:: addr[3:0]</desc>
			<v:textBlock v:margins="rect(4,4,4,4)"/>
			<v:textRect cx="34.875" cy="300.272" width="69.75" height="9.55469"/>
			<rect x="0" y="295.495" width="69.75" height="9.55469" class="st5"/>
			<text x="21.27" y="302.07" class="st14" v:langID="1033"><v:paragraph v:horizAlign="1"/><v:tabList/>:: addr[3:0]</text>		</g>
		<g id="shape180-227" v:mID="180" v:groupContext="shape" transform="translate(62.5739,-92.4453)">
			<title>Sheet.180</title>
			<desc>:: addr[7:4]</desc>
			<v:textBlock v:margins="rect(4,4,4,4)"/>
			<v:textRect cx="34.875" cy="300.272" width="69.75" height="9.55469"/>
			<rect x="0" y="295.495" width="69.75" height="9.55469" class="st5"/>
			<text x="21.27" y="302.07" class="st14" v:langID="1033"><v:paragraph v:horizAlign="1"/><v:tabList/>:: addr[7:4]</text>		</g>
	</g>
</svg>
